<svg width="24" height="24" viewBox="0 0 24 24" fill="none" xmlns="http://www.w3.org/2000/svg">
<path d="M12 22V13" stroke="#2C2C2C" stroke-width="2" stroke-linecap="round" stroke-linejoin="round"/>
<path d="M15.17 2.20999C15.4191 2.07074 15.6997 1.99762 15.985 1.99762C16.2704 1.99762 16.551 2.07074 16.8 2.20999L21 4.56999C21.2975 4.7382 21.5449 4.98236 21.7171 5.27752C21.8893 5.57269 21.98 5.90828 21.98 6.24999C21.98 6.59171 21.8893 6.9273 21.7171 7.22246C21.5449 7.51763 21.2975 7.76179 21 7.92999L8.82002 14.79C8.57022 14.9325 8.2876 15.0074 8.00002 15.0074C7.71244 15.0074 7.42982 14.9325 7.18002 14.79L3.00002 12.43C2.70257 12.2618 2.45511 12.0176 2.28293 11.7225C2.11075 11.4273 2.02002 11.0917 2.02002 10.75C2.02002 10.4083 2.11075 10.0727 2.28293 9.77752C2.45511 9.48236 2.70257 9.23819 3.00002 9.06999L15.17 2.20999Z" stroke="#2C2C2C" stroke-width="2" stroke-linecap="round" stroke-linejoin="round"/>
<path d="M20 13V16.87C20.0004 17.2474 19.8971 17.6178 19.7013 17.9405C19.5056 18.2632 19.2249 18.5259 18.89 18.7L12.89 21.78C12.6151 21.9229 12.3098 21.9975 12 21.9975C11.6902 21.9975 11.3849 21.9229 11.11 21.78L5.11 18.7C4.77508 18.5259 4.49443 18.2632 4.29868 17.9405C4.10293 17.6178 3.99961 17.2474 4 16.87V13" stroke="#2C2C2C" stroke-width="2" stroke-linecap="round" stroke-linejoin="round"/>
<path d="M21 12.43C21.2975 12.2618 21.5449 12.0176 21.7171 11.7225C21.8893 11.4273 21.98 11.0917 21.98 10.75C21.98 10.4083 21.8893 10.0727 21.7171 9.77753C21.5449 9.48236 21.2975 9.2382 21 9.07L8.83002 2.2C8.5819 2.05791 8.30094 1.98315 8.01502 1.98315C7.7291 1.98315 7.44814 2.05791 7.20002 2.2L3.00002 4.57C2.70257 4.7382 2.45511 4.98236 2.28293 5.27753C2.11075 5.57269 2.02002 5.90828 2.02002 6.25C2.02002 6.59171 2.11075 6.9273 2.28293 7.22247C2.45511 7.51764 2.70257 7.7618 3.00002 7.93L15.18 14.79C15.428 14.9325 15.709 15.0075 15.995 15.0075C16.281 15.0075 16.562 14.9325 16.81 14.79L21 12.43Z" stroke="#2C2C2C" stroke-width="2" stroke-linecap="round" stroke-linejoin="round"/>
</svg>
