<svg width="160" height="187" viewBox="0 0 160 187" fill="none" xmlns="http://www.w3.org/2000/svg">
    <g clip-path="url(#clip0_15_200)">
    <mask id="path-1-inside-1_15_200" fill="white">
    <path fill-rule="evenodd" clip-rule="evenodd" d="M152.225 40.6049C154.616 41.9751 156.606 43.9842 157.989 46.4223C158.871 48.09 159.463 49.8961 159.747 51.7591C159.895 52.7235 159.959 53.7033 159.938 54.6871H159.997V131.313C160.051 134.136 159.405 136.926 158.121 139.418C156.733 141.939 154.696 144.013 152.237 145.41C130.925 158.087 109.625 170.782 88.338 183.494C82.5932 186.924 77.0323 186.802 71.3317 183.32C66.6341 180.453 51.4972 171.453 36.7848 162.706L36.783 162.705C24.9571 155.673 13.4058 148.805 7.77137 145.417C5.31165 144.021 3.27467 141.947 1.88684 139.426C1.88508 139.422 1.88332 139.419 1.88156 139.415L1.86456 139.426C0.586531 136.935 -0.0540869 134.147 0.0035755 131.328V54.6793C0.0035755 48.475 2.54128 43.7002 7.74174 40.5828C12.8808 37.5037 22.9337 31.5242 33.6292 25.1626C49.2647 15.8626 66.2733 5.74602 71.3094 2.6804C76.9953 -0.801905 82.5636 -0.923558 88.301 2.50553C90.5915 3.87339 92.8821 5.24104 95.1728 6.60849C114.185 17.9203 133.192 29.2462 152.193 40.5863C152.195 40.5877 152.197 40.5891 152.2 40.5904C152.208 40.5952 152.217 40.6 152.225 40.6049Z"/>
    </mask>
    <path d="M157.989 46.4223L162.409 44.0849L162.375 44.02L162.338 43.9561L157.989 46.4223ZM152.225 40.6049L149.736 44.9414L149.739 44.9429L152.225 40.6049ZM159.752 51.7862L154.808 52.5321L154.808 52.5342L159.752 51.7862ZM159.938 54.6871L154.939 54.5788L154.829 59.6871H159.938V54.6871ZM159.997 54.6871H164.997V49.6871H159.997V54.6871ZM159.997 131.313H154.997V131.361L154.998 131.408L159.997 131.313ZM158.121 139.418L162.501 141.829L162.535 141.769L162.566 141.708L158.121 139.418ZM152.237 145.41L149.768 141.061L149.724 141.086L149.681 141.112L152.237 145.41ZM88.338 183.494L90.9007 187.788L90.9016 187.787L88.338 183.494ZM71.3317 183.32L73.9382 179.053L73.936 179.051L71.3317 183.32ZM36.7833 162.705L34.1333 166.945L34.1804 166.974L34.228 167.003L36.7833 162.705ZM36.7826 162.704L39.4326 158.464L39.387 158.436L39.3408 158.408L36.7826 162.704ZM36.775 162.7L39.3332 158.404L39.3303 158.402L36.775 162.7ZM7.77137 145.417L10.348 141.132L10.2943 141.1L10.2397 141.069L7.77137 145.417ZM1.88684 139.426L-2.55743 141.717L-2.52621 141.777L-2.49336 141.837L1.88684 139.426ZM1.88156 139.415L6.32709 137.127L3.89178 132.396L-0.678569 135.121L1.88156 139.415ZM1.86456 139.426L-2.58411 141.708L-0.151952 146.449L4.42469 143.72L1.86456 139.426ZM0.00357552 131.328L5.00253 131.43L5.00358 131.379V131.328H0.00357552ZM7.74174 40.5828L5.17189 36.2938L5.17103 36.2943L7.74174 40.5828ZM33.6292 25.1626L31.0731 20.8653L33.6292 25.1626ZM71.3094 2.6804L73.9092 6.95136L73.9208 6.94428L71.3094 2.6804ZM88.301 2.50553L85.7359 6.7974L85.7374 6.79829L88.301 2.50553ZM95.1728 6.60849L92.61 10.9017L92.6163 10.9055L95.1728 6.60849ZM152.193 40.5863L149.63 44.8798L149.633 44.8813L152.193 40.5863ZM152.2 40.5904L149.64 44.8854L149.68 44.9092L149.72 44.9322L152.2 40.5904ZM162.338 43.9561C160.522 40.7522 157.893 38.0906 154.711 36.2669L149.739 44.9429C151.338 45.8595 152.691 47.2162 153.639 48.8885L162.338 43.9561ZM164.696 51.0403C164.33 48.6175 163.561 46.2633 162.409 44.0849L153.569 48.7597C154.189 49.9329 154.608 51.2097 154.808 52.5321L164.696 51.0403ZM164.937 54.7953C164.964 53.5336 164.883 52.2765 164.695 51.0383L154.808 52.5342C154.91 53.2073 154.954 53.8915 154.939 54.5788L164.937 54.7953ZM159.997 49.6871H159.938V59.6871H159.997V49.6871ZM164.997 131.313V54.6871H154.997V131.313H164.997ZM162.566 141.708C164.232 138.473 165.065 134.863 164.996 131.218L154.998 131.408C155.036 133.409 154.578 135.379 153.676 137.128L162.566 141.708ZM154.705 149.758C157.984 147.897 160.676 145.146 162.501 141.829L153.741 137.007C152.791 138.733 151.409 140.13 149.768 141.061L154.705 149.758ZM90.9016 187.787C112.186 175.076 133.484 162.383 154.793 149.707L149.681 141.112C128.366 153.791 107.064 166.487 85.7744 179.202L90.9016 187.787ZM68.7252 187.586C72.1806 189.697 75.8631 190.947 79.7526 190.998C83.6514 191.05 87.3772 189.891 90.9007 187.788L85.7753 179.201C83.554 180.527 81.627 181.022 79.884 180.999C78.1317 180.976 76.1834 180.424 73.9382 179.053L68.7252 187.586ZM34.228 167.003C48.9617 175.763 64.0616 184.741 68.7274 187.588L73.936 179.051C69.2063 176.166 54.0306 167.143 39.3386 158.407L34.228 167.003ZM34.1326 166.944L34.1333 166.945L39.4333 158.465L39.4326 158.464L34.1326 166.944ZM34.2168 166.996L34.2244 167L39.3408 158.408L39.3332 158.404L34.2168 166.996ZM5.19475 149.702C10.8416 153.098 22.4034 159.972 34.2197 166.998L39.3303 158.402C27.5003 151.368 15.9675 144.511 10.348 141.132L5.19475 149.702ZM-2.49336 141.837C-0.667836 145.153 2.02447 147.904 5.30302 149.765L10.2397 141.069C8.59883 140.137 7.21718 138.741 6.26704 137.015L-2.49336 141.837ZM-2.56397 141.704C-2.564 141.704 -2.56408 141.704 -2.56274 141.706C-2.56179 141.708 -2.55975 141.712 -2.55743 141.717L6.33111 137.135C6.33167 137.136 6.33194 137.136 6.33114 137.135C6.33072 137.134 6.32888 137.13 6.32709 137.127L-2.56397 141.704ZM-0.678569 135.121L-0.695566 135.131L4.42469 143.72L4.44169 143.71L-0.678569 135.121ZM6.31323 137.143C5.41613 135.395 4.96168 133.427 5.00253 131.43L-4.99538 131.226C-5.06986 134.867 -4.24307 138.475 -2.58411 141.708L6.31323 137.143ZM5.00358 131.328V54.6793H-4.99642V131.328H5.00358ZM5.00358 54.6793C5.00358 50.1017 6.72758 47.0202 10.3124 44.8713L5.17103 36.2943C-1.64502 40.3801 -4.99642 46.8484 -4.99642 54.6793H5.00358ZM10.3116 44.8719C15.4418 41.798 25.4854 35.8241 36.1852 29.4599L31.0731 20.8653C20.382 27.2243 10.3198 33.2094 5.17189 36.2938L10.3116 44.8719ZM36.1852 29.4599C51.8018 20.1712 68.8445 10.0344 73.9092 6.95134L68.7096 -1.59054C63.7021 1.45766 46.7277 11.5541 31.0731 20.8653L36.1852 29.4599ZM73.9208 6.94428C76.1557 5.57552 78.1006 5.02378 79.8516 5.00076C81.5938 4.97786 83.52 5.47303 85.7359 6.7974L90.8661 -1.78634C87.3446 -3.89106 83.618 -5.04961 79.7202 -4.99838C75.8313 -4.94726 72.149 -3.69702 68.698 -1.58348L73.9208 6.94428ZM85.7374 6.79829C88.0281 8.16631 90.319 9.53412 92.61 10.9017L97.7357 2.31525C95.4452 0.947955 93.1548 -0.419539 90.8646 -1.78724L85.7374 6.79829ZM154.755 36.2928C135.752 24.9516 116.744 13.6245 97.7294 2.31151L92.6163 10.9055C111.627 22.2161 130.632 33.5409 149.63 44.8798L154.755 36.2928ZM149.633 44.8813C149.636 44.8834 149.639 44.8851 149.641 44.8863C149.643 44.8874 149.645 44.8884 149.645 44.8886C149.646 44.8891 149.645 44.8888 149.645 44.8883C149.644 44.8878 149.642 44.8868 149.64 44.8854L154.76 36.2954C154.756 36.2934 154.753 36.2916 154.751 36.2905C154.749 36.2894 154.748 36.2884 154.747 36.2881C154.747 36.2877 154.747 36.288 154.748 36.2884C154.749 36.2889 154.75 36.2899 154.753 36.2913L149.633 44.8813ZM149.72 44.9322C149.725 44.9352 149.731 44.9382 149.736 44.9414L154.714 36.2684C154.703 36.2619 154.691 36.2553 154.679 36.2486L149.72 44.9322Z" fill="#FF6A6A" mask="url(#path-1-inside-1_15_200)"/>
    <path d="M84.5464 61.1612V61.1612L84.5325 61.1611L84.1792 61.1592V61.1591H84.1655C65.7323 61.1591 50.7118 75.8503 50.7104 94.0655C50.7043 99.8043 52.2305 105.442 55.1333 110.415C60.9055 120.314 71.7476 126.978 84.1662 126.978C95.667 126.978 105.819 121.261 111.841 112.549L134.54 125.467C124.067 141.62 105.75 152.407 84.8385 152.634C84.8362 152.634 84.834 152.634 84.8317 152.634L84.1662 152.638C84.1638 152.638 84.1615 152.638 84.1591 152.638C62.0013 152.635 42.6801 140.78 32.3911 123.197C27.3711 114.617 24.5 104.675 24.5 94.0682C24.5 61.764 51.171 35.5 84.1662 35.5C105.258 35.5 123.779 46.2412 134.39 62.4392L111.643 75.305C105.666 66.8502 95.7678 61.2847 84.5464 61.1612Z" stroke="#FF6A6A" stroke-width="5"/>
    </g>
    <defs>
    <clipPath id="clip0_15_200">
    <rect width="160" height="186.495" fill="white"/>
    </clipPath>
    </defs>
    </svg>    