<svg width="169" height="187" viewBox="0 0 169 187" fill="none" xmlns="http://www.w3.org/2000/svg">
    <mask id="path-1-inside-1_14_1897" fill="white">
    <path fill-rule="evenodd" clip-rule="evenodd" d="M167.182 49.8145C166.863 48.8237 166.447 47.8861 165.935 47.0034C164.592 44.6873 162.581 42.7466 159.884 41.2121C150.341 35.8068 140.794 30.4085 131.247 25.0102L131.246 25.0093C118.519 17.8127 105.792 10.6162 93.0742 3.40282C87.0736 -0.000320554 81.2555 0.124389 75.2994 3.57638C69.9648 6.66661 51.7638 16.9453 35.2356 26.2794L35.2328 26.281L35.2313 26.2818C24.3037 32.453 14.1078 38.211 8.84576 41.2051C3.40071 44.3022 0.751149 49.0411 0.74984 55.2001C0.745586 67.8815 0.745586 80.5629 0.745586 93.2444C0.745586 105.926 0.745586 118.607 0.741333 131.289C0.741333 134.325 1.38982 137.016 2.6966 139.335L2.69671 139.335L2.69662 139.335C4.04005 141.721 6.07908 143.715 8.83858 145.284C14.0742 148.263 24.1944 153.977 35.0601 160.113L35.0647 160.115C51.6386 169.474 69.9455 179.811 75.2968 182.913C81.2556 186.367 87.0736 186.49 93.0762 183.086C105.989 175.762 118.912 168.455 131.836 161.148L131.864 161.132C141.208 155.849 150.551 150.566 159.891 145.276C162.651 143.708 164.69 141.712 166.033 139.329C166.366 138.738 166.656 138.122 166.903 137.483C167.623 135.626 167.984 133.568 167.988 131.319C167.988 131.307 167.988 131.294 167.988 131.282C167.988 131.282 167.988 131.282 167.988 131.282C167.988 131.282 167.988 80.5701 167.979 55.2065M167.182 49.8145C167.714 51.4659 167.978 53.2653 167.979 55.2059Z"/>
    </mask>
    <path d="M165.935 47.0034L161.609 49.5112L161.611 49.5142L165.935 47.0034ZM167.255 50.0459L172.038 48.5895V48.5895L167.255 50.0459ZM159.884 41.2121L162.356 36.8661L162.348 36.8616L159.884 41.2121ZM131.252 25.0129L133.713 20.6605L131.252 25.0129ZM93.0742 3.40282L95.541 -0.946309L95.5408 -0.946424L93.0742 3.40282ZM75.2994 3.57638L77.8057 7.9029L77.8066 7.90234L75.2994 3.57638ZM35.2363 26.279L32.7776 21.9253L32.7754 21.9265L35.2363 26.279ZM35.2321 26.2814L37.6908 30.6351L37.693 30.6338L35.2321 26.2814ZM8.84576 41.2051L11.3178 45.5512L11.3185 45.5508L8.84576 41.2051ZM0.74984 55.2001L5.74984 55.2018V55.2012L0.74984 55.2001ZM0.741333 131.289L-4.25867 131.287V131.289H0.741333ZM2.6966 139.335L7.07457 136.92L7.0636 136.9L7.05246 136.88L2.6966 139.335ZM2.69671 139.335L4.9948 143.776L9.55496 141.416L7.07468 136.92L2.69671 139.335ZM2.69662 139.335L0.398533 134.895L-4.20173 137.275L-1.66003 141.789L2.69662 139.335ZM8.83858 145.284L11.3112 140.938L11.3101 140.937L8.83858 145.284ZM35.0636 160.115L32.6052 164.468L32.6134 164.473L35.0636 160.115ZM35.0721 160.119L37.5305 155.765L37.5223 155.761L35.0721 160.119ZM75.2968 182.913L77.8042 178.587L77.8042 178.587L75.2968 182.913ZM93.0762 183.086L95.5425 187.436L95.543 187.435L93.0762 183.086ZM131.854 161.137L134.315 165.49L134.317 165.489L131.854 161.137ZM131.893 161.116L129.432 156.763L129.43 156.764L131.893 161.116ZM159.891 145.276L162.355 149.627L162.362 149.623L159.891 145.276ZM166.033 139.329L170.389 141.784L170.391 141.78L166.033 139.329ZM166.892 137.513L162.233 135.696L162.233 135.697L166.892 137.513ZM167.988 131.319L162.988 131.307V131.31L167.988 131.319ZM167.988 131.282H172.988V131.033L172.963 130.784L167.988 131.282ZM167.979 55.2065H162.979V55.2081L167.979 55.2065ZM167.979 55.2059H172.979V55.2038L167.979 55.2059ZM161.611 49.5142C161.964 50.1229 162.252 50.7827 162.471 51.5023L172.038 48.5895C171.601 47.1561 171.01 45.7862 170.259 44.4925L161.611 49.5142ZM157.412 45.5581C159.443 46.7139 160.767 48.0583 161.609 49.5112L170.26 44.4956C168.417 41.3162 165.719 38.7793 162.356 36.8661L157.412 45.5581ZM128.791 29.3653C138.337 34.7628 147.88 40.1593 157.42 45.5627L162.348 36.8616C152.805 31.4561 143.258 26.0578 133.713 20.6605L128.791 29.3653ZM90.6074 7.75195C103.33 14.9684 116.062 22.1678 128.791 29.3653L133.713 20.6605C120.984 13.4625 108.257 6.26636 95.541 -0.946309L90.6074 7.75195ZM77.8066 7.90234C80.1851 6.52387 82.2952 5.94303 84.2333 5.91853C86.1631 5.89413 88.2531 6.41675 90.6076 7.75206L95.5408 -0.946424C91.8947 -3.01426 88.0754 -4.13085 84.1069 -4.08067C80.1468 -4.03061 76.3699 -2.8231 72.7922 -0.749577L77.8066 7.90234ZM37.695 30.6327C54.2024 21.3104 72.44 11.0111 77.8057 7.9029L72.7932 -0.750136C67.4897 2.32206 49.3262 12.5797 32.7776 21.9253L37.695 30.6327ZM37.693 30.6338L37.6972 30.6315L32.7754 21.9265L32.7712 21.9289L37.693 30.6338ZM11.3185 45.5508C16.5717 42.5617 26.7585 36.8089 37.6908 30.6351L32.7734 21.9276C21.8498 28.0966 11.6442 33.86 6.37304 36.8593L11.3185 45.5508ZM5.74984 55.2012C5.75078 50.7919 7.47622 47.7363 11.3178 45.5512L6.37367 36.8589C-0.674797 40.8681 -4.24848 47.2903 -4.25016 55.199L5.74984 55.2012ZM5.74559 93.2444C5.74559 80.5628 5.74559 67.8822 5.74984 55.2018L-4.25016 55.1984C-4.25441 67.8808 -4.25441 80.5631 -4.25441 93.2444H5.74559ZM5.74133 131.29C5.74559 118.608 5.74559 105.926 5.74559 93.2444H-4.25441C-4.25441 105.926 -4.25441 118.606 -4.25867 131.287L5.74133 131.29ZM7.05246 136.88C6.22898 135.419 5.74133 133.599 5.74133 131.289H-4.25867C-4.25867 135.052 -3.44934 138.614 -1.65925 141.79L7.05246 136.88ZM7.07468 136.92L7.07457 136.92L-1.68136 141.75L-1.68125 141.75L7.07468 136.92ZM4.99472 143.776L4.9948 143.776L0.398621 134.895L0.398533 134.895L4.99472 143.776ZM11.3101 140.937C9.23467 139.757 7.89621 138.378 7.05328 136.882L-1.66003 141.789C0.183895 145.063 2.9235 147.672 6.36705 149.63L11.3101 140.937ZM37.522 155.761C26.6506 149.622 16.5383 143.912 11.3112 140.938L6.36595 149.63C11.6112 152.614 21.7426 158.335 32.6052 164.468L37.522 155.761ZM37.5223 155.761L37.5138 155.756L32.6134 164.473L32.6219 164.478L37.5223 155.761ZM77.8042 178.587C72.4217 175.467 54.0812 165.111 37.5305 155.765L32.6136 164.473C49.2068 173.843 67.4709 184.156 72.7895 187.238L77.8042 178.587ZM90.6098 178.737C88.2538 180.073 86.1631 180.596 84.233 180.571C82.2946 180.547 80.184 179.966 77.8042 178.587L72.7894 187.238C76.3684 189.313 80.1461 190.521 84.1071 190.571C88.0763 190.621 91.8959 189.503 95.5425 187.436L90.6098 178.737ZM129.393 156.785C116.464 164.095 103.532 171.407 90.6093 178.737L95.543 187.435C108.459 180.109 121.385 172.801 134.315 165.49L129.393 156.785ZM129.43 156.764L129.392 156.786L134.317 165.489L134.355 165.467L129.43 156.764ZM157.427 140.925C148.098 146.209 138.766 151.486 129.432 156.763L134.354 165.468C143.687 160.191 153.023 154.912 162.355 149.627L157.427 140.925ZM161.677 136.874C160.834 138.371 159.494 139.75 157.42 140.929L162.362 149.623C165.807 147.665 168.546 145.054 170.389 141.784L161.677 136.874ZM170.391 141.78C170.835 140.991 171.221 140.173 171.55 139.328L162.233 135.697C162.072 136.109 161.886 136.502 161.675 136.877L170.391 141.78ZM162.988 131.31C162.984 133.035 162.708 134.479 162.233 135.696L171.55 139.329C172.53 136.816 172.983 134.125 172.988 131.328L162.988 131.31ZM172.988 131.332C172.988 131.315 172.988 131.299 172.988 131.282H162.988C162.988 131.29 162.988 131.299 162.988 131.307L172.988 131.332ZM167.988 131.282C172.963 130.784 172.963 130.785 172.963 130.785C172.963 130.786 172.963 130.786 172.963 130.786C172.963 130.787 172.963 130.788 172.963 130.788C172.963 130.789 172.963 130.791 172.964 130.792C172.964 130.794 172.964 130.797 172.964 130.799C172.965 130.804 172.965 130.809 172.966 130.814C172.967 130.824 172.967 130.834 172.968 130.843C172.97 130.863 172.972 130.883 172.973 130.903C172.976 130.944 172.979 130.984 172.981 131.026C172.985 131.109 172.988 131.194 172.988 131.282H162.988C162.988 131.369 162.99 131.455 162.994 131.538C162.996 131.579 162.999 131.62 163.002 131.661C163.003 131.681 163.005 131.701 163.007 131.721C163.008 131.73 163.009 131.74 163.01 131.75C163.01 131.755 163.011 131.76 163.011 131.765C163.011 131.767 163.011 131.77 163.012 131.772C163.012 131.773 163.012 131.775 163.012 131.776C163.012 131.776 163.012 131.777 163.012 131.778C163.012 131.778 163.012 131.778 163.012 131.779C163.012 131.779 163.012 131.779 167.988 131.282ZM162.979 55.2081C162.983 67.8892 162.985 86.9074 162.987 102.756C162.987 110.68 162.987 117.811 162.987 122.962C162.988 125.537 162.988 127.617 162.988 129.053C162.988 129.771 162.988 130.328 162.988 130.706C162.988 130.895 162.988 131.039 162.988 131.135C162.988 131.184 162.988 131.22 162.988 131.245C162.988 131.257 162.988 131.266 162.988 131.272C162.988 131.275 162.988 131.278 162.988 131.279C162.988 131.28 162.988 131.281 162.988 131.281C162.988 131.281 162.988 131.282 167.988 131.282C172.988 131.282 172.988 131.281 172.988 131.281C172.988 131.281 172.988 131.28 172.988 131.279C172.988 131.278 172.988 131.275 172.988 131.272C172.988 131.266 172.988 131.257 172.988 131.245C172.988 131.22 172.988 131.184 172.988 131.135C172.988 131.039 172.988 130.895 172.988 130.706C172.988 130.328 172.988 129.771 172.988 129.053C172.988 127.617 172.988 125.537 172.987 122.961C172.987 117.811 172.987 110.679 172.987 102.755C172.985 86.9068 172.983 67.8874 172.979 55.2048L162.979 55.2081ZM172.979 55.2065C172.979 55.2758 172.978 55.3404 172.975 55.3997C172.973 55.4591 172.97 55.5139 172.966 55.5636C172.963 55.6133 172.959 55.6587 172.955 55.6993C172.951 55.7398 172.947 55.7763 172.943 55.8081C172.939 55.8398 172.935 55.8679 172.932 55.8913C172.929 55.9147 172.926 55.9346 172.923 55.9499C172.921 55.9651 172.919 55.9774 172.918 55.9848C172.918 55.9886 172.917 55.9916 172.917 55.9935C172.916 55.9951 172.916 55.9966 172.916 55.9963C172.916 55.9963 172.916 55.9963 172.916 55.9963C172.916 55.9963 172.916 55.9963 172.916 55.9963C172.916 55.9963 172.916 55.9962 172.916 55.9962C172.916 55.996 172.916 55.9959 172.916 55.9956C172.916 55.9952 172.917 55.9944 172.917 55.9935C172.917 55.9916 172.918 55.9885 172.918 55.9848C172.919 55.9774 172.921 55.9651 172.924 55.9499C172.926 55.9346 172.929 55.9146 172.932 55.8912C172.935 55.8678 172.939 55.8398 172.943 55.808C172.947 55.7762 172.951 55.7397 172.955 55.6992C172.959 55.6586 172.963 55.6132 172.966 55.5635C172.97 55.5138 172.973 55.4589 172.975 55.3996C172.978 55.3403 172.979 55.2756 172.979 55.2063H162.979C162.979 55.137 162.981 55.0724 162.983 55.0131C162.985 54.9537 162.988 54.8989 162.992 54.8492C162.995 54.7995 162.999 54.7541 163.003 54.7135C163.007 54.673 163.012 54.6365 163.015 54.6047C163.019 54.5729 163.023 54.5449 163.026 54.5215C163.029 54.4981 163.032 54.4782 163.035 54.4629C163.037 54.4476 163.039 54.4354 163.04 54.428C163.041 54.4242 163.041 54.4212 163.041 54.4193C163.042 54.4176 163.042 54.4162 163.042 54.4164C163.042 54.4164 163.042 54.4164 163.042 54.4165C163.042 54.4165 163.042 54.4165 163.042 54.4165C163.042 54.4165 163.042 54.4166 163.042 54.4166C163.042 54.4167 163.042 54.4169 163.042 54.4172C163.042 54.4176 163.042 54.4184 163.041 54.4193C163.041 54.4212 163.041 54.4242 163.04 54.428C163.039 54.4354 163.037 54.4477 163.035 54.4629C163.032 54.4782 163.029 54.4982 163.026 54.5215C163.023 54.545 163.019 54.573 163.015 54.6048C163.012 54.6366 163.007 54.6731 163.003 54.7136C162.999 54.7541 162.995 54.7996 162.992 54.8493C162.988 54.899 162.985 54.9538 162.983 55.0132C162.981 55.0725 162.979 55.1371 162.979 55.2065H172.979ZM172.979 55.2063C172.979 55.1627 172.979 55.1241 172.978 55.0918C172.977 55.0596 172.976 55.0321 172.975 55.0109C172.974 54.9899 172.974 54.973 172.973 54.9627C172.973 54.9575 172.973 54.9533 172.973 54.9507C172.973 54.9494 172.972 54.9484 172.972 54.9477C172.972 54.9474 172.972 54.9471 172.972 54.947C172.972 54.9469 172.972 54.9468 172.972 54.9468C172.972 54.9468 172.972 54.9467 172.972 54.9467C172.972 54.9467 172.972 54.9467 172.972 54.9467C172.972 54.9467 172.972 54.9467 172.972 54.9467C172.972 54.9464 172.972 54.9484 172.973 54.9507C172.973 54.9532 172.973 54.9574 172.973 54.9626C172.974 54.9728 172.974 54.9897 172.975 55.0107C172.976 55.0318 172.977 55.0593 172.978 55.0915C172.979 55.1237 172.979 55.1623 172.979 55.2059H162.979C162.979 55.2495 162.98 55.2881 162.98 55.3204C162.981 55.3526 162.982 55.3801 162.983 55.4013C162.984 55.4223 162.985 55.4393 162.985 55.4495C162.985 55.4547 162.985 55.4589 162.986 55.4615C162.986 55.4628 162.986 55.4638 162.986 55.4645C162.986 55.4648 162.986 55.4651 162.986 55.4652C162.986 55.4653 162.986 55.4654 162.986 55.4654C162.986 55.4654 162.986 55.4655 162.986 55.4655C162.986 55.4655 162.986 55.4655 162.986 55.4655V55.4655C162.986 55.4658 162.986 55.4638 162.986 55.4615C162.985 55.459 162.985 55.4548 162.985 55.4496C162.985 55.4394 162.984 55.4225 162.983 55.4015C162.982 55.3804 162.981 55.3529 162.98 55.3207C162.98 55.2885 162.979 55.2499 162.979 55.2063H172.979ZM162.471 51.5023C162.795 52.5642 162.978 53.7902 162.979 55.208L172.979 55.2038C172.978 52.9209 172.681 50.703 172.038 48.5895L162.471 51.5023Z" fill="#FF6A6A" mask="url(#path-1-inside-1_14_1897)"/>
    <mask id="path-3-inside-2_14_1897" fill="white">
    <path d="M132.854 75.6752V84.3367H141.671V75.6752H146.08V84.3367H154.897V88.6674H146.08V97.3283H154.897V101.659H146.08V110.32H141.671V101.659H132.854V110.32H128.446V101.659H119.629V97.3283H128.446V88.6674H119.629V84.3367H128.446V75.6752H132.854ZM141.671 88.6668H132.854V97.3283H141.671V88.6668Z"/>
    </mask>
    <path d="M132.854 75.6752H137.854V70.6752H132.854V75.6752ZM132.854 84.3367H127.854V89.3367H132.854V84.3367ZM141.671 84.3367V89.3367H146.671V84.3367H141.671ZM141.671 75.6752V70.6752H136.671V75.6752H141.671ZM146.08 75.6752H151.08V70.6752H146.08V75.6752ZM146.08 84.3367H141.08V89.3367H146.08V84.3367ZM154.897 84.3367H159.897V79.3367H154.897V84.3367ZM154.897 88.6674V93.6674H159.897V88.6674H154.897ZM146.08 88.6674V83.6674H141.08V88.6674H146.08ZM146.08 97.3283H141.08V102.328H146.08V97.3283ZM154.897 97.3283H159.897V92.3283H154.897V97.3283ZM154.897 101.659V106.659H159.897V101.659H154.897ZM146.08 101.659V96.659H141.08V101.659H146.08ZM146.08 110.32V115.32H151.08V110.32H146.08ZM141.671 110.32H136.671V115.32H141.671V110.32ZM141.671 101.659H146.671V96.659H141.671V101.659ZM132.854 101.659V96.659H127.854V101.659H132.854ZM132.854 110.32V115.32H137.854V110.32H132.854ZM128.446 110.32H123.446V115.32H128.446V110.32ZM128.446 101.659H133.446V96.659H128.446V101.659ZM119.629 101.659H114.629V106.659H119.629V101.659ZM119.629 97.3283V92.3283H114.629V97.3283H119.629ZM128.446 97.3283V102.328H133.446V97.3283H128.446ZM128.446 88.6674H133.446V83.6674H128.446V88.6674ZM119.629 88.6674H114.629V93.6674H119.629V88.6674ZM119.629 84.3367V79.3367H114.629V84.3367H119.629ZM128.446 84.3367V89.3367H133.446V84.3367H128.446ZM128.446 75.6752V70.6752H123.446V75.6752H128.446ZM141.671 88.6668H146.671V83.6668H141.671V88.6668ZM132.854 88.6668V83.6668H127.854V88.6668H132.854ZM132.854 97.3283H127.854V102.328H132.854V97.3283ZM141.671 97.3283V102.328H146.671V97.3283H141.671ZM127.854 75.6752V84.3367H137.854V75.6752H127.854ZM132.854 89.3367H141.671V79.3367H132.854V89.3367ZM146.671 84.3367V75.6752H136.671V84.3367H146.671ZM141.671 80.6752H146.08V70.6752H141.671V80.6752ZM141.08 75.6752V84.3367H151.08V75.6752H141.08ZM146.08 89.3367H154.897V79.3367H146.08V89.3367ZM149.897 84.3367V88.6674H159.897V84.3367H149.897ZM154.897 83.6674H146.08V93.6674H154.897V83.6674ZM141.08 88.6674V97.3283H151.08V88.6674H141.08ZM146.08 102.328H154.897V92.3283H146.08V102.328ZM149.897 97.3283V101.659H159.897V97.3283H149.897ZM154.897 96.659H146.08V106.659H154.897V96.659ZM141.08 101.659V110.32H151.08V101.659H141.08ZM146.08 105.32H141.671V115.32H146.08V105.32ZM146.671 110.32V101.659H136.671V110.32H146.671ZM141.671 96.659H132.854V106.659H141.671V96.659ZM127.854 101.659V110.32H137.854V101.659H127.854ZM132.854 105.32H128.446V115.32H132.854V105.32ZM133.446 110.32V101.659H123.446V110.32H133.446ZM128.446 96.659H119.629V106.659H128.446V96.659ZM124.629 101.659V97.3283H114.629V101.659H124.629ZM119.629 102.328H128.446V92.3283H119.629V102.328ZM133.446 97.3283V88.6674H123.446V97.3283H133.446ZM128.446 83.6674H119.629V93.6674H128.446V83.6674ZM124.629 88.6674V84.3367H114.629V88.6674H124.629ZM119.629 89.3367H128.446V79.3367H119.629V89.3367ZM133.446 84.3367V75.6752H123.446V84.3367H133.446ZM128.446 80.6752H132.854V70.6752H128.446V80.6752ZM141.671 83.6668H132.854V93.6668H141.671V83.6668ZM127.854 88.6668V97.3283H137.854V88.6668H127.854ZM132.854 102.328H141.671V92.3283H132.854V102.328ZM146.671 97.3283V88.6668H136.671V97.3283H146.671Z" fill="#FF6A6A" mask="url(#path-3-inside-2_14_1897)"/>
    <path d="M85.1806 60.3374V60.3373L85.1667 60.3373L84.8133 60.3353V60.3353H84.7997C66.3665 60.3353 51.346 75.0265 51.3445 93.2417C51.3384 98.9805 52.8647 104.618 55.7675 109.591C61.5396 119.49 72.3817 126.154 84.8004 126.154C96.3012 126.154 106.454 120.437 112.475 111.726L135.174 124.644C124.702 140.797 106.384 151.584 85.4727 151.81C85.4704 151.81 85.4681 151.81 85.4659 151.81L84.8004 151.814C84.798 151.814 84.7956 151.814 84.7933 151.814C62.6354 151.811 43.3143 139.957 33.0252 122.373C28.0052 113.793 25.1342 103.852 25.1342 93.2444C25.1342 60.9402 51.8052 34.6762 84.8004 34.6762C105.893 34.6762 124.413 45.4174 135.024 61.6154L112.277 74.4812C106.3 66.0264 96.4019 60.4609 85.1806 60.3374Z" stroke="#FF6A6A" stroke-width="5"/>
    </svg>
    