<svg width="169" height="187" viewBox="0 0 169 187" fill="none" xmlns="http://www.w3.org/2000/svg">
    <g clip-path="url(#clip0_14_1904)">
    <path d="M84.9914 183.584L16.4716 164.999L2.72139 2.81823L165.995 3.14228L151.454 165.011L84.9914 183.584Z" stroke="#FF6A6A" stroke-width="5"/>
    <path d="M83.1308 127.907L83.594 130.364L107.542 125.848C109.07 125.56 110.225 124.298 110.376 122.751L112.86 97.4365L110.372 97.1924L112.86 97.4365C113.062 95.3783 111.445 93.5947 109.377 93.5947H39.0976L36.808 78.2107L80.272 60.2045C83.8101 58.7388 82.7622 53.471 78.9324 53.471H35.4028L33.2269 38.3546H134.73L134.729 53.8328L92.0108 70.9454C88.4344 72.3781 89.4597 77.6944 93.3123 77.6944H130.451L125.39 136L85.0715 148.37L42.987 137.053L40.5947 109.436H56.3638L57.7734 121.948C57.9373 123.403 58.9895 124.602 60.4107 124.954L61.0112 122.527L60.4107 124.954L82.1048 130.322C82.5924 130.443 83.1003 130.457 83.594 130.364L83.1308 127.907ZM125.302 137.008C125.303 137.006 125.303 137.005 125.303 137.003L125.302 137.008L126.797 137.137L125.302 137.008Z" stroke="#FF6A6A" stroke-width="5"/>
    </g>
    <defs>
    <clipPath id="clip0_14_1904">
    <rect width="168.729" height="186.49" fill="white"/>
    </clipPath>
    </defs>
    </svg>    