<svg width="400" height="418" viewBox="0 0 400 418" fill="none" xmlns="http://www.w3.org/2000/svg">
<path d="M80 10.0036C80 3.99465 74.7118 -0.698178 68.8856 0.772603C29.2989 10.766 0 46.6136 0 89.3043V218C0 328.457 89.543 418 200 418C310.457 418 400 328.457 400 218V89.3043C400 46.6136 370.701 10.766 331.114 0.772607C325.288 -0.698175 320 3.99465 320 10.0036V238C320 273.099 301.917 303.975 274.559 321.819C263.248 329.197 250 319.682 250 306.177V268C250 240.386 227.614 218 200 218C172.386 218 150 240.386 150 268V306.177C150 319.682 136.752 329.197 125.441 321.819C98.083 303.975 80 273.099 80 238V10.0036Z" fill="#FF6A6A"/>
<path d="M150 118C150 90.3857 172.386 68 200 68C227.614 68 250 90.3857 250 118C250 145.614 227.614 168 200 168C172.386 168 150 145.614 150 118Z" fill="#FF6A6A"/>
</svg>
