<svg width="187" height="187" viewBox="0 0 187 187" fill="none" xmlns="http://www.w3.org/2000/svg">
    <g clip-path="url(#clip0_14_1908)">
    <mask id="path-1-inside-1_14_1908" fill="white">
    <path d="M182.973 84.9371L101.55 3.51821C96.8633 -1.17099 89.258 -1.17099 84.5659 3.51821L67.658 20.4262L89.1065 41.8747C94.0908 40.1905 99.8064 41.3203 103.779 45.2934C107.772 49.292 108.893 55.0565 107.168 60.0567L127.839 80.728C132.84 79.0051 138.61 80.1197 142.604 84.1205C148.187 89.7006 148.187 98.7447 142.604 104.328C137.021 109.913 127.977 109.913 122.39 104.328C118.191 100.125 117.154 93.9586 119.279 88.7857L100.002 69.5087L100 120.238C101.398 120.929 102.674 121.841 103.779 122.94C109.362 128.52 109.362 137.565 103.779 143.153C98.1957 148.735 89.1473 148.735 83.5716 143.153C77.9892 137.565 77.9892 128.521 83.5716 122.941C84.9093 121.603 86.4991 120.543 88.2491 119.822V68.6207C86.4966 67.9053 84.9059 66.8447 83.5716 65.5021C79.342 61.2784 78.3251 55.0725 80.4923 49.8792L59.349 28.7337L3.51854 84.5605C-1.17285 89.2541 -1.17285 96.8601 3.51854 101.55L84.9433 182.97C89.631 187.66 97.2349 187.66 101.928 182.97L182.972 101.928C187.662 97.2367 187.662 89.6263 182.972 84.9371"/>
    </mask>
    <path d="M101.55 3.51821L98.013 7.05265L98.0142 7.05384L101.55 3.51821ZM84.5659 3.51821L81.0315 -0.0184171L81.0304 -0.0173188L84.5659 3.51821ZM67.658 20.4262L64.1225 16.8906L60.5869 20.4262L64.1225 23.9617L67.658 20.4262ZM89.1065 41.8747L85.571 45.4102L87.7661 47.6054L90.7072 46.6116L89.1065 41.8747ZM103.779 45.2934L107.318 41.7608L107.315 41.7579L103.779 45.2934ZM107.168 60.0567L102.442 58.4261L101.422 61.3815L103.633 63.5922L107.168 60.0567ZM127.839 80.728L124.303 84.2635L126.513 86.4732L129.467 85.4553L127.839 80.728ZM142.604 84.1205L139.066 87.6531L139.07 87.6567L142.604 84.1205ZM142.604 104.328L146.14 107.864L146.14 107.864L142.604 104.328ZM122.39 104.328L118.853 107.862L118.855 107.865L122.39 104.328ZM119.279 88.7857L123.904 90.6861L125.17 87.6053L122.815 85.2501L119.279 88.7857ZM100.002 69.5087L103.538 65.9732L95.0029 57.4382L95.0023 69.5085L100.002 69.5087ZM100 120.238L95.0002 120.237L95 123.343L97.784 124.72L100 120.238ZM103.779 122.94L107.314 119.404L107.304 119.394L103.779 122.94ZM103.779 143.153L107.314 146.69L107.317 146.687L103.779 143.153ZM83.5716 143.153L87.1089 139.62L83.5716 143.153ZM83.5716 122.941L87.1064 126.477L87.108 126.476L83.5716 122.941ZM88.2491 119.822L90.152 124.446L93.2491 123.172V119.822H88.2491ZM88.2491 68.6207H93.2491V65.2613L90.1388 63.9916L88.2491 68.6207ZM83.5716 65.5021L87.118 61.9776L87.1114 61.9708L87.1047 61.9641L83.5716 65.5021ZM80.4923 49.8792L85.1066 51.8048L86.3969 48.713L84.028 46.3438L80.4923 49.8792ZM59.349 28.7337L62.8847 25.1984L59.3493 21.6626L55.8136 25.1981L59.349 28.7337ZM3.51854 84.5605L-0.0168773 81.0249L-0.0178156 81.0258L3.51854 84.5605ZM3.51854 101.55L7.05398 98.0144L7.05353 98.014L3.51854 101.55ZM84.9433 182.97L88.4796 179.436L88.4787 179.435L84.9433 182.97ZM101.928 182.97L105.463 186.507L105.464 186.506L101.928 182.97ZM182.972 101.928L186.508 105.464L186.508 105.463L182.972 101.928ZM186.508 81.4015L105.085 -0.0174138L98.0142 7.05384L179.437 88.4728L186.508 81.4015ZM105.086 -0.0162199C98.4459 -6.66072 87.6748 -6.65756 81.0315 -0.0184169L88.1004 7.05485C90.8413 4.31559 95.2808 4.31875 98.013 7.05265L105.086 -0.0162199ZM81.0304 -0.0173188L64.1225 16.8906L71.1935 23.9617L88.1015 7.05375L81.0304 -0.0173188ZM64.1225 23.9617L85.571 45.4102L92.6421 38.3392L71.1935 16.8906L64.1225 23.9617ZM90.7072 46.6116C93.9671 45.51 97.6717 46.2567 100.244 48.829L107.315 41.7579C101.941 36.3839 94.2144 34.8709 87.5059 37.1378L90.7072 46.6116ZM100.241 48.8261C102.828 51.4176 103.569 55.1585 102.442 58.4261L111.895 61.6874C114.218 54.9544 112.715 47.1665 107.318 41.7608L100.241 48.8261ZM103.633 63.5922L124.303 84.2635L131.374 77.1925L110.704 56.5213L103.633 63.5922ZM129.467 85.4553C132.743 84.3268 136.485 85.0681 139.066 87.6531L146.143 80.5879C140.735 75.1714 132.937 73.6835 126.21 76.0006L129.467 85.4553ZM139.07 87.6567C142.698 91.2834 142.699 97.1615 139.068 100.793L146.14 107.864C153.674 100.328 153.676 88.1178 146.139 80.5843L139.07 87.6567ZM139.069 100.793C135.438 104.424 129.559 104.426 125.925 100.792L118.855 107.865C126.394 115.4 138.603 115.402 146.14 107.864L139.069 100.793ZM125.927 100.795C123.202 98.0669 122.518 94.059 123.904 90.6861L114.655 86.8852C111.789 93.8582 113.18 102.183 118.853 107.862L125.927 100.795ZM122.815 85.2501L103.538 65.9732L96.4668 73.0443L115.744 92.3212L122.815 85.2501ZM95.0023 69.5085L95.0002 120.237L105 120.238L105.002 69.5089L95.0023 69.5085ZM97.784 124.72C98.6975 125.171 99.5319 125.768 100.255 126.486L107.304 119.394C105.816 117.915 104.098 116.686 102.216 115.756L97.784 124.72ZM100.245 126.477C103.872 130.102 103.876 135.982 100.242 139.62L107.317 146.687C114.848 139.148 114.852 126.938 107.314 119.404L100.245 126.477ZM100.245 139.617C96.6119 143.248 90.7302 143.245 87.1089 139.62L80.0342 146.687C87.5644 154.225 99.7795 154.221 107.314 146.69L100.245 139.617ZM87.1089 139.62C83.4754 135.982 83.479 130.103 87.1064 126.477L80.0367 119.405C72.4995 126.939 72.5031 139.148 80.0342 146.687L87.1089 139.62ZM87.108 126.476C87.9786 125.605 89.0132 124.915 90.152 124.446L86.3462 115.199C83.9851 116.17 81.8401 117.601 80.0351 119.406L87.108 126.476ZM93.2491 119.822V68.6207H83.2491V119.822H93.2491ZM90.1388 63.9916C89.007 63.5296 87.9798 62.8446 87.118 61.9776L80.0251 69.0266C81.832 70.8448 83.9861 72.281 86.3594 73.2499L90.1388 63.9916ZM87.1047 61.9641C84.3661 59.2293 83.6898 55.1999 85.1066 51.8048L75.878 47.9536C72.9603 54.9451 74.318 63.3275 80.0385 69.0401L87.1047 61.9641ZM84.028 46.3438L62.8847 25.1984L55.8133 32.2691L76.9566 53.4145L84.028 46.3438ZM55.8136 25.1981L-0.0168772 81.0249L7.05396 88.0962L62.8844 32.2694L55.8136 25.1981ZM-0.0178156 81.0258C-6.65997 87.671 -6.66194 98.4427 -0.0164434 105.086L7.05353 98.014C4.31625 95.2775 4.31428 90.8371 7.0549 88.0952L-0.0178156 81.0258ZM-0.0168977 105.086L81.4078 186.506L88.4787 179.435L7.05398 98.0144L-0.0168977 105.086ZM81.4069 186.505C88.0487 193.15 98.8179 193.147 105.463 186.507L98.3943 179.434C95.6518 182.174 91.2134 182.171 88.4796 179.436L81.4069 186.505ZM105.464 186.506L186.508 105.464L179.437 98.3926L98.3929 179.435L105.464 186.506ZM186.508 105.463C193.15 98.8197 193.151 88.0437 186.507 81.4013L179.437 88.4729C182.173 91.209 182.175 95.6538 179.436 98.3931L186.508 105.463Z" fill="#FF6A6A" mask="url(#path-1-inside-1_14_1908)"/>
    </g>
    <defs>
    <clipPath id="clip0_14_1908">
    <rect width="186.49" height="186.49" fill="white"/>
    </clipPath>
    </defs>
    </svg>    