<svg width="104" height="104" viewBox="0 0 104 104" fill="none" xmlns="http://www.w3.org/2000/svg">
    <path d="M104 52C104 80.7188 80.7188 104 52 104C23.2812 104 0 80.7188 0 52C0 23.2812 23.2812 0 52 0C80.7188 0 104 23.2812 104 52Z"/>
    <path fill="#2C2C2C" fill-rule="evenodd" clip-rule="evenodd" d="M51.9951 0C23.2842 0 0 23.2735 0 51.9848C0 74.9486 14.8982 94.4341 35.5615 101.312C38.1632 101.787 39.1112 100.181 39.1112 98.803C39.1112 97.5679 39.0666 94.3004 39.041 89.9635C24.5771 93.1036 21.5253 82.9939 21.5253 82.9939C19.1598 76.9881 15.7505 75.3887 15.7505 75.3887C11.0292 72.1658 16.108 72.2299 16.108 72.2299C21.3273 72.5965 24.0726 77.5877 24.0726 77.5877C28.7109 85.5305 36.2447 83.2362 39.207 81.9058C39.6795 78.5484 41.0234 76.2572 42.5078 74.958C30.9615 73.6432 18.8214 69.1854 18.8214 49.2659C18.8214 43.5888 20.8485 38.9519 24.1748 35.3172C23.6386 34.0024 21.8541 28.7177 24.6856 21.5598C24.6856 21.5598 29.0493 20.162 38.9835 26.8858C43.1302 25.7339 47.5803 25.1595 52.0015 25.1371C56.4195 25.1595 60.8664 25.7339 65.0195 26.8858C74.9473 20.162 79.3044 21.5598 79.3044 21.5598C82.1428 28.7177 80.3584 34.0024 79.8251 35.3172C83.1578 38.9519 85.169 43.5888 85.169 49.2659C85.169 69.2364 73.0096 73.6307 61.4282 74.9166C63.2924 76.5222 64.9556 79.6943 64.9556 84.5448C64.9556 91.4918 64.8918 97.0989 64.8918 98.803C64.8918 100.194 65.8303 101.813 68.4671 101.304C89.1147 94.4153 104 74.9455 104 51.9848C104 23.2735 80.7158 0 51.9951 0Z"/>
</svg>
    