<svg width="189" height="189" viewBox="0 0 189 189" fill="none" xmlns="http://www.w3.org/2000/svg">
<mask id="path-1-inside-1_957_852" fill="white">
<path fill-rule="evenodd" clip-rule="evenodd" d="M29.4157 101.915C29.6648 107.499 34.8013 104.917 37.1299 103.173C39.3402 101.517 39.9877 102.896 40.1807 99.6239C40.381 97.4794 40.4621 95.3237 40.4235 93.1686C36.9933 92.7951 33.5521 93.753 30.7107 95.8724C29.2974 96.9877 26.6575 100.536 29.4157 101.956"/>
</mask>
<path d="M37.1299 103.173L40.1272 107.175L40.128 107.174L37.1299 103.173ZM40.1807 99.6239L35.2024 99.1589L35.1944 99.2441L35.1894 99.3295L40.1807 99.6239ZM40.4235 93.1686L45.4227 93.0791L45.3439 88.6749L40.9649 88.198L40.4235 93.1686ZM30.7107 95.8724L27.7212 91.8646L27.6667 91.9052L27.6133 91.9474L30.7107 95.8724ZM24.4207 102.138C24.5128 104.204 25.0948 106.603 26.988 108.369C28.9575 110.206 31.3421 110.437 33.0057 110.265C36.0054 109.956 38.7772 108.186 40.1272 107.175L34.1326 99.1706C33.7592 99.4503 33.2643 99.7674 32.7693 100.011C32.2273 100.278 31.9612 100.32 31.9802 100.318C32.0375 100.312 32.9457 100.251 33.8093 101.056C34.5966 101.791 34.4431 102.419 34.4107 101.693L24.4207 102.138ZM40.128 107.174C40.2855 107.056 40.3588 107.026 40.421 107.001C40.5423 106.951 40.5221 106.963 40.8151 106.85C41.0032 106.777 41.455 106.602 41.9419 106.317C43.2761 105.534 44.1804 104.354 44.6628 102.949C45.022 101.901 45.1207 100.788 45.172 99.9184L35.1894 99.3295C35.17 99.6583 35.1495 99.8413 35.1368 99.9287C35.1229 100.025 35.1305 99.9174 35.2041 99.703C35.2853 99.4662 35.4589 99.0632 35.805 98.6294C36.1658 98.1772 36.566 97.8767 36.8816 97.6915C37.0235 97.6083 37.1342 97.5566 37.1862 97.5334C37.2352 97.5115 37.2568 97.504 37.2162 97.5197C37.1498 97.5453 37.1407 97.5481 37.0024 97.6006C36.8978 97.6403 36.7594 97.6937 36.6028 97.7584C36.2806 97.8915 35.8956 98.0665 35.4651 98.305C35.0357 98.5428 34.5915 98.8268 34.1318 99.1712L40.128 107.174ZM45.159 100.089C45.3766 97.76 45.4646 95.4192 45.4227 93.0791L35.4243 93.2581C35.4596 95.2283 35.3855 97.1989 35.2024 99.1589L45.159 100.089ZM40.9649 88.198C36.2408 87.6835 31.545 89.0124 27.7212 91.8646L33.7002 99.8803C35.5593 98.4936 37.7458 97.9066 39.8822 98.1392L40.9649 88.198ZM27.6133 91.9474C26.3533 92.9417 24.7434 94.7718 23.8702 96.9092C23.4233 98.0032 22.9556 99.7005 23.3676 101.615C23.8364 103.794 25.2652 105.443 27.1277 106.402L31.7037 97.5102C31.8845 97.6032 32.2053 97.8106 32.518 98.1995C32.8398 98.5997 33.0469 99.061 33.1438 99.5115C33.3192 100.327 33.0826 100.801 33.1276 100.691C33.1498 100.637 33.2481 100.447 33.4518 100.188C33.6578 99.9267 33.8165 99.7909 33.8081 99.7975L27.6133 91.9474Z" fill="#FF6A6A" mask="url(#path-1-inside-1_957_852)"/>
<mask id="path-3-inside-2_957_852" fill="white">
<path d="M31.9735 106.253C31.43 106.263 30.8916 106.146 30.4008 105.912C29.8399 105.587 29.3768 105.116 29.0602 104.549C28.7436 103.982 28.5851 103.339 28.6015 102.69C28.2378 102.513 27.9248 102.247 27.6917 101.916C27.4586 101.585 27.313 101.2 27.2687 100.797C27.3681 99.8262 27.6772 98.8883 28.1743 98.0489C28.6715 97.2096 29.3448 96.4888 30.1475 95.9368C33.2873 93.759 37.0999 92.7796 40.8966 93.1756L41.3498 93.2157V93.6704C41.4083 95.3367 41.3571 97.0051 41.1965 98.6647C41.1565 99.1528 41.1232 99.6341 41.0899 100.122C40.9432 102.415 40.5167 102.763 39.3372 103.171C38.7177 103.369 38.1314 103.66 37.5979 104.033C35.9444 105.246 34.0073 106.011 31.9735 106.253ZM39.3705 94.1651C36.3098 94.1241 33.3131 95.0452 30.8006 96.7993C29.721 97.5883 28.2216 99.4336 28.3482 100.704C28.386 100.973 28.4977 101.226 28.6707 101.435C28.8437 101.644 29.0712 101.801 29.3279 101.887L29.6144 102.021V102.335C29.6811 103.713 30.0942 104.595 30.8473 104.969C32.3 105.692 35.0056 104.582 37.0515 103.171C37.6651 102.743 38.3389 102.41 39.0507 102.181C39.8237 101.914 39.9836 101.854 40.0969 100.055C40.0969 99.5673 40.1636 99.0792 40.2035 98.5845C40.3396 97.1222 40.3974 95.6536 40.3768 94.1852C40.0347 94.1718 39.6949 94.1651 39.3705 94.1651Z"/>
</mask>
<path d="M31.9735 106.253L32.0653 111.252L32.3164 111.248L32.5658 111.218L31.9735 106.253ZM30.4008 105.912L27.8916 110.237L28.0657 110.338L28.2474 110.425L30.4008 105.912ZM28.6015 102.69L33.5999 102.815L33.681 99.5964L30.7837 98.1909L28.6015 102.69ZM27.2687 100.797L22.2947 100.288L22.2406 100.817L22.2987 101.345L27.2687 100.797ZM30.1475 95.9368L32.9805 100.057L32.9889 100.051L32.9972 100.045L30.1475 95.9368ZM40.8966 93.1756L40.3779 98.1486L40.4168 98.1527L40.4557 98.1561L40.8966 93.1756ZM41.3498 93.2157H46.3498V88.6387L41.7906 88.2352L41.3498 93.2157ZM41.3498 93.6704H36.3498V93.7581L36.3528 93.8458L41.3498 93.6704ZM41.1965 98.6647L36.2197 98.1832L36.2162 98.2198L36.2132 98.2564L41.1965 98.6647ZM41.0899 100.122L36.1015 99.7817L36.1007 99.7924L36.1 99.8032L41.0899 100.122ZM39.3372 103.171L40.8631 107.932L40.9173 107.915L40.9711 107.896L39.3372 103.171ZM37.5979 104.033L34.7318 99.9364L34.6861 99.9684L34.6411 100.001L37.5979 104.033ZM39.3705 94.1651L39.3035 99.1647L39.337 99.1651H39.3705V94.1651ZM30.8006 96.7993L27.9384 92.6996L27.8941 92.7305L27.8505 92.7624L30.8006 96.7993ZM28.3482 100.704L23.3729 101.2L23.3829 101.3L23.3969 101.399L28.3482 100.704ZM29.3279 101.887L31.4422 97.3563L31.1906 97.2389L30.9275 97.1501L29.3279 101.887ZM29.6144 102.021H34.6144V98.8366L31.7288 97.4901L29.6144 102.021ZM29.6144 102.335H24.6144V102.456L24.6203 102.577L29.6144 102.335ZM30.8473 104.969L28.6212 109.447L28.6218 109.447L30.8473 104.969ZM37.0515 103.171L39.8898 107.287L39.9004 107.28L39.9109 107.273L37.0515 103.171ZM39.0507 102.181L40.5773 106.943L40.6316 106.925L40.6854 106.907L39.0507 102.181ZM40.0969 100.055L45.087 100.37L45.0969 100.213V100.055H40.0969ZM40.2035 98.5845L35.225 98.1213L35.2222 98.1515L35.2198 98.1817L40.2035 98.5845ZM40.3768 94.1852L45.3763 94.115L45.3097 89.3742L40.5721 89.189L40.3768 94.1852ZM31.8817 101.254C32.1147 101.25 32.345 101.3 32.5541 101.4L28.2474 110.425C29.4383 110.993 30.7453 111.277 32.0653 111.252L31.8817 101.254ZM32.9099 101.587C33.1276 101.714 33.3052 101.895 33.4258 102.111L24.6946 106.986C25.4484 108.336 26.5522 109.46 27.8916 110.237L32.9099 101.587ZM33.4258 102.111C33.5464 102.327 33.6061 102.57 33.5999 102.815L23.6031 102.564C23.5641 104.108 23.9408 105.636 24.6946 106.986L33.4258 102.111ZM30.7837 98.1909C31.1834 98.3848 31.5255 98.6764 31.7794 99.0367L23.604 104.795C24.324 105.818 25.2923 106.642 26.4192 107.188L30.7837 98.1909ZM31.7794 99.0367C32.0331 99.3969 32.1907 99.8146 32.2386 100.25L22.2987 101.345C22.4354 102.586 22.884 103.773 23.604 104.795L31.7794 99.0367ZM32.2427 101.307C32.2684 101.055 32.3485 100.813 32.4764 100.597L23.8723 95.5009C23.0059 96.9637 22.4678 98.5973 22.2947 100.288L32.2427 101.307ZM32.4764 100.597C32.6042 100.381 32.7766 100.197 32.9805 100.057L27.3145 91.8169C25.913 92.7806 24.7387 94.0381 23.8723 95.5009L32.4764 100.597ZM32.9972 100.045C35.155 98.5486 37.7727 97.8769 40.3779 98.1486L41.4153 88.2026C36.4272 87.6823 31.4197 88.9694 27.2978 91.8284L32.9972 100.045ZM40.4557 98.1561L40.9089 98.1962L41.7906 88.2352L41.3375 88.1951L40.4557 98.1561ZM36.3498 93.2157V93.6704H46.3498V93.2157H36.3498ZM36.3528 93.8458C36.4036 95.2929 36.3592 96.7419 36.2197 98.1832L46.1732 99.1462C46.3549 97.2683 46.4129 95.3805 46.3467 93.4949L36.3528 93.8458ZM36.2132 98.2564C36.1701 98.7822 36.1347 99.2944 36.1015 99.7817L46.0782 100.463C46.1116 99.9739 46.1429 99.5233 46.1798 99.0729L36.2132 98.2564ZM36.1 99.8032C36.0862 100.02 36.0712 100.178 36.0575 100.29C36.0437 100.404 36.034 100.447 36.0354 100.441C36.0369 100.434 36.0554 100.35 36.1065 100.215C36.1592 100.076 36.2484 99.8784 36.3926 99.6536C36.7198 99.1436 37.1409 98.7839 37.5022 98.5656C37.7684 98.4047 37.9381 98.3643 37.7033 98.4455L40.9711 107.896C41.658 107.659 43.5458 107.023 44.8092 105.054C45.8437 103.441 46.0057 101.598 46.0797 100.441L36.1 99.8032ZM37.8113 98.4095C36.7139 98.7612 35.6758 99.276 34.7318 99.9364L40.464 108.13C40.5869 108.044 40.7215 107.978 40.8631 107.932L37.8113 98.4095ZM34.6411 100.001C33.6814 100.705 32.5586 101.148 31.3812 101.288L32.5658 111.218C35.4559 110.873 38.2074 109.787 40.5548 108.065L34.6411 100.001ZM39.4375 89.1655C35.3291 89.1105 31.3081 90.3471 27.9384 92.6996L33.6628 100.899C35.3182 99.7434 37.2906 99.1377 39.3035 99.1647L39.4375 89.1655ZM27.8505 92.7624C26.8125 93.521 25.7833 94.6015 25.0015 95.7391C24.372 96.6549 23.1244 98.7065 23.3729 101.2L33.3236 100.208C33.3615 100.589 33.3295 100.89 33.2952 101.083C33.2607 101.276 33.2159 101.404 33.1944 101.46C33.1567 101.558 33.1525 101.534 33.2427 101.403C33.3248 101.284 33.4365 101.146 33.5584 101.019C33.6868 100.884 33.7632 100.827 33.7507 100.836L27.8505 92.7624ZM23.3969 101.399C23.5632 102.584 24.055 103.7 24.8191 104.623L32.5222 98.2467C32.9404 98.7518 33.2088 99.3619 33.2996 100.008L23.3969 101.399ZM24.8191 104.623C25.5833 105.547 26.5902 106.24 27.7282 106.624L30.9275 97.1501C31.5523 97.361 32.104 97.7415 32.5222 98.2467L24.8191 104.623ZM27.2135 106.418L27.5 106.552L31.7288 97.4901L31.4422 97.3563L27.2135 106.418ZM24.6144 102.021V102.335H34.6144V102.021H24.6144ZM24.6203 102.577C24.7156 104.547 25.3904 107.84 28.6212 109.447L33.0733 100.492C33.8628 100.885 34.3071 101.493 34.502 101.909C34.6618 102.25 34.6226 102.383 34.6086 102.094L24.6203 102.577ZM28.6218 109.447C31.1944 110.726 33.8844 110.078 35.2785 109.623C36.9515 109.077 38.5701 108.197 39.8898 107.287L34.2131 99.0547C33.487 99.5554 32.7298 99.9359 32.1754 100.117C31.9025 100.206 31.8149 100.202 31.8916 100.198C31.9517 100.195 32.4344 100.175 33.0727 100.492L28.6218 109.447ZM39.9109 107.273C40.1159 107.13 40.3406 107.019 40.5773 106.943L37.524 97.4202C36.3372 97.8008 35.2142 98.3567 34.1921 99.0693L39.9109 107.273ZM40.6854 106.907C40.7209 106.894 42.9735 106.329 44.1991 104.108C44.6779 103.24 44.8487 102.405 44.9287 101.916C45.0136 101.398 45.0566 100.853 45.087 100.37L35.1068 99.741C35.0947 99.9337 35.0837 100.073 35.074 100.174C35.064 100.278 35.0581 100.313 35.06 100.301C35.0615 100.292 35.0784 100.188 35.1264 100.026C35.1754 99.8607 35.2694 99.5924 35.4433 99.2772C35.6255 98.9469 35.8714 98.6089 36.1892 98.297C36.5022 97.9898 36.8112 97.7803 37.0527 97.6429C37.2778 97.515 37.4503 97.4468 37.4907 97.431C37.5222 97.4186 37.5332 97.4156 37.4159 97.4562L40.6854 106.907ZM45.0969 100.055C45.0969 99.8315 45.1171 99.8554 45.1873 98.9872L35.2198 98.1817C35.21 98.303 35.0969 99.3031 35.0969 100.055H45.0969ZM45.182 99.0476C45.3346 97.4081 45.3994 95.7615 45.3763 94.115L35.3773 94.2554C35.3954 95.5458 35.3446 96.8363 35.225 98.1213L45.182 99.0476ZM40.5721 89.189C40.1672 89.1731 39.7622 89.1651 39.3705 89.1651V99.1651C39.6275 99.1651 39.9023 99.1704 40.1815 99.1813L40.5721 89.189Z" fill="#FF6A6A" mask="url(#path-3-inside-2_957_852)"/>
<path d="M40.4429 34.5533C37.2716 33.2498 35.6562 31.3668 34.9523 29.5302C34.0925 27.2868 34.4016 24.621 35.7411 22.2035C37.079 19.7889 39.3384 17.8325 42.0197 17.0185C44.1267 16.3788 46.6164 16.4056 49.3135 17.6345L40.4429 34.5533Z" stroke="#FF6A6A" stroke-width="5"/>
<mask id="path-6-inside-3_957_852" fill="white">
<path d="M41.7887 38.5522L41.3867 38.4393C38.8783 38.0093 36.5558 36.8297 34.7206 35.0533C32.8853 33.277 31.6218 30.9859 31.094 28.4771C30.8465 25.8994 31.318 23.3032 32.4555 20.981C33.5929 18.6588 35.3511 16.7029 37.5319 15.3335C39.8962 13.8294 42.6546 13.0764 45.4489 13.1723C48.2432 13.2683 50.9443 14.2087 53.2016 15.8715L53.597 16.1305L41.7887 38.5522ZM44.7474 14.2044C42.3843 14.2051 40.0723 14.8973 38.092 16.1969C36.0767 17.4546 34.4497 19.2542 33.3938 21.3932C32.3379 23.5321 31.8952 25.9256 32.1154 28.3044C32.5889 30.5493 33.7094 32.6034 35.3365 34.209C36.9636 35.8147 39.0247 36.9004 41.2615 37.3302L52.233 16.4958C49.9962 15.0502 47.4041 14.2613 44.7474 14.2177V14.2044Z"/>
</mask>
<path d="M41.7887 38.5522L40.4366 43.3659L44.3288 44.4592L46.2127 40.8821L41.7887 38.5522ZM41.3867 38.4393L42.7389 33.6256L42.4882 33.5552L42.2315 33.5112L41.3867 38.4393ZM31.094 28.4771L26.1169 28.9549L26.1436 29.233L26.2011 29.5064L31.094 28.4771ZM37.5319 15.3335L40.1908 19.5679L40.2033 19.5601L40.2157 19.5522L37.5319 15.3335ZM53.2016 15.8715L50.2362 19.8972L50.3467 19.9786L50.4616 20.0538L53.2016 15.8715ZM53.597 16.1305L58.021 18.4604L60.1389 14.4389L56.3371 11.9481L53.597 16.1305ZM44.7474 14.2044H49.7474V9.20296L44.7459 9.20444L44.7474 14.2044ZM38.092 16.1969L40.7393 20.4386L40.7877 20.4084L40.8354 20.3771L38.092 16.1969ZM32.1154 28.3044L27.1367 28.7652L27.1633 29.0533L27.223 29.3363L32.1154 28.3044ZM41.2615 37.3302L40.3181 42.2404L43.9584 42.9398L45.6856 39.6599L41.2615 37.3302ZM52.233 16.4958L56.6571 18.8255L58.788 14.7789L54.947 12.2964L52.233 16.4958ZM44.7474 14.2177H39.7474V19.1363L44.6653 19.2171L44.7474 14.2177ZM43.1408 33.7385L42.7389 33.6256L40.0346 43.253L40.4366 43.3659L43.1408 33.7385ZM42.2315 33.5112C40.7188 33.2519 39.3128 32.5397 38.1979 31.4606L31.2432 38.6461C33.7988 41.1197 37.0378 42.7668 40.542 43.3675L42.2315 33.5112ZM38.1979 31.4606C37.0826 30.3811 36.3101 28.9838 35.9869 27.4477L26.2011 29.5064C26.9336 32.9879 28.6879 36.1729 31.2432 38.6461L38.1979 31.4606ZM36.0711 27.9992C35.9119 26.3403 36.2156 24.6711 36.9458 23.1804L27.9652 18.7816C26.4205 21.9353 25.7812 25.4584 26.1169 28.9549L36.0711 27.9992ZM36.9458 23.1804C37.6757 21.6901 38.8013 20.4404 40.1908 19.5679L34.873 11.0991C31.9008 12.9654 29.5101 15.6276 27.9652 18.7816L36.9458 23.1804ZM40.2157 19.5522C41.7307 18.5884 43.494 18.1082 45.2774 18.1694L45.6205 8.17527C41.8152 8.04463 38.0618 9.07035 34.8481 11.1148L40.2157 19.5522ZM45.2774 18.1694C47.0607 18.2306 48.7885 18.8307 50.2362 19.8972L56.1671 11.8458C53.1002 9.58658 49.4257 8.30591 45.6205 8.17527L45.2774 18.1694ZM50.4616 20.0538L50.857 20.3128L56.3371 11.9481L55.9417 11.6891L50.4616 20.0538ZM49.173 13.8006L37.3647 36.2224L46.2127 40.8821L58.021 18.4604L49.173 13.8006ZM44.7459 9.20444C41.4061 9.20543 38.1415 10.1839 35.3487 12.0167L40.8354 20.3771C42.0031 19.6107 43.3625 19.2049 44.7489 19.2044L44.7459 9.20444ZM35.4447 11.9552C32.6372 13.7074 30.3759 16.2109 28.9103 19.18L37.8773 23.6064C38.5234 22.2975 39.5162 21.2019 40.7393 20.4386L35.4447 11.9552ZM28.9103 19.18C27.4448 22.1487 26.8315 25.4679 27.1367 28.7652L37.0941 27.8435C36.9589 26.3833 37.231 24.9156 37.8773 23.6064L28.9103 19.18ZM27.223 29.3363C27.8981 32.5369 29.4968 35.4708 31.8245 37.7679L38.8485 30.6501C37.9221 29.7359 37.2797 28.5617 37.0077 27.2724L27.223 29.3363ZM31.8245 37.7679C34.1526 40.0654 37.1066 41.6233 40.3181 42.2404L42.205 32.42C40.9428 32.1775 39.7745 31.5639 38.8485 30.6501L31.8245 37.7679ZM45.6856 39.6599L56.6571 18.8255L47.8089 14.166L36.8375 35.0005L45.6856 39.6599ZM54.947 12.2964C51.9269 10.3446 48.4233 9.27739 44.8294 9.2184L44.6653 19.2171C46.3849 19.2453 48.0656 19.7558 49.519 20.6951L54.947 12.2964ZM49.7474 14.2177V14.2044H39.7474V14.2177H49.7474Z" fill="#FF6A6A" mask="url(#path-6-inside-3_957_852)"/>
<path d="M146.522 32.5385L136.85 15.0997C139.576 13.6463 142.046 13.53 144.099 14.1096C146.688 14.8408 148.925 16.7696 150.306 19.2774C151.687 21.7869 152.096 24.6637 151.319 27.1565C150.7 29.1407 149.263 31.1034 146.522 32.5385Z" stroke="#FF6A6A" stroke-width="5"/>
<mask id="path-9-inside-4_957_852" fill="white">
<path d="M145.351 35.7313L132.582 14.4472L132.973 14.1848C135.097 12.5439 137.679 11.5501 140.39 11.3301C143.101 11.1101 145.818 11.6738 148.196 12.9493C150.444 14.2218 152.281 16.0715 153.504 18.2924C154.726 20.5132 155.286 23.018 155.121 25.5278C154.784 27.9193 153.711 30.1581 152.039 31.9536C150.368 33.749 148.176 35.0184 145.749 35.5969L145.351 35.7313ZM133.968 14.7417L145.821 34.5023C147.969 33.9377 149.898 32.7762 151.367 31.1624C152.837 29.5486 153.782 27.5536 154.086 25.4254C154.235 23.1066 153.714 20.7935 152.582 18.7434C151.45 16.6933 149.75 14.9867 147.672 13.8135C145.551 12.6373 143.114 12.0974 140.674 12.2627C138.233 12.428 135.899 13.291 133.968 14.7417Z"/>
</mask>
<path d="M145.351 35.7313L141.063 38.3035L143.135 41.7573L146.951 40.4684L145.351 35.7313ZM132.582 14.4472L129.797 10.2946L125.849 12.9426L128.294 17.0194L132.582 14.4472ZM132.973 14.1848L135.758 18.3374L135.898 18.2439L136.031 18.1413L132.973 14.1848ZM148.196 12.9493L150.659 8.59826L150.61 8.5702L150.56 8.54328L148.196 12.9493ZM155.121 25.5278L160.072 26.2246L160.098 26.0413L160.11 25.8566L155.121 25.5278ZM145.749 35.5969L144.59 30.7331L144.366 30.7863L144.148 30.8598L145.749 35.5969ZM133.968 14.7417L130.965 10.7445L127.363 13.4507L129.681 17.3136L133.968 14.7417ZM145.821 34.5023L141.534 37.0743L143.464 40.292L147.093 39.338L145.821 34.5023ZM154.086 25.4254L159.036 26.1324L159.063 25.94L159.076 25.746L154.086 25.4254ZM147.672 13.8135L150.13 9.45954L150.113 9.45004L150.097 9.44068L147.672 13.8135ZM149.638 33.1592L136.87 11.8751L128.294 17.0194L141.063 38.3035L149.638 33.1592ZM135.367 18.5999L135.758 18.3374L130.189 10.0322L129.797 10.2946L135.367 18.5999ZM136.031 18.1413C137.377 17.1008 139.035 16.4565 140.794 16.3137L139.985 6.3465C136.323 6.64371 132.817 7.98698 129.916 10.2282L136.031 18.1413ZM140.794 16.3137C142.554 16.1709 144.31 16.5385 145.832 17.3554L150.56 8.54328C147.327 6.80903 143.647 6.04931 139.985 6.3465L140.794 16.3137ZM145.733 17.3004C147.19 18.1255 148.357 19.3105 149.124 20.7037L157.884 15.881C156.206 12.8325 153.697 10.3182 150.659 8.59826L145.733 17.3004ZM149.124 20.7037C149.89 22.0951 150.234 23.65 150.132 25.199L160.11 25.8566C160.339 22.386 159.563 18.9313 157.884 15.881L149.124 20.7037ZM150.17 24.8309C149.978 26.1914 149.365 27.4886 148.38 28.5469L155.699 35.3602C158.057 32.8276 159.59 29.6472 160.072 26.2246L150.17 24.8309ZM148.38 28.5469C147.393 29.6074 146.076 30.3788 144.59 30.7331L146.907 40.4608C150.277 39.6579 153.344 37.8907 155.699 35.3602L148.38 28.5469ZM144.148 30.8598L143.751 30.9943L146.951 40.4684L147.349 40.334L144.148 30.8598ZM129.681 17.3136L141.534 37.0743L150.109 31.9304L138.256 12.1697L129.681 17.3136ZM147.093 39.338C150.157 38.5325 152.933 36.8693 155.064 34.5287L147.67 27.7962C146.863 28.6832 145.782 29.3428 144.55 29.6666L147.093 39.338ZM155.064 34.5287C157.197 32.186 158.588 29.2685 159.036 26.1324L149.136 24.7183C148.976 25.8386 148.476 26.9112 147.67 27.7962L155.064 34.5287ZM159.076 25.746C159.287 22.4667 158.549 19.2043 156.959 16.3258L148.205 21.1609C148.88 22.3826 149.184 23.7465 149.096 25.1047L159.076 25.746ZM156.959 16.3258C155.37 13.4491 152.999 11.079 150.13 9.45954L145.214 18.1675C146.501 18.8943 147.53 19.9374 148.205 21.1609L156.959 16.3258ZM150.097 9.44068C147.125 7.79327 143.729 7.04435 140.336 7.27415L141.012 17.2513C142.5 17.1505 143.976 17.4813 145.248 18.1864L150.097 9.44068ZM140.336 7.27415C136.943 7.50398 133.68 8.70429 130.965 10.7445L136.972 18.7388C138.118 17.8778 139.523 17.3521 141.012 17.2513L140.336 7.27415Z" fill="#FF6A6A" mask="url(#path-9-inside-4_957_852)"/>
<path d="M133.372 175.993C132.842 175.416 132.236 174.801 131.551 174.242C132.068 173.686 132.635 173.18 133.245 172.731C134.24 171.998 135.335 171.429 136.489 171.041C138.194 172.313 140.245 174.33 141.422 176.348C142.118 177.543 142.347 178.463 142.3 179.08C142.267 179.524 142.085 180.069 141.123 180.666L140.91 180.799L140.727 180.971C139.696 181.942 139.235 181.814 139.055 181.764L139.05 181.763C138.556 181.627 137.827 181.118 136.736 179.923C136.226 179.364 135.713 178.746 135.149 178.065L135.144 178.059C134.594 177.395 133.994 176.671 133.372 175.993Z" stroke="#FF6A6A" stroke-width="5"/>
<mask id="path-12-inside-5_957_852" fill="white">
<path d="M139.549 184.299H139.294C136.873 184.16 134.861 181.945 132.916 179.799C131.581 177.977 129.768 176.51 127.651 175.538L126.94 175.337L127.383 174.77C129.571 171.506 133.045 169.186 137.047 168.313H137.242L137.41 168.408C140.139 169.994 145.773 174.626 145.746 178.817C145.732 179.645 145.48 180.454 145.016 181.159C144.552 181.864 143.893 182.437 143.11 182.82C142.166 183.718 140.893 184.247 139.549 184.299ZM128.651 174.859C130.639 175.958 132.365 177.429 133.721 179.182C135.605 181.259 137.39 183.222 139.361 183.336C139.937 183.334 140.506 183.222 141.033 183.005C141.56 182.789 142.035 182.473 142.426 182.077L142.507 182.02C143.145 181.727 143.686 181.275 144.069 180.714C144.452 180.152 144.663 179.503 144.68 178.836C144.68 175.488 140.173 171.284 137.007 169.396C133.586 170.141 130.597 172.084 128.651 174.827V174.859Z"/>
</mask>
<path d="M139.549 184.299V189.299H139.645L139.741 189.295L139.549 184.299ZM139.294 184.299L139.009 189.29L139.151 189.299H139.294V184.299ZM132.916 179.799L128.883 182.754L129.037 182.964L129.211 183.156L132.916 179.799ZM127.651 175.538L129.737 170.994L129.386 170.833L129.014 170.727L127.651 175.538ZM126.94 175.337L123.001 172.258L118.42 178.12L125.578 180.148L126.94 175.337ZM127.383 174.77L131.323 177.849L131.435 177.706L131.536 177.554L127.383 174.77ZM137.047 168.313V163.313H136.509L135.983 163.428L137.047 168.313ZM137.242 168.313L139.695 163.957L138.553 163.313H137.242V168.313ZM137.41 168.408L139.921 164.085L139.892 164.068L139.863 164.051L137.41 168.408ZM145.746 178.817L150.745 178.902L150.746 178.875L150.746 178.849L145.746 178.817ZM143.11 182.82L140.917 178.326L140.223 178.665L139.663 179.198L143.11 182.82ZM128.651 174.859H123.651V177.808L126.232 179.235L128.651 174.859ZM133.721 179.182L129.766 182.241L129.886 182.397L130.018 182.542L133.721 179.182ZM139.361 183.336L139.075 188.327L139.224 188.336L139.374 188.336L139.361 183.336ZM142.426 182.077L139.549 177.988L139.185 178.244L138.873 178.56L142.426 182.077ZM142.507 182.02L140.422 177.476L140.005 177.667L139.629 177.931L142.507 182.02ZM144.68 178.836L149.678 178.958L149.68 178.897V178.836L144.68 178.836ZM137.007 169.396L139.568 165.102L137.873 164.09L135.943 164.51L137.007 169.396ZM128.651 174.827L124.573 171.934L123.651 173.234V174.827H128.651ZM139.549 179.299H139.294V189.299H139.549V179.299ZM139.58 179.307C139.84 179.322 139.713 179.428 139.051 178.898C138.372 178.354 137.654 177.581 136.621 176.441L129.211 183.156C130.123 184.162 131.384 185.57 132.802 186.705C134.238 187.854 136.327 189.137 139.009 189.29L139.58 179.307ZM136.949 176.843C135.095 174.313 132.602 172.309 129.737 170.994L125.566 180.082C126.933 180.71 128.067 181.641 128.883 182.754L136.949 176.843ZM129.014 170.727L128.303 170.526L125.578 180.148L126.288 180.349L129.014 170.727ZM130.88 178.416L131.323 177.849L123.443 171.692L123.001 172.258L130.88 178.416ZM131.536 177.554C132.971 175.413 135.312 173.809 138.112 173.199L135.983 163.428C130.777 164.562 126.17 167.599 123.23 171.986L131.536 177.554ZM137.047 173.313H137.242V163.313H137.047V173.313ZM134.789 172.67L134.956 172.765L139.863 164.051L139.695 163.957L134.789 172.67ZM134.898 172.731C135.859 173.289 137.556 174.539 138.948 176.038C139.632 176.775 140.133 177.455 140.441 178.024C140.758 178.611 140.746 178.847 140.746 178.785L150.746 178.849C150.772 174.728 148.185 171.289 146.275 169.233C144.175 166.971 141.69 165.112 139.921 164.085L134.898 172.731ZM140.747 178.732C140.749 178.593 140.792 178.481 140.84 178.409L149.192 183.909C150.167 182.428 150.715 180.697 150.745 178.902L140.747 178.732ZM140.84 178.409C140.885 178.34 140.923 178.324 140.917 178.326L145.304 187.313C146.864 186.551 148.218 185.387 149.192 183.909L140.84 178.409ZM139.663 179.198C139.631 179.229 139.528 179.296 139.358 179.302L139.741 189.295C142.259 189.198 144.701 188.208 146.557 186.441L139.663 179.198ZM126.232 179.235C127.64 180.013 128.838 181.042 129.766 182.241L137.676 176.123C135.892 173.817 133.639 171.903 131.069 170.482L126.232 179.235ZM130.018 182.542C130.896 183.509 132.066 184.814 133.329 185.854C134.573 186.879 136.523 188.181 139.075 188.327L139.648 178.344C140.227 178.377 140.3 178.641 139.688 178.136C139.095 177.647 138.43 176.931 137.424 175.822L130.018 182.542ZM139.374 188.336C140.59 188.333 141.801 188.095 142.933 187.63L139.134 178.38C139.211 178.348 139.283 178.336 139.349 178.336L139.374 188.336ZM142.933 187.63C144.065 187.165 145.105 186.478 145.98 185.594L138.873 178.56C138.964 178.467 139.056 178.412 139.134 178.38L142.933 187.63ZM145.304 186.166L145.384 186.109L139.629 177.931L139.549 177.988L145.304 186.166ZM144.591 186.565C146.027 185.906 147.286 184.87 148.199 183.532L139.939 177.896C140.085 177.681 140.263 177.548 140.422 177.476L144.591 186.565ZM148.199 183.532C149.114 182.191 149.638 180.608 149.678 178.958L139.681 178.714C139.689 178.397 139.79 178.114 139.939 177.896L148.199 183.532ZM149.68 178.836C149.68 175.208 147.435 172.115 145.761 170.239C143.887 168.14 141.571 166.296 139.568 165.102L134.446 173.69C135.609 174.384 137.129 175.586 138.301 176.898C138.878 177.545 139.274 178.111 139.504 178.547C139.75 179.013 139.68 179.087 139.68 178.836L149.68 178.836ZM135.943 164.51C131.359 165.509 127.272 168.129 124.573 171.934L132.728 177.72C133.922 176.038 135.813 174.773 138.071 174.281L135.943 164.51ZM123.651 174.827V174.859H133.651V174.827H123.651Z" fill="#FF6A6A" mask="url(#path-12-inside-5_957_852)"/>
<mask id="path-14-inside-6_957_852" fill="white">
<path d="M142.407 183.358C142.313 183.358 142.22 183.331 142.14 183.281C142.059 183.23 141.994 183.158 141.951 183.072C141.647 182.423 141.379 181.758 141.148 181.079C140.792 179.801 140.154 178.623 139.282 177.636C139.202 177.536 139.16 177.41 139.165 177.281C139.169 177.152 139.221 177.03 139.309 176.937C139.397 176.844 139.515 176.787 139.641 176.778C139.768 176.768 139.893 176.806 139.994 176.885C140.982 177.979 141.707 179.292 142.114 180.72C142.333 181.353 142.586 181.975 142.871 182.581C142.932 182.705 142.942 182.849 142.899 182.981C142.857 183.113 142.764 183.222 142.642 183.285C142.571 183.329 142.49 183.354 142.407 183.358Z"/>
</mask>
<path d="M142.407 183.358L142.387 188.358L142.532 188.359L142.676 188.351L142.407 183.358ZM141.951 183.072L137.422 185.191L137.451 185.255L137.483 185.317L141.951 183.072ZM141.148 181.079L136.332 182.42L136.369 182.555L136.414 182.688L141.148 181.079ZM139.282 177.636L135.401 180.787L135.466 180.867L135.534 180.945L139.282 177.636ZM139.994 176.885L143.704 173.533L143.415 173.213L143.075 172.947L139.994 176.885ZM142.114 180.72L137.305 182.088L137.343 182.222L137.388 182.354L142.114 180.72ZM142.871 182.581L138.346 184.708L138.366 184.751L138.386 184.792L142.871 182.581ZM142.642 183.285L140.356 178.838L140.192 178.922L140.035 179.019L142.642 183.285ZM142.428 178.358C143.269 178.362 144.088 178.601 144.792 179.042L139.487 187.519C140.353 188.061 141.356 188.354 142.387 188.358L142.428 178.358ZM144.792 179.042C145.496 179.482 146.054 180.103 146.418 180.827L137.483 185.317C137.933 186.213 138.622 186.978 139.487 187.519L144.792 179.042ZM146.48 180.954C146.254 180.471 146.054 179.975 145.882 179.469L136.414 182.688C136.704 183.54 137.04 184.376 137.422 185.191L146.48 180.954ZM145.965 179.737C145.408 177.736 144.406 175.885 143.031 174.327L135.534 180.945C135.902 181.362 136.177 181.865 136.332 182.42L145.965 179.737ZM143.164 174.484C143.854 175.334 144.201 176.396 144.161 177.468L134.168 177.094C134.118 178.424 134.55 179.739 135.401 180.787L143.164 174.484ZM144.161 177.468C144.121 178.541 143.694 179.577 142.939 180.374L135.678 173.499C134.747 174.482 134.218 175.763 134.168 177.094L144.161 177.468ZM142.939 180.374C142.182 181.174 141.145 181.678 140.019 181.763L139.264 171.792C137.885 171.896 136.611 172.514 135.678 173.499L142.939 180.374ZM140.019 181.763C138.892 181.849 137.786 181.506 136.912 180.822L143.075 172.947C142 172.106 140.643 171.687 139.264 171.792L140.019 181.763ZM136.283 180.236C136.754 180.758 137.106 181.391 137.305 182.088L146.923 179.352C146.309 177.192 145.209 175.2 143.704 173.533L136.283 180.236ZM137.388 182.354C137.666 183.155 137.985 183.941 138.346 184.708L147.395 180.453C147.186 180.008 147 179.551 146.839 179.086L137.388 182.354ZM138.386 184.792C137.87 183.746 137.785 182.543 138.143 181.439L147.656 184.523C148.099 183.154 147.993 181.664 147.355 180.369L138.386 184.792ZM138.143 181.439C138.502 180.333 139.286 179.388 140.356 178.838L144.928 187.732C146.242 187.056 147.212 185.893 147.656 184.523L138.143 181.439ZM140.035 179.019C140.668 178.632 141.39 178.406 142.138 178.365L142.676 188.351C143.591 188.302 144.474 188.025 145.249 187.552L140.035 179.019Z" fill="#FF6A6A" mask="url(#path-14-inside-6_957_852)"/>
<path d="M58.7805 176.032C57.4622 176.702 56.3212 177.533 55.3052 178.339C54.7523 178.778 54.2493 179.195 53.7747 179.588C52.5025 180.643 51.4335 181.529 50.1484 182.215L50.1096 182.235L50.0716 182.257C49.3772 182.66 48.9602 182.73 48.7752 182.738C48.6147 182.745 48.5383 182.71 48.48 182.675C48.2478 182.537 48.087 182.271 47.8623 181.877L47.455 181.162L46.703 180.829C46.496 180.738 46.2777 180.662 46.0467 180.61C46.0369 180.608 46.0271 180.605 46.0174 180.603C45.7247 179.989 45.7194 179.528 45.7943 179.155C45.9075 178.591 46.2776 177.899 47.0363 177.07C48.2461 175.748 49.8759 174.63 51.5226 173.501C51.8976 173.244 52.2734 172.986 52.6454 172.725C54.1605 172.561 55.447 173.068 56.7404 174.07C57.4559 174.624 58.1241 175.292 58.7805 176.032ZM45.1102 180.532C45.1005 180.532 45.1019 180.532 45.1119 180.532L45.1114 180.532C45.1107 180.532 45.1104 180.532 45.1102 180.532Z" stroke="#FF6A6A" stroke-width="5"/>
<mask id="path-17-inside-7_957_852" fill="white">
<path d="M48.4536 186.179C48.1365 186.181 47.8205 186.14 47.5141 186.058C46.9665 185.879 46.4603 185.59 46.0253 185.211C45.5904 184.831 45.2356 184.367 44.9818 183.847H44.8619C44.4221 183.847 44.0955 183.753 43.4425 183.09L43.3692 183.003C39.884 177.468 45.8148 173.266 49.7464 170.486C50.2395 170.137 50.706 169.815 51.1258 169.494L51.2191 169.427H51.3324C56.8567 168.301 60.3485 172.898 63.1473 176.59L63.9403 177.629L63.0673 177.763C60.2589 178.441 57.7031 179.915 55.7038 182.011C54.3588 183.248 52.8919 184.344 51.3257 185.281C50.4651 185.833 49.4735 186.143 48.4536 186.179ZM44.9418 182.788C45.1541 182.789 45.3636 182.837 45.5549 182.929L45.7082 183.003L45.8414 183.237C46.0291 183.654 46.2981 184.028 46.6324 184.337C46.9666 184.647 47.3594 184.886 47.7873 185.04C48.3126 185.138 48.8522 185.129 49.3741 185.014C49.896 184.899 50.3897 184.68 50.826 184.37C52.3343 183.463 53.7475 182.406 55.0441 181.214C57.0151 179.233 59.4275 177.754 62.0811 176.898C59.4156 173.374 56.3369 169.567 51.6723 170.445C51.2658 170.74 50.826 171.055 50.3395 171.377C46.3412 174.218 41.3301 177.756 44.2155 182.42C44.6286 182.835 44.7286 182.829 44.8152 182.829L44.9418 182.788Z"/>
</mask>
<path d="M48.4536 186.179L48.4852 191.179L48.5589 191.178L48.6326 191.176L48.4536 186.179ZM47.5141 186.058L45.9543 190.809L46.0865 190.852L46.2209 190.888L47.5141 186.058ZM46.0253 185.211L42.7365 188.977L46.0253 185.211ZM44.9818 183.847L49.4753 181.654L48.1053 178.847H44.9818V183.847ZM43.4425 183.09L39.6168 186.309L39.7424 186.459L39.8793 186.598L43.4425 183.09ZM43.3692 183.003L39.1381 185.667L39.3216 185.958L39.5434 186.222L43.3692 183.003ZM49.7464 170.486L46.861 166.402L46.8591 166.403L49.7464 170.486ZM51.1258 169.494L48.2089 165.433L48.1462 165.478L48.085 165.525L51.1258 169.494ZM51.2191 169.427V164.427H49.6095L48.3022 165.366L51.2191 169.427ZM51.3324 169.427V174.427H51.8367L52.3308 174.326L51.3324 169.427ZM63.1473 176.59L59.1627 179.61L59.1679 179.617L59.1732 179.624L63.1473 176.59ZM63.9403 177.629L64.699 182.571L73.028 181.292L67.9144 174.595L63.9403 177.629ZM63.0673 177.763L62.3087 172.821L62.0997 172.853L61.8942 172.902L63.0673 177.763ZM55.7038 182.011L59.0883 185.692L59.2088 185.581L59.3219 185.462L55.7038 182.011ZM51.3257 185.281L48.7576 180.991L48.6924 181.03L48.6285 181.071L51.3257 185.281ZM44.9418 182.788L44.9471 177.788L44.1695 177.788L43.4284 178.023L44.9418 182.788ZM45.5549 182.929L43.3803 187.431L43.388 187.435L45.5549 182.929ZM45.7082 183.003L50.0554 180.533L49.2834 179.174L47.8751 178.497L45.7082 183.003ZM45.8414 183.237L50.3994 181.182L50.3037 180.97L50.1887 180.767L45.8414 183.237ZM47.7873 185.04L46.0937 189.744L46.4729 189.881L46.869 189.955L47.7873 185.04ZM50.826 184.37L48.2508 180.084L48.0856 180.183L47.9286 180.295L50.826 184.37ZM55.0441 181.214L58.4287 184.894L58.5102 184.819L58.5884 184.74L55.0441 181.214ZM62.0811 176.898L63.6149 181.657L70.3156 179.498L66.0691 173.882L62.0811 176.898ZM51.6723 170.445L50.7476 165.532L49.6448 165.739L48.7365 166.398L51.6723 170.445ZM50.3395 171.377L47.5818 167.206L47.5117 167.252L47.4433 167.301L50.3395 171.377ZM44.2155 182.42L39.9635 185.05L40.2654 185.539L40.6701 185.946L44.2155 182.42ZM44.8152 182.829V187.829H45.5901L46.3286 187.594L44.8152 182.829ZM48.4221 181.179C48.5523 181.178 48.6818 181.195 48.8072 181.229L46.2209 190.888C46.9592 191.086 47.7207 191.184 48.4852 191.179L48.4221 181.179ZM49.0738 181.308C49.164 181.338 49.2455 181.384 49.3142 181.444L42.7365 188.977C43.6751 189.796 44.769 190.42 45.9543 190.809L49.0738 181.308ZM49.3142 181.444C49.3828 181.504 49.4371 181.576 49.4753 181.654L40.4884 186.04C41.0341 187.158 41.7981 188.157 42.7365 188.977L49.3142 181.444ZM44.9818 178.847H44.8619V188.847H44.9818V178.847ZM44.8619 178.847C44.9229 178.847 45.154 178.849 45.4637 178.907C45.7971 178.969 46.1235 179.077 46.4229 179.223C46.9518 179.481 47.1746 179.754 47.0057 179.582L39.8793 186.598C40.3634 187.089 41.076 187.741 42.0413 188.212C43.178 188.766 44.1983 188.847 44.8619 188.847V178.847ZM47.2682 179.871L47.1949 179.784L39.5434 186.222L39.6168 186.309L47.2682 179.871ZM47.6003 180.339C47.4128 180.041 47.351 179.853 47.3299 179.769C47.3105 179.692 47.3122 179.653 47.3152 179.624C47.3223 179.556 47.3774 179.254 47.8031 178.676C48.7731 177.358 50.5118 176.068 52.6337 174.568L46.8591 166.403C45.0494 167.683 41.8569 169.885 39.75 172.747C38.6371 174.259 37.6172 176.218 37.3696 178.582C37.1127 181.035 37.7386 183.444 39.1381 185.667L47.6003 180.339ZM52.6318 174.569C53.0539 174.271 53.6462 173.862 54.1667 173.463L48.085 165.525C47.7658 165.769 47.4251 166.003 46.861 166.402L52.6318 174.569ZM54.0428 173.555L54.1361 173.488L48.3022 165.366L48.2089 165.433L54.0428 173.555ZM51.2191 174.427H51.3324V164.427H51.2191V174.427ZM52.3308 174.326C53.3138 174.126 54.1247 174.328 55.2157 175.167C56.5031 176.156 57.6825 177.658 59.1627 179.61L67.1319 173.57C65.8133 171.83 63.8474 169.188 61.3081 167.237C58.5724 165.135 54.8753 163.602 50.334 164.527L52.3308 174.326ZM59.1732 179.624L59.9661 180.663L67.9144 174.595L67.1214 173.556L59.1732 179.624ZM63.1816 172.687L62.3087 172.821L63.826 182.705L64.699 182.571L63.1816 172.687ZM61.8942 172.902C58.1498 173.806 54.746 175.771 52.0858 178.56L59.3219 185.462C60.6602 184.059 62.368 183.075 64.2404 182.623L61.8942 172.902ZM52.3194 178.331C51.2248 179.337 50.0313 180.229 48.7576 180.991L53.8939 189.571C55.7524 188.459 57.4929 187.159 59.0883 185.692L52.3194 178.331ZM48.6285 181.071C48.5204 181.14 48.3983 181.178 48.2747 181.182L48.6326 191.176C50.5487 191.107 52.4098 190.525 54.023 189.491L48.6285 181.071ZM44.9366 187.788C44.3967 187.788 43.8648 187.665 43.3803 187.431L47.7295 178.427C46.8624 178.008 45.9115 177.789 44.9471 177.788L44.9366 187.788ZM43.388 187.435L43.5412 187.509L47.8751 178.497L47.7218 178.423L43.388 187.435ZM41.361 185.473L41.4942 185.708L50.1887 180.767L50.0554 180.533L41.361 185.473ZM41.2835 185.293C41.7456 186.317 42.4086 187.24 43.2345 188.005L50.0303 180.669C50.1877 180.815 50.3127 180.99 50.3994 181.182L41.2835 185.293ZM43.2345 188.005C44.0605 188.77 45.0326 189.362 46.0937 189.744L49.4809 180.335C49.6862 180.409 49.8728 180.523 50.0303 180.669L43.2345 188.005ZM46.869 189.955C48.0548 190.176 49.2729 190.157 50.4508 189.897L48.2973 180.132C48.4315 180.102 48.5704 180.1 48.7055 180.125L46.869 189.955ZM50.4508 189.897C51.6287 189.637 52.7414 189.143 53.7233 188.445L47.9286 180.295C48.038 180.217 48.1633 180.161 48.2973 180.132L50.4508 189.897ZM53.4012 188.656C55.1993 187.575 56.8837 186.315 58.4287 184.894L51.6596 177.533C50.6113 178.497 49.4692 179.352 48.2508 180.084L53.4012 188.656ZM58.5884 184.74C59.9984 183.323 61.7219 182.267 63.6149 181.657L60.5473 172.139C57.1331 173.24 54.0319 175.142 51.4999 177.687L58.5884 184.74ZM66.0691 173.882C64.7788 172.176 62.9635 169.798 60.6534 168.041C58.1637 166.148 54.8234 164.765 50.7476 165.532L52.597 175.359C53.1858 175.248 53.7171 175.329 54.5993 176C55.6611 176.808 56.7179 178.096 58.0931 179.914L66.0691 173.882ZM48.7365 166.398C48.3448 166.682 47.9755 166.946 47.5818 167.206L53.0972 175.547C53.6764 175.164 54.1867 174.798 54.608 174.493L48.7365 166.398ZM47.4433 167.301C45.6284 168.591 42.6682 170.632 40.7223 173.18C39.6859 174.537 38.6986 176.327 38.43 178.518C38.1492 180.808 38.7157 183.034 39.9635 185.05L48.4675 179.789C48.2725 179.474 48.3834 179.509 48.3557 179.735C48.3401 179.862 48.3144 179.715 48.6699 179.249C49.5078 178.152 51.0523 177.004 53.2357 175.452L47.4433 167.301ZM40.6701 185.946C40.9498 186.227 41.4602 186.721 42.1466 187.115C42.5542 187.349 43.0802 187.583 43.7185 187.717C44.3326 187.846 44.8664 187.829 44.8152 187.829V177.829C44.7207 177.829 45.2096 177.812 45.7677 177.929C46.3499 178.051 46.8088 178.261 47.129 178.445C47.6404 178.739 47.8943 179.028 47.7608 178.894L40.6701 185.946ZM46.3286 187.594L46.4552 187.554L43.4284 178.023L43.3018 178.063L46.3286 187.594Z" fill="#FF6A6A" mask="url(#path-17-inside-7_957_852)"/>
<path d="M45.6601 184.298H45.6137C45.4757 184.286 45.348 184.219 45.2585 184.112C45.169 184.004 45.125 183.865 45.136 183.725L45.6601 184.298Z" stroke="#FF6A6A" stroke-width="5"/>
<path d="M42.3898 24.1333C42.4124 24.1314 42.4357 24.1299 42.4595 24.1288L41.2553 26.3868C41.2241 26.3444 41.1967 26.3033 41.1728 26.2635C41.0777 26.105 41.0515 25.9883 41.0523 25.8675C41.0532 25.7307 41.0919 25.4425 41.3477 24.9641L41.3477 24.9641L41.3507 24.9584C41.563 24.5592 41.7596 24.3806 41.8853 24.2957C42.0075 24.2131 42.1602 24.1528 42.3898 24.1333Z" stroke="#FF6A6A" stroke-width="5"/>
<path d="M142.007 22.1375L142.007 22.1375L142.01 22.1432C142.266 22.6216 142.305 22.9098 142.306 23.0466C142.307 23.1674 142.281 23.2841 142.185 23.4426C142.162 23.4824 142.134 23.5235 142.103 23.5659L140.899 21.3079C140.923 21.309 140.946 21.3105 140.968 21.3124C141.198 21.3319 141.351 21.3922 141.473 21.4748C141.599 21.5597 141.795 21.7383 142.007 22.1375Z" stroke="#FF6A6A" stroke-width="5"/>
<mask id="path-22-inside-8_957_852" fill="white">
<path fill-rule="evenodd" clip-rule="evenodd" d="M159.584 101.236C159.335 106.39 154.199 104.007 151.87 102.397C149.66 100.868 149.012 102.141 148.819 99.1213C148.619 97.1417 148.538 95.1519 148.576 93.1626C152.007 92.8177 155.448 93.702 158.289 95.6584C159.703 96.6879 162.342 99.9636 159.584 101.274"/>
</mask>
<path d="M151.87 102.397L149.026 106.509L149.027 106.51L151.87 102.397ZM148.819 99.1213L153.809 98.8024L153.803 98.71L153.794 98.6179L148.819 99.1213ZM148.576 93.1626L148.076 88.1876L143.663 88.6313L143.577 93.0656L148.576 93.1626ZM158.289 95.6584L161.233 91.6169L161.179 91.5778L161.125 91.5401L158.289 95.6584ZM154.59 100.995C154.565 101.512 154.472 100.776 155.339 100.03C155.744 99.681 156.172 99.5041 156.498 99.4271C156.797 99.3564 156.979 99.3754 156.981 99.3756C156.987 99.3762 156.904 99.3676 156.726 99.3132C156.553 99.2605 156.338 99.1796 156.091 99.0673C155.585 98.8376 155.086 98.5416 154.713 98.2842L149.027 106.51C150.397 107.457 153.129 109.054 156.033 109.331C157.596 109.479 159.9 109.298 161.864 107.607C163.836 105.909 164.479 103.538 164.578 101.478L154.59 100.995ZM154.714 98.2848C154.254 97.9666 153.812 97.7061 153.388 97.4893C152.964 97.2722 152.585 97.1135 152.27 96.9931C152.116 96.9346 151.98 96.8861 151.877 96.8499C151.741 96.8023 151.728 96.7985 151.662 96.7747C151.619 96.7596 151.636 96.765 151.68 96.7831C151.727 96.8024 151.832 96.8475 151.969 96.9217C152.271 97.0849 152.683 97.3654 153.069 97.8121C153.447 98.2488 153.65 98.672 153.753 98.95C153.847 99.2013 153.864 99.3477 153.854 99.2888C153.846 99.2378 153.828 99.093 153.809 98.8024L143.829 99.4402C143.882 100.255 143.985 101.371 144.38 102.434C144.918 103.882 145.896 105.005 147.207 105.715C147.683 105.973 148.123 106.13 148.307 106.195C148.593 106.297 148.582 106.289 148.707 106.337C148.785 106.367 148.867 106.4 149.026 106.509L154.714 98.2848ZM153.794 98.6179C153.614 96.8378 153.541 95.0484 153.576 93.2595L143.577 93.0656C143.535 95.2553 143.624 97.4457 143.845 99.6247L153.794 98.6179ZM149.077 98.1375C151.328 97.9112 153.587 98.4913 155.454 99.7766L161.125 91.5401C157.309 88.9127 152.686 87.7242 148.076 88.1876L149.077 98.1375ZM155.345 99.6998C155.333 99.6907 155.481 99.8071 155.673 100.032C155.866 100.258 155.935 100.397 155.929 100.384C155.921 100.367 155.863 100.235 155.825 100C155.786 99.7599 155.758 99.3545 155.875 98.8533C155.998 98.325 156.252 97.8235 156.608 97.4144C156.949 97.0235 157.281 96.8327 157.439 96.7576L161.73 105.79C163.527 104.936 165.088 103.38 165.614 101.124C166.076 99.1388 165.544 97.4013 165.073 96.3374C164.153 94.2567 162.489 92.5317 161.233 91.6169L155.345 99.6998Z" fill="#FF6A6A" mask="url(#path-22-inside-8_957_852)"/>
<mask id="path-24-inside-9_957_852" fill="white">
<path d="M157.093 105.313C155.037 105.084 153.075 104.321 151.402 103.099C150.869 102.726 150.282 102.435 149.663 102.236C148.483 101.821 148.057 101.474 147.91 99.1858C147.91 98.6974 147.843 98.2158 147.803 97.7275C147.643 96.067 147.592 94.3976 147.65 92.7304V92.2755L148.103 92.2353C151.9 91.8391 155.713 92.8191 158.852 94.9981C159.655 95.5504 160.329 96.2715 160.826 97.1114C161.323 97.9512 161.632 98.8896 161.731 99.8614C161.687 100.264 161.541 100.65 161.308 100.981C161.075 101.312 160.762 101.578 160.398 101.755C160.415 102.405 160.256 103.047 159.94 103.615C159.623 104.182 159.16 104.653 158.599 104.979C158.128 105.201 157.614 105.315 157.093 105.313ZM148.676 93.2722C148.656 94.7415 148.714 96.2109 148.85 97.6739C148.89 98.1623 148.923 98.6506 148.956 99.1456C149.07 100.945 149.23 100.999 150.003 101.273C150.714 101.501 151.388 101.835 152.002 102.263C154.041 103.681 156.753 104.785 158.206 104.062C158.959 103.688 159.372 102.805 159.439 101.427V101.112L159.725 100.979C159.982 100.892 160.21 100.735 160.383 100.526C160.556 100.317 160.667 100.064 160.705 99.7945C160.825 98.5235 159.332 96.6772 158.253 95.8878C155.456 93.9341 152.075 93.0036 148.676 93.2522V93.2722Z"/>
</mask>
<path d="M157.093 105.313L156.538 110.283L156.806 110.312L157.075 110.313L157.093 105.313ZM151.402 103.099L154.35 99.0608L154.31 99.0314L154.269 99.0029L151.402 103.099ZM149.663 102.236L148.004 106.953L148.07 106.976L148.136 106.997L149.663 102.236ZM147.91 99.1858H142.91V99.3458L142.92 99.5055L147.91 99.1858ZM147.803 97.7275L152.787 97.3194L152.784 97.2831L152.78 97.2467L147.803 97.7275ZM147.65 92.7304L152.647 92.9052L152.65 92.8178V92.7304H147.65ZM147.65 92.2755L147.209 87.295L142.65 87.6988V92.2755H147.65ZM148.103 92.2353L148.544 97.2158L148.583 97.2124L148.622 97.2083L148.103 92.2353ZM158.852 94.9981L156.002 99.1058L156.01 99.1116L156.018 99.1174L158.852 94.9981ZM161.731 99.8614L166.701 100.408L166.759 99.8805L166.705 99.3524L161.731 99.8614ZM160.398 101.755L158.215 97.2564L155.319 98.6621L155.4 101.88L160.398 101.755ZM158.599 104.979L160.732 109.501L160.925 109.41L161.109 109.303L158.599 104.979ZM148.676 93.2722L153.676 93.3424L153.676 93.3073V93.2722H148.676ZM148.85 97.6739L153.833 97.2659L153.831 97.2384L153.828 97.211L148.85 97.6739ZM148.956 99.1456L153.946 98.8315L153.946 98.8207L153.945 98.8099L148.956 99.1456ZM150.003 101.273L148.331 105.985L148.403 106.011L148.475 106.034L150.003 101.273ZM152.002 102.263L149.141 106.364L149.147 106.368L152.002 102.263ZM158.206 104.062L160.432 108.539L160.433 108.539L158.206 104.062ZM159.439 101.427L164.433 101.668L164.439 101.548V101.427H159.439ZM159.439 101.112L157.324 96.5819L154.439 97.9288V101.112H159.439ZM159.725 100.979L158.125 96.2416L157.862 96.3306L157.61 96.4481L159.725 100.979ZM160.705 99.7945L165.656 100.49L165.672 100.377L165.683 100.264L160.705 99.7945ZM158.253 95.8878L161.204 91.8517L161.16 91.8198L161.116 91.7888L158.253 95.8878ZM148.676 93.2522L148.312 88.2655L143.676 88.6044V93.2522H148.676ZM157.648 100.344C156.458 100.211 155.321 99.7697 154.35 99.0608L148.454 107.138C150.829 108.872 153.616 109.956 156.538 110.283L157.648 100.344ZM154.269 99.0029C153.325 98.3421 152.287 97.8269 151.189 97.475L148.136 106.997C148.277 107.043 148.412 107.109 148.535 107.195L154.269 99.0029ZM151.321 97.5193C151.085 97.4362 151.25 97.4763 151.511 97.6352C151.866 97.8513 152.283 98.2078 152.608 98.7144C152.893 99.1588 152.964 99.4987 152.964 99.4994C152.966 99.5065 152.956 99.4633 152.942 99.3506C152.929 99.2391 152.914 99.0821 152.9 98.866L142.92 99.5055C142.994 100.663 143.157 102.502 144.19 104.112C145.446 106.072 147.322 106.713 148.004 106.953L151.321 97.5193ZM152.91 99.1858C152.91 98.4294 152.796 97.4338 152.787 97.3194L142.82 98.1355C142.891 98.9978 142.91 98.9655 142.91 99.1858H152.91ZM152.78 97.2467C152.641 95.804 152.596 94.3537 152.647 92.9052L142.653 92.5556C142.587 94.4416 142.645 96.3299 142.827 98.2082L152.78 97.2467ZM152.65 92.7304V92.2755H142.65V92.7304H152.65ZM148.091 97.256L148.544 97.2158L147.662 87.2548L147.209 87.295L148.091 97.256ZM148.622 97.2083C151.227 96.9365 153.844 97.6084 156.002 99.1058L161.703 90.8904C157.581 88.0298 152.573 86.7417 147.584 87.2623L148.622 97.2083ZM156.018 99.1174C156.222 99.2577 156.395 99.4419 156.523 99.6584L165.128 94.5644C164.262 93.1011 163.088 91.8431 161.686 90.8789L156.018 99.1174ZM156.523 99.6584C156.651 99.8748 156.731 100.118 156.757 100.37L166.705 99.3524C166.532 97.6614 165.994 96.0276 165.128 94.5644L156.523 99.6584ZM156.761 99.3146C156.809 98.8795 156.966 98.4623 157.22 98.1023L165.397 103.859C166.116 102.837 166.565 101.649 166.701 100.408L156.761 99.3146ZM157.22 98.1023C157.473 97.7422 157.815 97.4505 158.215 97.2564L162.582 106.253C163.709 105.706 164.677 104.881 165.397 103.859L157.22 98.1023ZM155.4 101.88C155.394 101.636 155.453 101.394 155.574 101.178L164.306 106.051C165.059 104.701 165.436 103.173 165.397 101.629L155.4 101.88ZM155.574 101.178C155.694 100.963 155.871 100.781 156.089 100.655L161.109 109.303C162.449 108.526 163.552 107.402 164.306 106.051L155.574 101.178ZM156.467 100.456C156.668 100.362 156.888 100.313 157.112 100.313L157.075 110.313C158.339 110.318 159.589 110.04 160.732 109.501L156.467 100.456ZM143.677 93.2021C143.654 94.8493 143.719 96.4966 143.871 98.1369L153.828 97.211C153.709 95.9251 153.658 94.6337 153.676 93.3424L143.677 93.2021ZM143.866 98.082C143.903 98.5298 143.934 98.9848 143.968 99.4814L153.945 98.8099C153.912 98.3164 153.876 97.7948 153.833 97.2659L143.866 98.082ZM143.966 99.4598C143.997 99.9432 144.04 100.488 144.125 101.007C144.205 101.497 144.376 102.333 144.857 103.201C146.076 105.406 148.323 105.982 148.331 105.985L151.674 96.5607C151.553 96.5175 151.561 96.5198 151.587 96.5301C151.622 96.5441 151.79 96.6111 152.01 96.7368C152.246 96.8718 152.552 97.0791 152.863 97.3839C153.179 97.6939 153.424 98.0305 153.607 98.3613C153.782 98.6768 153.876 98.9458 153.926 99.1122C153.974 99.2749 153.991 99.3803 153.993 99.3898C153.995 99.4021 153.989 99.3682 153.979 99.2646C153.969 99.1634 153.959 99.0242 153.946 98.8315L143.966 99.4598ZM148.475 106.034C148.712 106.11 148.936 106.221 149.141 106.364L154.862 98.162C153.84 97.449 152.717 96.8927 151.53 96.5119L148.475 106.034ZM149.147 106.368C150.474 107.291 152.098 108.174 153.776 108.72C155.175 109.175 157.864 109.817 160.432 108.539L155.98 99.5855C156.616 99.269 157.097 99.2886 157.155 99.2915C157.231 99.2952 157.143 99.2995 156.872 99.2111C156.32 99.0315 155.569 98.6536 154.857 98.1581L149.147 106.368ZM160.433 108.539C163.664 106.932 164.338 103.638 164.433 101.668L154.445 101.185C154.431 101.475 154.391 101.343 154.551 101.002C154.745 100.587 155.189 99.9787 155.979 99.5858L160.433 108.539ZM164.439 101.427V101.112H154.439V101.427H164.439ZM161.554 105.643L161.841 105.509L157.61 96.4481L157.324 96.5819L161.554 105.643ZM161.326 105.716C162.464 105.331 163.471 104.637 164.235 103.713L156.53 97.3388C156.948 96.8336 157.5 96.4528 158.125 96.2416L161.326 105.716ZM164.235 103.713C164.999 102.79 165.49 101.674 165.656 100.49L155.754 99.0994C155.844 98.4537 156.112 97.8439 156.53 97.3388L164.235 103.713ZM165.683 100.264C165.916 97.7899 164.683 95.7519 164.052 94.8328C163.273 93.6965 162.245 92.6133 161.204 91.8517L155.301 99.924C155.287 99.9135 155.362 99.9694 155.49 100.103C155.611 100.23 155.723 100.368 155.805 100.488C155.896 100.62 155.893 100.647 155.857 100.552C155.836 100.499 155.793 100.374 155.758 100.185C155.724 99.997 155.692 99.7004 155.727 99.3247L165.683 100.264ZM161.116 91.7888C157.378 89.1779 152.858 87.933 148.312 88.2655L149.041 98.2388C151.292 98.0742 153.533 98.6902 155.389 99.9869L161.116 91.7888ZM143.676 93.2522V93.2722H153.676V93.2522H143.676Z" fill="#FF6A6A" mask="url(#path-24-inside-9_957_852)"/>
<mask id="path-26-inside-10_957_852" fill="white">
<path fill-rule="evenodd" clip-rule="evenodd" d="M159.851 101.552C159.133 101.27 158.479 100.616 157.97 99.6716Z"/>
</mask>
<path d="M161.681 96.8992C162.066 97.0508 162.285 97.2425 162.368 97.3245C162.449 97.406 162.435 97.4177 162.372 97.3003L153.568 102.043C154.42 103.624 155.841 105.348 158.021 106.205L161.681 96.8992Z" fill="#FF6A6A" mask="url(#path-26-inside-10_957_852)"/>
<path d="M158.9 100.309C159.087 100.39 159.284 100.46 159.49 100.517C159.467 100.634 159.435 100.746 159.397 100.851C159.331 101.031 159.245 101.192 159.149 101.331C159.023 101.299 158.898 101.263 158.777 101.224C158.61 101.17 158.448 101.109 158.292 101.042C158.295 100.978 158.3 100.914 158.308 100.849C158.319 100.763 158.336 100.676 158.358 100.588C158.388 100.467 158.427 100.355 158.472 100.251C158.491 100.208 158.511 100.166 158.532 100.125C158.65 100.192 158.773 100.253 158.9 100.309Z" stroke="#FF6A6A" stroke-width="5"/>
<mask id="path-29-inside-11_957_852" fill="white">
<path fill-rule="evenodd" clip-rule="evenodd" d="M92.6877 3.76119C113.379 3.76119 132.777 6.71551 142.887 26.5545C151.965 48.7869 148.736 72.7671 150.122 96.2647C151.311 116.443 153.945 139.751 144.567 158.455C134.698 178.125 110.039 183.075 89.7205 182.351C73.7608 181.783 54.4876 176.586 45.4816 162.036C34.9137 144.969 39.9199 119.586 40.6845 100.595C41.593 78.1018 34.5804 55.5303 41.9917 33.5196C49.6774 10.6937 70.395 5.52205 92.6942 3.76119"/>
</mask>
<path d="M142.887 26.5545L147.516 24.6644L147.437 24.4706L147.342 24.2842L142.887 26.5545ZM150.122 96.2647L155.113 95.9705L155.113 95.9704L150.122 96.2647ZM144.567 158.455L149.036 160.698L149.036 160.697L144.567 158.455ZM89.7205 182.351L89.8986 177.354L89.8982 177.354L89.7205 182.351ZM45.4816 162.036L49.7331 159.404L49.7327 159.404L45.4816 162.036ZM40.6845 100.595L35.6886 100.393L35.6886 100.394L40.6845 100.595ZM41.9917 33.5196L37.2531 31.9241L41.9917 33.5196ZM92.6877 8.76119C113.26 8.76119 129.754 11.7971 138.432 28.8248L147.342 24.2842C135.799 1.63394 113.498 -1.23881 92.6877 -1.23881V8.76119ZM138.258 28.4445C142.482 38.7887 143.903 49.6824 144.394 61.1487C144.639 66.8905 144.649 72.6778 144.684 78.6147C144.718 84.5119 144.775 90.537 145.13 96.559L155.113 95.9704C154.775 90.2436 154.717 84.4596 154.683 78.557C154.65 72.6941 154.64 66.6911 154.384 60.7215C153.873 48.7653 152.37 36.5526 147.516 24.6644L138.258 28.4445ZM145.13 96.5589C145.737 106.849 146.665 117.36 146.31 127.742C145.957 138.064 144.335 147.762 140.097 156.214L149.036 160.697C154.177 150.445 155.927 139.136 156.304 128.084C156.68 117.091 155.696 105.858 155.113 95.9705L145.13 96.5589ZM140.098 156.213C135.891 164.597 128.462 170.047 119.357 173.35C110.205 176.671 99.6449 177.701 89.8986 177.354L89.5425 187.348C100.115 187.724 112.044 186.641 122.768 182.751C133.539 178.843 143.374 171.983 149.036 160.698L140.098 156.213ZM89.8982 177.354C74.3751 176.802 57.3669 171.737 49.7331 159.404L41.2301 164.667C51.6082 181.434 73.1465 186.765 89.5429 187.348L89.8982 177.354ZM49.7327 159.404C45.1928 152.072 43.8079 142.605 43.8333 132.049C43.8459 126.821 44.2002 121.491 44.6105 116.193C45.0156 110.961 45.4844 105.666 45.6805 100.796L35.6886 100.394C35.5023 105.02 35.0586 110.019 34.6403 115.421C34.2271 120.756 33.8469 126.4 33.8334 132.025C33.8065 143.175 35.2025 154.933 41.2306 164.668L49.7327 159.404ZM45.6805 100.797C46.1484 89.2101 44.5718 77.2805 43.8894 66.5588C43.1882 55.5409 43.3405 45.1824 46.7302 35.1152L37.2531 31.9241C33.2315 43.8675 33.1845 55.8001 33.9096 67.1939C34.6536 78.884 36.1291 89.4868 35.6886 100.393L45.6805 100.797ZM46.7302 35.1152C50.1114 25.0735 56.2289 19.0625 64.0596 15.2326C72.1133 11.2937 82.0925 9.61392 93.0878 8.74568L92.3006 -1.22329C80.9967 -0.330679 69.4676 1.45577 59.6662 6.24944C49.6419 11.1521 41.5577 19.1399 37.2531 31.9241L46.7302 35.1152Z" fill="#FF6A6A" mask="url(#path-29-inside-11_957_852)"/>
<path d="M150.127 96.2547L149.094 96.3145L149.096 96.3399L150.128 96.2769C150.128 96.2695 150.127 96.2621 150.127 96.2547ZM150.127 96.2547C149.757 89.864 149.716 83.324 149.684 77.0028L148.652 76.9428M150.127 96.2547L149.094 96.313C148.719 89.8945 148.685 83.3402 148.652 77.0055L148.652 76.9428M148.652 76.9428L149.683 76.9375C149.683 76.9283 149.683 76.9192 149.683 76.91C150.683 59.7115 148.383 42.4806 142.907 26.1546C142.895 26.1181 142.883 26.0815 142.87 26.045V26.0063V26.0057M148.652 76.9428C148.653 76.9336 148.653 76.9244 148.654 76.9153C148.655 76.8936 148.656 76.872 148.658 76.8503C149.639 59.7843 147.354 42.6871 141.924 26.4847L141.929 26.4825L142.476 26.2052L142.639 26.1228L142.793 26.045L142.87 26.0057M142.87 26.0057C132.557 5.63887 112.474 2.82275 92.3098 2.82089C92.3032 2.82089 92.2965 2.82089 92.2899 2.82089H92.2507L92.2683 3.33227V3.33231L92.2861 3.85158C92.2874 3.85148 92.2886 3.85138 92.2899 3.85128C92.2964 3.85077 92.3029 3.85025 92.3095 3.84973C111.981 3.85623 131.562 6.55141 141.679 26.0057H142.87ZM44.8139 162.582L44.7261 162.636L44.8139 162.582ZM44.8139 162.582L44.8156 162.581L44.8139 162.582Z" stroke="#FF6A6A" stroke-width="5"/>
<path d="M121.517 17.4228C124.419 19.0247 126.771 21.7906 127.765 26.0341C128.876 30.8093 127.763 34.4893 125.595 37.1513C123.369 39.8845 119.869 41.7309 115.985 42.3798C112.105 43.0281 108.062 42.4419 104.847 40.5897C101.726 38.7918 99.2671 35.7422 98.4346 31.1156C97.9828 22.6798 104.116 17.1862 111.306 15.9281C114.9 15.2993 118.561 15.7914 121.517 17.4228Z" stroke="#FF6A6A" stroke-width="5"/>
<mask id="path-33-inside-12_957_852" fill="white">
<path d="M112.846 45.1328C110.694 45.141 108.557 44.7819 106.521 44.0703C103.749 43.131 101.289 41.4157 99.4185 39.1185C97.5484 36.8213 96.3431 34.0339 95.9389 31.0714V31.019C95.6839 26.49 97.1531 22.0363 100.038 18.5943C102.922 15.1524 106.997 12.9906 111.405 12.5635C115.493 11.6946 119.75 12.5084 123.256 14.8292C126.762 17.1499 129.236 20.791 130.143 24.9655C130.893 27.6837 130.888 30.5627 130.126 33.2777C129.365 35.9928 127.879 38.436 125.835 40.332C122.214 43.4881 117.599 45.1935 112.846 45.1328ZM96.9055 30.9337C97.2899 33.7127 98.4234 36.3267 100.179 38.4817C101.934 40.6368 104.241 42.2474 106.841 43.1324C109.939 44.1966 113.251 44.4298 116.462 43.8098C119.672 43.1898 122.675 41.7373 125.182 39.5909C127.099 37.8097 128.491 35.5141 129.201 32.964C129.91 30.414 129.908 27.7113 129.196 25.1623C128.33 21.2344 125.989 17.8138 122.68 15.6411C119.371 13.4685 115.359 12.7186 111.514 13.5538C107.36 13.9574 103.519 15.992 100.796 19.2317C98.0726 22.4713 96.6786 26.6647 96.9055 30.9337Z"/>
</mask>
<path d="M112.846 45.1328L112.91 40.1332L112.868 40.1326L112.827 40.1328L112.846 45.1328ZM106.521 44.0703L108.171 39.3503L108.148 39.3424L108.125 39.3348L106.521 44.0703ZM95.9389 31.0714H90.9389V31.411L90.9848 31.7474L95.9389 31.0714ZM95.9389 31.019H100.939V30.8783L100.931 30.7379L95.9389 31.019ZM111.405 12.5635L111.887 17.5402L112.169 17.5129L112.445 17.4542L111.405 12.5635ZM130.143 24.9655L125.257 26.027L125.286 26.1623L125.323 26.2959L130.143 24.9655ZM125.835 40.332L129.12 44.1011L129.178 44.0503L129.235 43.9977L125.835 40.332ZM96.9055 30.9337L91.9126 31.1991L91.9238 31.4098L91.9527 31.6187L96.9055 30.9337ZM106.841 43.1324L108.465 38.4036L108.452 38.3992L106.841 43.1324ZM125.182 39.5909L128.433 43.389L128.511 43.3231L128.585 43.2541L125.182 39.5909ZM129.196 25.1623L124.313 26.2383L124.343 26.3744L124.38 26.5086L129.196 25.1623ZM111.514 13.5538L111.998 18.5304L112.289 18.502L112.576 18.4398L111.514 13.5538ZM112.827 40.1328C111.245 40.1388 109.672 39.8749 108.171 39.3503L104.871 48.7903C107.442 49.6889 110.144 50.1431 112.865 50.1327L112.827 40.1328ZM108.125 39.3348C106.256 38.7012 104.58 37.5387 103.296 35.9619L95.5409 42.2752C97.9974 45.2927 101.242 47.5607 104.916 48.8058L108.125 39.3348ZM103.296 35.9619C102.012 34.384 101.174 32.4568 100.893 30.3954L90.9848 31.7474C91.512 35.6109 93.0853 39.2586 95.5409 42.2752L103.296 35.9619ZM100.939 31.0714V31.019H90.9389V31.0714H100.939ZM100.931 30.7379C100.747 27.464 101.811 24.2625 103.87 21.8059L96.2054 15.3828C92.4952 19.81 90.6211 25.516 90.9468 31.3L100.931 30.7379ZM103.87 21.8059C105.925 19.3531 108.804 17.8389 111.887 17.5402L110.923 7.58677C105.19 8.14226 99.9188 10.9517 96.2054 15.3828L103.87 21.8059ZM112.445 17.4542C115.211 16.8661 118.1 17.4129 120.496 18.9986L126.015 10.6597C121.399 7.60393 115.774 6.52299 110.366 7.67275L112.445 17.4542ZM120.496 18.9986C122.896 20.5873 124.622 23.1033 125.257 26.027L135.029 23.904C133.85 18.4788 130.628 13.7125 126.015 10.6597L120.496 18.9986ZM125.323 26.2959C125.831 28.1369 125.827 30.0892 125.312 31.9279L134.941 34.6275C135.948 31.0362 135.955 27.2306 134.963 23.6351L125.323 26.2959ZM125.312 31.9279C124.797 33.7661 123.794 35.4046 122.434 36.6662L129.235 43.9977C131.963 41.4674 133.934 38.2195 134.941 34.6275L125.312 31.9279ZM122.549 36.5628C119.845 38.9201 116.42 40.1781 112.91 40.1332L112.782 50.1323C118.779 50.209 124.583 48.0561 129.12 44.1011L122.549 36.5628ZM91.9527 31.6187C92.4612 35.2959 93.9625 38.7671 96.3017 41.6393L104.055 35.3242C102.884 33.8862 102.118 32.1295 101.858 30.2487L91.9527 31.6187ZM96.3017 41.6393C98.6418 44.5124 101.73 46.6745 105.23 47.8657L108.452 38.3992C106.752 37.8203 105.226 36.7611 104.055 35.3242L96.3017 41.6393ZM105.217 47.8612C109.14 49.2089 113.339 49.5052 117.41 48.7191L115.514 38.9005C113.163 39.3544 110.738 39.1842 108.465 38.4037L105.217 47.8612ZM117.41 48.7191C121.48 47.9331 125.274 46.0938 128.433 43.389L121.93 35.7927C120.075 37.3808 117.865 38.4465 115.514 38.9005L117.41 48.7191ZM128.585 43.2541C131.187 40.8365 133.064 37.7336 134.018 34.3041L124.384 31.624C123.919 33.2946 123.011 34.7829 121.779 35.9276L128.585 43.2541ZM134.018 34.3041C134.972 30.8752 134.969 27.2435 134.011 23.8159L124.38 26.5086C124.847 28.1791 124.848 29.9528 124.384 31.624L134.018 34.3041ZM134.078 24.0862C132.937 18.9072 129.843 14.3627 125.424 11.4614L119.936 19.8208C122.135 21.2648 123.723 23.5615 124.313 26.2383L134.078 24.0862ZM125.424 11.4614C121 8.55707 115.619 7.54557 110.453 8.66774L112.576 18.4398C115.1 17.8915 117.741 18.3798 119.936 19.8208L125.424 11.4614ZM111.031 8.57722C105.554 9.10923 100.52 11.7891 96.9682 16.0145L104.623 22.4489C106.518 20.1949 109.165 18.8055 111.998 18.5304L111.031 8.57722ZM96.9682 16.0145C93.4197 20.2361 91.619 25.6778 91.9126 31.1991L101.898 30.6682C101.738 27.6517 102.725 24.7066 104.623 22.4489L96.9682 16.0145Z" fill="#FF6A6A" mask="url(#path-33-inside-12_957_852)"/>
<mask id="path-35-inside-13_957_852" fill="white">
<path fill-rule="evenodd" clip-rule="evenodd" d="M53.995 34.983C58.7547 53.9751 88.542 49.0901 87.4167 30.065C86.0716 7.25076 49.4357 11.6539 53.9885 34.983"/>
</mask>
<path d="M87.4167 30.065L82.4254 30.3593L82.4254 30.3603L87.4167 30.065ZM49.145 36.1985C52.3169 48.8551 63.9503 53.2302 73.679 51.7214C83.3519 50.2213 93.1651 42.571 92.408 29.7698L82.4254 30.3603C82.7936 36.5842 78.2758 40.889 72.1464 41.8396C66.0729 42.7815 60.4328 40.1031 58.845 33.7676L49.145 36.1985ZM92.4081 29.7707C91.984 22.5785 88.6834 17.1367 83.8094 13.8016C79.0804 10.5657 73.2305 9.54564 67.8315 10.2639C62.4286 10.9827 57.0238 13.503 53.2802 17.9401C49.4293 22.5045 47.6707 28.714 49.0811 35.9408L58.8959 34.0253C58.0299 29.5875 59.1435 26.4982 60.9233 24.3886C62.8105 22.1517 65.7952 20.6229 69.1503 20.1766C72.5092 19.7297 75.786 20.4285 78.1623 22.0545C80.3936 23.5813 82.1769 26.1444 82.4254 30.3593L92.4081 29.7707Z" fill="#FF6A6A" mask="url(#path-35-inside-13_957_852)"/>
<mask id="path-37-inside-14_957_852" fill="white">
<path d="M69.9172 47.0141C66.8112 47.0437 63.7465 46.3045 60.9989 44.8629C59.0375 43.8031 57.3238 42.342 55.9707 40.5758C54.6176 38.8095 53.6556 36.7781 53.1481 34.6153C52.3943 31.66 52.5098 28.5513 53.4808 25.6594C54.4518 22.7676 56.2374 20.2143 58.6251 18.3035C61.5059 16.1174 64.9152 14.7259 68.5089 14.2695C72.1027 13.813 75.7538 14.3077 79.0941 15.7037C81.813 16.8855 84.1334 18.8199 85.7791 21.2765C87.4248 23.7332 88.3266 26.6087 88.3772 29.5608C88.5314 33.8166 87.0449 37.9701 84.2219 41.1707C81.399 44.3713 77.4533 46.3768 73.1928 46.7765C72.1087 46.9398 71.0136 47.0192 69.9172 47.0141ZM54.1029 34.3843C55.1539 38.363 57.7195 41.7786 61.2565 43.908C64.7935 46.0374 69.0244 46.7136 73.0535 45.7933C77.0702 45.4253 80.7938 43.5437 83.4623 40.5335C86.1309 37.5234 87.5428 33.6123 87.4091 29.6004C87.3668 26.8242 86.5229 24.1188 84.978 21.8069C83.4331 19.4949 81.2525 17.6741 78.6963 16.5615C75.5209 15.233 72.0496 14.7617 68.6327 15.195C65.2158 15.6283 61.9742 16.9509 59.2351 19.0294C56.9913 20.8305 55.3147 23.2353 54.4049 25.9574C53.495 28.6796 53.3902 31.6046 54.1029 34.3843Z"/>
</mask>
<path d="M69.9172 47.0141L69.9407 42.0141L69.9051 42.014L69.8695 42.0143L69.9172 47.0141ZM60.9989 44.8629L58.622 49.2619L58.6489 49.2764L58.6759 49.2906L60.9989 44.8629ZM53.1481 34.6153L58.0159 33.4731L58.0049 33.4262L57.993 33.3796L53.1481 34.6153ZM58.6251 18.3035L55.6026 14.3205L55.5512 14.3595L55.501 14.3997L58.6251 18.3035ZM79.0941 15.7037L81.0874 11.1182L81.0549 11.104L81.0221 11.0904L79.0941 15.7037ZM88.3772 29.5608L83.3779 29.6463L83.3787 29.6941L83.3805 29.7419L88.3772 29.5608ZM73.1928 46.7765L72.7258 41.7984L72.5865 41.8114L72.4481 41.8323L73.1928 46.7765ZM54.1029 34.3843L49.2595 35.6261L49.2641 35.6437L49.2687 35.6613L54.1029 34.3843ZM73.0535 45.7933L72.5973 40.8142L72.2653 40.8446L71.9402 40.9189L73.0535 45.7933ZM87.4091 29.6004L82.4097 29.6765L82.4104 29.7217L82.4119 29.7669L87.4091 29.6004ZM78.6963 16.5615L80.6917 11.9769L80.659 11.9627L80.6261 11.9489L78.6963 16.5615ZM59.2351 19.0294L56.2126 15.0463L56.1583 15.0876L56.1051 15.1302L59.2351 19.0294ZM69.8695 42.0143C67.5879 42.036 65.3378 41.493 63.3218 40.4353L58.6759 49.2906C62.1553 51.116 66.0345 52.0513 69.9649 52.0138L69.8695 42.0143ZM63.3757 40.464C62.0337 39.7389 60.8631 38.7402 59.9398 37.535L52.0016 43.6165C53.7846 45.9439 56.0413 47.8674 58.622 49.2619L63.3757 40.464ZM59.9398 37.535C59.0166 36.3299 58.3614 34.9455 58.0159 33.4731L48.2803 35.7575C48.9498 38.6108 50.2185 41.2891 52.0016 43.6165L59.9398 37.535ZM57.993 33.3796C57.4772 31.3573 57.5561 29.2304 58.2208 27.251L48.7409 24.0679C47.4635 27.8723 47.3114 31.9626 48.3032 35.851L57.993 33.3796ZM58.2208 27.251C58.8854 25.2714 60.1089 23.52 61.7492 22.2074L55.501 14.3997C52.3659 16.9086 50.0182 20.2638 48.7409 24.0679L58.2208 27.251ZM61.6476 22.2866C63.8291 20.6311 66.413 19.5758 69.1389 19.2296L67.8789 9.30931C63.4174 9.87598 59.1828 11.6037 55.6026 14.3205L61.6476 22.2866ZM69.1389 19.2296C71.865 18.8834 74.634 19.2588 77.1661 20.317L81.0221 11.0904C76.8737 9.35664 72.3404 8.74264 67.8789 9.30931L69.1389 19.2296ZM77.1009 20.2892C78.9442 21.0905 80.5136 22.4003 81.6251 24.0594L89.9331 18.4937C87.7531 15.2395 84.6818 12.6806 81.0874 11.1182L77.1009 20.2892ZM81.6251 24.0594C82.7364 25.7182 83.3439 27.6575 83.3779 29.6463L93.3764 29.4752C93.3094 25.5599 92.1133 21.7482 89.9331 18.4937L81.6251 24.0594ZM83.3805 29.7419C83.4882 32.7151 82.4501 35.6208 80.4721 37.8634L87.9718 44.4781C91.6397 40.3195 93.5746 34.9181 93.3739 29.3797L83.3805 29.7419ZM80.4721 37.8634C78.4934 40.1067 75.723 41.5172 72.7258 41.7984L73.6598 51.7547C79.1835 51.2365 84.3045 48.636 87.9718 44.4781L80.4721 37.8634ZM72.4481 41.8323C71.6183 41.9573 70.78 42.0181 69.9407 42.0141L69.8937 52.014C71.2472 52.0204 72.5992 51.9223 73.9375 51.7208L72.4481 41.8323ZM49.2687 35.6613C50.6531 40.902 54.0305 45.3939 58.6776 48.1916L63.8354 39.6244C61.4085 38.1633 59.6547 35.8241 58.9371 33.1073L49.2687 35.6613ZM58.6776 48.1916C63.3239 50.9889 68.8784 51.8757 74.1669 50.6678L71.9402 40.9189C69.1704 41.5515 66.2631 41.086 63.8354 39.6244L58.6776 48.1916ZM73.5098 50.7725C78.7893 50.2887 83.6889 47.8152 87.2038 43.8504L79.7209 37.2167C77.8986 39.2722 75.3511 40.5618 72.5973 40.8142L73.5098 50.7725ZM87.2038 43.8504C90.7193 39.8849 92.5827 34.7279 92.4063 29.4338L82.4119 29.7669C82.5028 32.4967 81.5425 35.1619 79.7209 37.2167L87.2038 43.8504ZM92.4085 29.5242C92.3515 25.7836 91.2143 22.1403 89.1353 19.0289L80.8207 24.5848C81.8314 26.0973 82.3821 27.8648 82.4097 29.6765L92.4085 29.5242ZM89.1353 19.0289C87.0563 15.9178 84.1244 13.4709 80.6917 11.9769L76.7009 21.1461C78.3806 21.8772 79.8098 23.0721 80.8207 24.5848L89.1353 19.0289ZM80.6261 11.9489C76.6424 10.2823 72.2887 9.69131 68.0037 10.2347L69.2617 20.1552C71.8106 19.832 74.3995 20.1838 76.7665 21.1741L80.6261 11.9489ZM68.0037 10.2347C63.7187 10.7781 59.6513 12.437 56.2126 15.0463L62.2575 23.0125C64.297 21.4648 66.7129 20.4785 69.2617 20.1552L68.0037 10.2347ZM56.1051 15.1302C53.115 17.5305 50.8776 20.7378 49.6628 24.3724L59.147 27.5424C59.7519 25.7328 60.8676 24.1306 62.365 22.9285L56.1051 15.1302ZM49.6628 24.3724C48.4479 28.0073 48.3078 31.9138 49.2595 35.6261L58.9463 33.1426C58.4727 31.2954 58.5422 29.3519 59.147 27.5424L49.6628 24.3724Z" fill="#FF6A6A" mask="url(#path-37-inside-14_957_852)"/>
<path d="M95.6912 58.7648L98.0015 59.4633C98.1432 61.4994 98.1486 63.5428 98.0175 65.5802C97.983 65.5981 97.9431 65.6175 97.8968 65.6386C97.7104 65.7232 97.4954 65.8009 97.1587 65.9192C97.145 65.924 97.1311 65.9289 97.1169 65.9339C97.0395 65.961 96.9551 65.9907 96.8654 66.0228C96.6412 65.935 96.4309 65.8165 96.2411 65.6708C96.0049 65.4894 95.8063 65.2704 95.6524 65.0256C95.5572 62.9389 95.5702 60.8492 95.6912 58.7648Z" stroke="#FF6A6A" stroke-width="5"/>
<mask id="path-40-inside-15_957_852" fill="white">
<path d="M97.5441 68.6418H97.3937C96.4794 68.4988 95.6176 68.1269 94.8904 67.5616C94.1631 66.9963 93.5948 66.2565 93.2395 65.4127V65.3482V65.2771C93.0215 62.9928 93.0412 60.6925 93.2984 58.4122C93.3834 57.3595 93.4685 56.2745 93.5012 55.1831V54.5373L101.227 56.8751V57.2497C101.227 58.1668 101.306 59.1161 101.384 60.1171C101.625 62.1327 101.607 64.17 101.332 66.1813V66.2587L101.293 66.3298C100.995 66.8148 100.602 67.2361 100.137 67.5688C99.6717 67.9015 99.1438 68.139 98.5843 68.2672C98.2768 68.377 97.989 68.4739 97.7077 68.603L97.5441 68.6418ZM94.2142 65.0834C94.5013 65.7249 94.9417 66.288 95.4978 66.7245C96.0539 67.1609 96.7089 67.4576 97.4067 67.5891C97.675 67.4793 97.9497 67.3825 98.2114 67.2856C99.063 67.1111 99.8159 66.6241 100.318 65.9229C100.552 64.0205 100.552 62.0971 100.318 60.1946C100.252 59.3098 100.187 58.4638 100.167 57.6114L94.4432 55.8806C94.3974 56.7589 94.332 57.6307 94.2666 58.4638C94.0174 60.6624 93.9955 62.8804 94.2012 65.0834H94.2142Z"/>
</mask>
<path d="M97.5441 68.6418V73.6418H98.1283L98.6968 73.5071L97.5441 68.6418ZM97.3937 68.6418L96.6209 73.5817L97.005 73.6418H97.3937V68.6418ZM93.2395 65.4127H88.2395V66.4224L88.6313 67.353L93.2395 65.4127ZM93.2395 65.2771H98.2395V65.0391L98.2169 64.8021L93.2395 65.2771ZM93.2984 58.4122L98.2669 58.9724L98.2758 58.8937L98.2821 58.8148L93.2984 58.4122ZM93.5012 55.1831L98.4989 55.3329L98.5012 55.258V55.1831H93.5012ZM93.5012 54.5373L94.9493 49.7516L88.5012 47.8005V54.5373H93.5012ZM101.227 56.8751H106.227V53.1642L102.675 52.0894L101.227 56.8751ZM101.384 60.1171L96.3996 60.508L96.4075 60.6087L96.4194 60.709L101.384 60.1171ZM101.332 66.1813L96.378 65.5038L96.3319 65.841V66.1813H101.332ZM101.332 66.2587L105.708 68.6769L106.332 67.5483V66.2587H101.332ZM101.293 66.3298L105.554 68.9452L105.614 68.8479L105.669 68.748L101.293 66.3298ZM98.5843 68.2672L97.4676 63.3935L97.1804 63.4593L96.9029 63.5584L98.5843 68.2672ZM97.7077 68.603L98.8604 73.4683L99.3432 73.354L99.794 73.147L97.7077 68.603ZM94.2142 65.0834L98.7782 63.0413L97.4548 60.0834H94.2142V65.0834ZM97.4067 67.5891L96.481 72.5027L97.9332 72.7763L99.3008 72.2165L97.4067 67.5891ZM98.2114 67.2856L97.2076 62.3874L96.8336 62.464L96.4756 62.5966L98.2114 67.2856ZM100.318 65.9229L104.383 68.8339L105.125 67.7977L105.281 66.5327L100.318 65.9229ZM100.318 60.1946L95.3315 60.5633L95.3405 60.6841L95.3552 60.8044L100.318 60.1946ZM100.167 57.6114L105.166 57.4963L105.083 53.874L101.615 52.8253L100.167 57.6114ZM94.4432 55.8806L95.8903 51.0946L89.7823 49.2478L89.45 55.6203L94.4432 55.8806ZM94.2666 58.4638L99.2348 59.0269L99.2445 58.9412L99.2512 58.8553L94.2666 58.4638ZM94.2012 65.0834L89.2228 65.5482L89.6462 70.0834H94.2012V65.0834ZM97.5441 63.6418H97.3937V73.6418H97.5441V63.6418ZM98.1664 63.7019C98.0851 63.6891 98.0141 63.6568 97.9589 63.6139L91.8218 71.5093C93.2211 72.597 94.8738 73.3084 96.6209 73.5817L98.1664 63.7019ZM97.9589 63.6139C97.9041 63.5714 97.8682 63.5211 97.8477 63.4725L88.6313 67.353C89.3213 68.9919 90.4221 70.4213 91.8218 71.5093L97.9589 63.6139ZM98.2395 65.4127V65.3482H88.2395V65.4127H98.2395ZM98.2395 65.3482V65.2771H88.2395V65.3482H98.2395ZM98.2169 64.8021C98.0318 62.8623 98.0485 60.9089 98.2669 58.9724L88.3299 57.8519C88.0339 60.4761 88.0112 63.1233 88.2621 65.7521L98.2169 64.8021ZM98.2821 58.8148C98.3665 57.7702 98.4619 56.5674 98.4989 55.3329L88.5034 55.0333C88.475 55.9817 88.4003 56.9488 88.3146 58.0095L98.2821 58.8148ZM98.5012 55.1831V54.5373H88.5012V55.1831H98.5012ZM92.0531 59.323L99.7792 61.6608L102.675 52.0894L94.9493 49.7516L92.0531 59.323ZM96.2273 56.8751V57.2497H106.227V56.8751H96.2273ZM96.2273 57.2497C96.2273 58.4042 96.326 59.5695 96.3996 60.508L106.369 59.7262C106.286 58.6627 106.227 57.9294 106.227 57.2497H96.2273ZM96.4194 60.709C96.6094 62.3027 96.5955 63.9135 96.378 65.5038L106.286 66.8587C106.618 64.4266 106.64 61.9626 106.349 59.5252L96.4194 60.709ZM96.3319 66.1813V66.2587H106.332V66.1813H96.3319ZM96.9556 63.8406L96.9163 63.9116L105.669 68.748L105.708 68.6769L96.9556 63.8406ZM97.0312 63.7144C97.0847 63.6273 97.1526 63.556 97.2279 63.5022L103.046 71.6354C104.051 70.9161 104.905 70.0023 105.554 68.9452L97.0312 63.7144ZM97.2279 63.5022C97.303 63.4484 97.3847 63.4125 97.4676 63.3935L99.701 73.1409C100.903 72.8655 102.041 72.3546 103.046 71.6354L97.2279 63.5022ZM96.9029 63.5584C96.7211 63.6233 96.1564 63.8134 95.6213 64.0591L99.794 73.147C99.7806 73.1531 99.7971 73.1447 99.8777 73.1148C99.918 73.0998 99.966 73.0825 100.033 73.0588C100.08 73.0418 100.192 73.0022 100.266 72.976L96.9029 63.5584ZM96.5549 63.7377L96.3914 63.7765L98.6968 73.5071L98.8604 73.4683L96.5549 63.7377ZM89.6502 67.1254C90.2708 68.5123 91.22 69.7231 92.4107 70.6577L98.5849 62.7913C98.6634 62.853 98.7318 62.9374 98.7782 63.0413L89.6502 67.1254ZM92.4107 70.6577C93.601 71.592 94.9982 72.2233 96.481 72.5027L98.3325 62.6756C98.4197 62.692 98.5067 62.7299 98.5849 62.7913L92.4107 70.6577ZM99.3008 72.2165C99.4643 72.1496 99.5875 72.1078 99.9472 71.9746L96.4756 62.5966C96.312 62.6571 95.8856 62.8091 95.5127 62.9618L99.3008 72.2165ZM99.2152 72.1838C101.29 71.7586 103.141 70.5687 104.383 68.8339L96.2526 63.012C96.4907 62.6795 96.8359 62.4636 97.2076 62.3874L99.2152 72.1838ZM105.281 66.5327C105.564 64.2252 105.564 61.8923 105.281 59.5848L95.3552 60.8044C95.5392 62.3019 95.5392 63.8157 95.3552 65.3131L105.281 66.5327ZM105.304 59.8259C105.236 58.9021 105.182 58.1952 105.166 57.4963L95.1688 57.7264C95.1919 58.7325 95.269 59.7176 95.3315 60.5633L105.304 59.8259ZM101.615 52.8253L95.8903 51.0946L92.9961 60.6666L98.7204 62.3974L101.615 52.8253ZM89.45 55.6203C89.4078 56.4291 89.3468 57.246 89.2819 58.0724L99.2512 58.8553C99.3172 58.0155 99.387 57.0887 99.4364 56.1409L89.45 55.6203ZM89.2984 57.9007C89.0105 60.4407 88.9852 63.0031 89.2228 65.5482L99.1795 64.6186C99.0058 62.7577 99.0243 60.8842 99.2348 59.0269L89.2984 57.9007ZM94.2012 70.0834H94.2142V60.0834H94.2012V70.0834Z" fill="#FF6A6A" mask="url(#path-40-inside-15_957_852)"/>
<path d="M65.2015 31.9701C65.2015 33.9145 63.805 35.1119 62.5299 35.1119C61.2547 35.1119 59.8582 33.9145 59.8582 31.9701C59.8582 30.0258 61.2547 28.8284 62.5299 28.8284C63.805 28.8284 65.2015 30.0258 65.2015 31.9701Z" fill="#FF6A6A" stroke="#FF6A6A" stroke-width="5"/>
<path d="M107.515 30.0896C107.515 32.0339 106.118 33.2313 104.843 33.2313C103.568 33.2313 102.172 32.0339 102.172 30.0896C102.172 28.1452 103.568 26.9478 104.843 26.9478C106.118 26.9478 107.515 28.1452 107.515 30.0896Z" fill="#FF6A6A" stroke="#FF6A6A" stroke-width="5"/>
<path d="M90.3422 57.9166C90.2461 59.9639 90.235 62.0153 90.3091 64.0646C89.7867 64.725 89.4222 65.0048 89.2318 65.1219C89.1524 65.0259 89.0423 64.8652 88.9086 64.6029C88.4944 63.7904 88.1714 62.525 88.088 61.0939C88.0342 60.1729 88.0858 59.2872 88.2247 58.5181L90.3422 57.9166ZM89.3728 65.2523C89.3724 65.2542 89.3611 65.2494 89.3398 65.2326C89.3625 65.242 89.3732 65.2505 89.3728 65.2523Z" stroke="#FF6A6A" stroke-width="5"/>
<mask id="path-45-inside-16_957_852" fill="white">
<path d="M89.1742 68.6418C88.6485 68.6392 88.1327 68.4998 87.6792 68.2375C86.2194 66.7801 85.2272 64.9314 84.826 62.9219C84.4249 60.9123 84.6326 58.8309 85.4234 56.937L85.5226 56.7022L94.0299 54.5373V55.1894C93.9968 56.2979 93.9042 57.4065 93.8182 58.4498C93.5612 60.6825 93.539 62.9355 93.752 65.1727V65.3814L93.6263 65.5509C91.8733 67.9049 90.3584 68.6418 89.1742 68.6418ZM86.29 57.5564C85.6589 59.201 85.5029 60.9859 85.8392 62.7126C86.1755 64.4394 86.9911 66.0404 88.1952 67.3376C89.7696 68.2245 91.5028 66.6856 92.7002 65.1532C92.5092 62.9147 92.538 60.6632 92.7862 58.4302C92.8524 57.589 92.9185 56.7283 92.9648 55.8741L86.29 57.5564Z"/>
</mask>
<path d="M89.1742 68.6418L89.15 73.6417L89.1621 73.6418H89.1742V68.6418ZM87.6792 68.2375L84.1464 71.7758L84.6095 72.2382L85.1761 72.5658L87.6792 68.2375ZM85.4234 56.937L80.8179 54.9902L80.8136 55.0004L80.8093 55.0106L85.4234 56.937ZM85.5226 56.7022L84.2895 51.8566L81.8837 52.4689L80.9171 54.7554L85.5226 56.7022ZM94.0299 54.5373H99.0299V48.1056L92.7968 49.6917L94.0299 54.5373ZM94.0299 55.1894L99.0277 55.3385L99.0299 55.264V55.1894H94.0299ZM93.8182 58.4498L98.7854 59.0216L98.7946 58.9412L98.8013 58.8605L93.8182 58.4498ZM93.752 65.1727H98.752V64.9352L98.7295 64.6988L93.752 65.1727ZM93.752 65.3814L97.7686 68.3591L98.752 67.0327V65.3814H93.752ZM93.6263 65.5509L97.6365 68.5374L97.6429 68.5287L93.6263 65.5509ZM86.29 57.5564L85.068 52.7081L82.5516 53.3423L81.6218 55.7651L86.29 57.5564ZM88.1952 67.3376L84.5305 70.7391L85.0614 71.3111L85.7413 71.6941L88.1952 67.3376ZM92.7002 65.1532L96.6401 68.2317L97.8491 66.6845L97.6821 64.728L92.7002 65.1532ZM92.7862 58.4302L97.7556 58.9826L97.7645 58.9026L97.7708 58.8222L92.7862 58.4302ZM92.9648 55.8741L97.9575 56.1447L98.3249 49.3667L91.7428 51.0257L92.9648 55.8741ZM89.1985 63.6418C89.54 63.6435 89.8792 63.7339 90.1823 63.9092L85.1761 72.5658C86.3862 73.2657 87.7569 73.635 89.15 73.6417L89.1985 63.6418ZM91.2119 64.6992C90.4472 63.9357 89.9355 62.9758 89.7293 61.9431L79.9228 63.9006C80.5189 66.8869 81.9917 69.6245 84.1464 71.7758L91.2119 64.6992ZM89.7293 61.9431C89.5232 60.9108 89.6293 59.8408 90.0374 58.8633L80.8093 55.0106C79.636 57.821 79.3266 60.9139 79.9228 63.9006L89.7293 61.9431ZM90.0288 58.8837L90.128 58.649L80.9171 54.7554L80.8179 54.9902L90.0288 58.8837ZM86.7557 61.5478L95.263 59.3829L92.7968 49.6917L84.2895 51.8566L86.7557 61.5478ZM89.0299 54.5373V55.1894H99.0299V54.5373H89.0299ZM89.0321 55.0403C89.0036 55.9947 88.9232 56.9699 88.8351 58.039L98.8013 58.8605C98.8852 57.843 98.99 56.6012 99.0277 55.3385L89.0321 55.0403ZM88.851 57.878C88.554 60.458 88.5284 63.0614 88.7746 65.6467L98.7295 64.6988C98.5496 62.8095 98.5683 60.9071 98.7854 59.0216L88.851 57.878ZM88.752 65.1727V65.3814H98.752V65.1727H88.752ZM89.7354 62.4036L89.6098 62.5732L97.6429 68.5287L97.7686 68.3591L89.7354 62.4036ZM89.6162 62.5645C88.9853 63.4117 88.5872 63.7065 88.4873 63.7706C88.4255 63.8102 88.6744 63.6418 89.1742 63.6418V73.6418C92.6383 73.6418 95.4558 71.4655 97.6365 68.5373L89.6162 62.5645ZM81.6218 55.7651C80.6554 58.2837 80.4156 61.0205 80.9314 63.6686L90.747 61.7567C90.5901 60.9513 90.6624 60.1183 90.9581 59.3477L81.6218 55.7651ZM80.9314 63.6686C81.4472 66.3164 82.6962 68.7629 84.5305 70.7391L91.8599 63.9361C91.2859 63.3178 90.9039 62.5624 90.747 61.7567L80.9314 63.6686ZM85.7413 71.6941C88.6762 73.3472 91.5118 72.4248 93.1517 71.446C94.7092 70.5163 95.8923 69.1886 96.6401 68.2317L88.7603 62.0746C88.5655 62.324 88.3827 62.5293 88.2255 62.6823C88.0598 62.8435 87.989 62.8816 88.0265 62.8592C88.0573 62.8408 88.3461 62.6702 88.8577 62.6149C89.4453 62.5514 90.0941 62.6686 90.649 62.9812L85.7413 71.6941ZM97.6821 64.728C97.5188 62.815 97.5434 60.891 97.7556 58.9826L87.8168 57.8778C87.5325 60.4355 87.4995 63.0143 87.7183 65.5783L97.6821 64.728ZM97.7708 58.8222C97.8368 57.9825 97.9075 57.0666 97.9575 56.1447L87.9721 55.6034C87.9295 56.39 87.8679 57.1956 87.8016 58.0382L97.7708 58.8222ZM91.7428 51.0257L85.068 52.7081L87.512 62.4048L94.1868 60.7224L91.7428 51.0257Z" fill="#FF6A6A" mask="url(#path-45-inside-16_957_852)"/>
<path d="M106.016 56.0346L106.016 56.0348C105.232 56.8792 104.515 57.1953 103.841 57.2761C103.129 57.3615 102.345 57.1989 101.408 56.8667C100.943 56.7021 100.466 56.5055 99.9545 56.2925C99.9162 56.2766 99.8778 56.2605 99.8391 56.2444C99.369 56.0484 98.8712 55.841 98.3629 55.6512C97.2775 55.2459 96.0739 54.8931 94.7765 54.8583C93.5623 54.7118 92.2544 55.0216 91.0514 55.392C90.5156 55.5569 89.9686 55.7448 89.4365 55.9275C89.3501 55.9572 89.264 55.9868 89.1785 56.0161C88.558 56.2286 87.9571 56.4302 87.3712 56.5954C86.1787 56.9317 85.1708 57.079 84.3417 56.9179C83.5931 56.7724 82.9035 56.3594 82.3246 55.3376C81.9792 54.5443 81.8252 53.6819 81.8747 52.819C81.9252 51.9414 82.1848 51.0879 82.6327 50.329C83.0807 49.57 83.7041 48.9271 84.4522 48.4537C85.1931 47.9848 86.035 47.6957 86.9097 47.61L100.208 47.0827C102.381 48.0184 104.718 49.4573 106.055 51.0919C106.737 51.925 107.099 52.7359 107.132 53.5022C107.163 54.2398 106.896 55.0864 106.016 56.0346Z" stroke="#FF6A6A" stroke-width="2"/>
<mask id="path-48-inside-17_957_852" fill="white">
<path d="M103.031 58.2985C101.567 58.1845 100.139 57.7895 98.8268 57.1354C97.413 56.4395 95.8801 56.0119 94.3075 55.8749H94.2484C92.639 55.8759 91.0478 56.2125 89.5783 56.8625C86.3577 57.9671 82.7043 59.2147 80.6578 55.563C80.1618 54.6436 79.91 53.6144 79.9261 52.5721C79.9421 51.5298 80.2255 50.5086 80.7496 49.6047C81.3019 48.5399 82.1112 47.6269 83.1056 46.9467C84.1001 46.2666 85.2488 45.8404 86.4496 45.7061L100.073 45.1343L100.178 45.1798C103.569 46.5963 107.432 49.1888 108.095 52.2167C108.184 52.9479 108.122 53.6893 107.912 54.3959C107.703 55.1026 107.351 55.7597 106.877 56.3273C106.404 56.8949 105.819 57.3612 105.157 57.6978C104.496 58.0345 103.773 58.2344 103.031 58.2855V58.2985ZM94.3534 54.8808C96.0486 55.0185 97.7021 55.4726 99.2269 56.2193C101.805 57.2914 103.818 58.1361 105.924 55.8944C106.394 55.4656 106.747 54.9266 106.951 54.327C107.155 53.7274 107.203 53.0866 107.091 52.4636C106.521 49.8646 102.88 47.467 99.8762 46.1999L86.5217 46.7262C85.4966 46.8541 84.5181 47.2266 83.6703 47.8117C82.8226 48.3969 82.1309 49.1771 81.6548 50.0855C81.2135 50.8399 80.973 51.693 80.9558 52.5648C80.9386 53.4365 81.1453 54.2983 81.5564 55.0692C83.1831 57.9866 86.1478 56.9795 89.2307 55.9139C90.8426 55.2061 92.5904 54.8536 94.3534 54.8808Z"/>
</mask>
<path d="M103.031 58.2985L102.643 63.2834L108.031 63.7028V58.2985H103.031ZM98.8268 57.1354L101.057 52.6606L101.046 52.655L101.035 52.6495L98.8268 57.1354ZM94.3075 55.8749L94.7416 50.8938L94.5249 50.8749H94.3075V55.8749ZM94.2484 55.8749L94.2484 50.8749L94.2452 50.8749L94.2484 55.8749ZM89.5783 56.8625L91.2004 61.5921L91.4041 61.5222L91.6011 61.4351L89.5783 56.8625ZM80.6578 55.563L76.2573 57.9369L76.2764 57.9723L76.296 58.0074L80.6578 55.563ZM80.7496 49.6047L85.0752 52.1125L85.1341 52.011L85.1881 51.9068L80.7496 49.6047ZM86.4496 45.7061L86.2399 40.7105L86.0664 40.7178L85.8939 40.7371L86.4496 45.7061ZM100.073 45.1343L102.061 40.5467L101.009 40.0906L99.8634 40.1387L100.073 45.1343ZM100.178 45.1798L98.1896 49.7674L98.2201 49.7807L98.2508 49.7935L100.178 45.1798ZM108.095 52.2167L113.058 51.613L113.03 51.3787L112.979 51.1481L108.095 52.2167ZM103.031 58.2855L102.688 53.2973L98.0312 53.6181V58.2855H103.031ZM94.3534 54.8808L94.7583 49.8972L94.5946 49.8839L94.4305 49.8814L94.3534 54.8808ZM99.2269 56.2193L97.028 60.7098L97.1655 60.7771L97.3068 60.8359L99.2269 56.2193ZM105.924 55.8944L102.553 52.2017L102.411 52.3312L102.279 52.4713L105.924 55.8944ZM107.091 52.4636L112.013 51.5807L111.996 51.4857L111.975 51.3914L107.091 52.4636ZM99.8762 46.1999L101.819 41.5929L100.793 41.1599L99.6793 41.2038L99.8762 46.1999ZM86.5217 46.7262L86.3248 41.7301L86.1132 41.7385L85.903 41.7647L86.5217 46.7262ZM81.6548 50.0855L85.9708 52.6099L86.0294 52.5096L86.0833 52.4068L81.6548 50.0855ZM81.5564 55.0692L77.1446 57.422L77.1666 57.4633L77.1894 57.5041L81.5564 55.0692ZM89.2307 55.9139L90.8641 60.6395L91.0555 60.5734L91.2409 60.492L89.2307 55.9139ZM103.419 53.3136C102.595 53.2494 101.793 53.0271 101.057 52.6606L96.5961 61.6103C98.485 62.5518 100.539 63.1196 102.643 63.2834L103.419 53.3136ZM101.035 52.6495C99.0646 51.6795 96.93 51.0845 94.7416 50.8938L93.8734 60.856C94.8302 60.9394 95.7614 61.1994 96.6186 61.6214L101.035 52.6495ZM94.3075 50.8749H94.2484V60.8749H94.3075V50.8749ZM94.2452 50.8749C91.9413 50.8764 89.6622 51.358 87.5555 52.29L91.6011 61.4351C92.4335 61.0669 93.3368 60.8755 94.2517 60.8749L94.2452 50.8749ZM87.9561 52.133C87.1204 52.4196 86.4676 52.6406 85.8548 52.8C85.2441 52.9589 84.8852 52.9972 84.6984 52.9964C84.5482 52.9958 84.6751 52.9712 84.8961 53.0944C85.1366 53.2284 85.1466 53.3453 85.0195 53.1186L76.296 58.0074C77.1922 59.6065 78.4263 60.9369 80.0281 61.8295C81.6103 62.7112 83.2356 62.9904 84.6571 62.9963C87.2375 63.007 89.8029 62.0714 91.2004 61.5921L87.9561 52.133ZM85.0583 53.1891C84.9673 53.0204 84.9226 52.8348 84.9255 52.6491L74.9267 52.495C74.8974 54.394 75.3563 56.2669 76.2573 57.9369L85.0583 53.1891ZM84.9255 52.6491C84.9283 52.4635 84.9787 52.2789 85.0752 52.1125L76.424 47.0969C75.4723 48.7383 74.9559 50.5961 74.9267 52.495L84.9255 52.6491ZM85.1881 51.9068C85.3588 51.5777 85.6117 51.2904 85.9284 51.0737L80.2829 42.8197C78.6108 43.9634 77.245 45.5021 76.3111 47.3025L85.1881 51.9068ZM85.9284 51.0737C86.2453 50.8569 86.6152 50.7188 87.0052 50.6751L85.8939 40.7371C83.8824 40.962 81.9548 41.6762 80.2829 42.8197L85.9284 51.0737ZM86.6592 50.7017L100.283 50.1299L99.8634 40.1387L86.2399 40.7105L86.6592 50.7017ZM98.0846 49.722L98.1896 49.7674L102.166 40.5922L102.061 40.5467L98.0846 49.722ZM98.2508 49.7935C99.6164 50.3639 100.983 51.1382 101.995 51.9652C103.108 52.8744 103.231 53.3806 103.21 53.2854L112.979 51.1481C112.296 48.0249 110.157 45.721 108.324 44.2228C106.391 42.6424 104.131 41.4122 102.105 40.5661L98.2508 49.7935ZM103.132 52.8205C103.138 52.8721 103.134 52.9248 103.118 52.9759L112.707 55.8159C113.11 54.4538 113.23 53.0236 113.058 51.613L103.132 52.8205ZM103.118 52.9759C103.103 53.0272 103.077 53.0778 103.038 53.124L110.717 59.5306C111.625 58.4415 112.303 57.1779 112.707 55.8159L103.118 52.9759ZM103.038 53.124C103 53.1702 102.949 53.2113 102.889 53.2421L107.426 62.1536C108.688 61.5112 109.808 60.6196 110.717 59.5306L103.038 53.124ZM102.889 53.2421C102.828 53.273 102.76 53.2924 102.688 53.2973L103.375 63.2737C104.786 63.1765 106.164 62.7959 107.426 62.1536L102.889 53.2421ZM98.0312 58.2855V58.2985H108.031V58.2855H98.0312ZM93.9485 59.8643C95.0212 59.9515 96.0662 60.2388 97.028 60.7098L101.426 51.7287C99.3381 50.7065 97.0759 50.0855 94.7583 49.8972L93.9485 59.8643ZM97.3068 60.8359C98.351 61.2702 100.347 62.1649 102.455 62.2906C105.148 62.4513 107.587 61.4273 109.568 59.3175L102.279 52.4713C102.136 52.6243 102.178 52.5309 102.425 52.4277C102.693 52.316 102.938 52.3017 103.05 52.3084C103.111 52.312 103.013 52.3151 102.647 52.1931C102.267 52.0663 101.833 51.888 101.147 51.6026L97.3068 60.8359ZM109.295 59.5871C110.384 58.5927 111.207 57.3385 111.684 55.9379L102.217 52.7161C102.286 52.5146 102.403 52.3385 102.553 52.2017L109.295 59.5871ZM111.684 55.9379C112.161 54.5369 112.274 53.038 112.013 51.5807L102.17 53.3466C102.132 53.1352 102.149 52.9179 102.217 52.7161L111.684 55.9379ZM111.975 51.3914C111.316 48.389 109.151 46.2296 107.515 44.9239C105.725 43.4956 103.644 42.3626 101.819 41.5929L97.9332 50.8069C99.1124 51.3043 100.354 52.0037 101.278 52.7407C101.734 53.1043 102.022 53.4055 102.18 53.6119C102.345 53.8271 102.266 53.8029 102.208 53.5359L111.975 51.3914ZM99.6793 41.2038L86.3248 41.7301L86.7186 51.7224L100.073 51.1961L99.6793 41.2038ZM85.903 41.7647C84.0825 41.9917 82.3415 42.6535 80.8301 43.6967L86.5106 51.9267C86.6946 51.7996 86.9107 51.7165 87.1404 51.6878L85.903 41.7647ZM80.8301 43.6967C79.3184 44.7401 78.0803 46.1348 77.2263 47.7643L86.0833 52.4068C86.1815 52.2194 86.3268 52.0536 86.5106 51.9267L80.8301 43.6967ZM77.3388 47.5612C76.4676 49.0507 75.9909 50.7386 75.9568 52.4661L85.9548 52.6635C85.9552 52.6475 85.9595 52.6291 85.9708 52.6099L77.3388 47.5612ZM75.9568 52.4661C75.9227 54.1936 76.3324 55.8991 77.1446 57.422L85.9682 52.7164C85.9581 52.6974 85.9545 52.6794 85.9548 52.6635L75.9568 52.4661ZM77.1894 57.5041C77.9866 58.934 79.1187 60.1651 80.6352 60.9828C82.1246 61.7859 83.6395 62.0042 84.9238 61.9846C87.2181 61.9496 89.5497 61.0939 90.8641 60.6395L87.5972 51.1882C86.798 51.4645 86.199 51.6683 85.6581 51.8141C85.1153 51.9605 84.8528 51.9845 84.7711 51.9858C84.7256 51.9865 85.0016 51.9761 85.3813 52.1809C85.788 52.4001 85.9395 52.6631 85.9234 52.6342L77.1894 57.5041ZM91.2409 60.492C92.1943 60.0733 93.2302 59.864 94.2763 59.8802L94.4305 49.8814C91.9507 49.8431 89.4908 50.3389 87.2204 51.3358L91.2409 60.492Z" fill="#FF6A6A" mask="url(#path-48-inside-17_957_852)"/>
<path d="M89.0127 46.1981L89.009 46.1691C89.0351 45.3798 89.3849 44.7659 90.0463 44.2376C90.8386 43.6049 92.0691 43.1312 93.5073 42.9816C94.9383 42.8327 96.3374 43.0309 97.3766 43.4828C98.4035 43.9294 98.8687 44.511 99.0214 45.077C99.0773 45.2841 99.0453 45.3633 99.0195 45.4193C98.9732 45.5197 98.8306 45.7344 98.4448 46.0069C97.6398 46.5757 96.2436 47.0621 94.5638 47.2525C92.9028 47.4408 91.295 47.3015 90.1744 46.922C89.6199 46.7342 89.2983 46.5262 89.1384 46.3768C89.0164 46.2629 89.0136 46.2132 89.0128 46.2002C89.0128 46.1993 89.0127 46.1986 89.0127 46.1981Z" fill="#FF6A6A" stroke="#FF6A6A" stroke-width="5"/>
</svg>
