<svg width="160" height="187" viewBox="0 0 160 187" fill="none" xmlns="http://www.w3.org/2000/svg">
    <g clip-path="url(#clip0_14_1910)">
    <path d="M80.5171 183.575L15.738 165.028L2.70931 2.81719L157.127 3.14069L143.349 165.041L80.5171 183.575Z" stroke="#FF6A6A" stroke-width="5"/>
    <path d="M78.2316 131.717L78.9395 129.319L78.2316 131.717C78.8567 131.902 79.5209 131.908 80.1495 131.735L101.596 125.846L100.934 123.435L101.596 125.846C102.989 125.464 104.003 124.266 104.151 122.83L106.708 98.0129C106.921 95.9489 105.301 94.1542 103.226 94.1542H36.7345L31.5883 36.7879H127.377L125.971 52.1302H52.0091C49.9417 52.1302 48.3247 53.9127 48.5256 55.9703L50.4148 75.3172C50.5899 77.1099 52.097 78.4771 53.8983 78.4771H123.655L118.453 137.299L79.2142 148.373L40.3056 137.304L37.9375 109.324H52.9789L53.9576 122.196C54.0677 123.646 55.0623 124.876 56.4563 125.288L78.2316 131.717Z" stroke="#FF6A6A" stroke-width="5"/>
    </g>
    <defs>
    <clipPath id="clip0_14_1910">
    <rect width="159.849" height="186.49" fill="white"/>
    </clipPath>
    </defs>
    </svg>
    