<svg width="178" height="187" viewBox="0 0 178 187" fill="none" xmlns="http://www.w3.org/2000/svg">
    <g clip-path="url(#clip0_14_1920)">
    <path d="M161.096 142.315L161.099 142.332L161.102 142.349C162.277 149.234 160.811 153.635 160.636 154.161L160.636 154.162L160.62 154.209L160.606 154.258C158.019 163.55 149.472 168.577 139.574 169.576C129.664 170.577 119.1 167.435 113.192 161.175C112.799 160.708 112.431 160.278 112.087 159.875C110.417 157.922 109.279 156.591 108.243 154.645C113.043 151.745 113.928 151.209 118.517 148.421C120.034 150.676 121.609 152.579 123.449 154.109C125.758 156.029 128.396 157.289 131.683 158.007L131.769 158.025L131.855 158.036C136.174 158.59 140.784 158.136 144.163 156.065C145.888 155.007 147.309 153.512 148.131 151.529C148.951 149.551 149.112 147.245 148.589 144.665L148.58 144.616L148.567 144.568C147.936 142.089 146.259 140.234 144.253 138.752C142.259 137.279 139.747 136.036 137.142 134.846C136.277 134.451 135.397 134.06 134.51 133.665C129.912 131.618 125.111 129.481 121.09 126.313L121.049 126.28L121.005 126.25C116.446 123.034 113.51 117.411 112.737 111.302C111.965 105.199 113.388 98.9043 117.164 94.407L117.196 94.3681L117.227 94.3277C119.668 91.101 123.953 88.5478 128.619 87.2867C129.445 87.1766 130.275 87.063 131.1 86.95L131.115 86.948C131.952 86.8334 132.784 86.7194 133.612 86.6094C143.131 86.4287 148.752 89.0525 152.873 93.8868L152.905 93.9238L152.938 93.9592C153.857 94.9371 154.661 95.9917 155.961 98.0311C155.553 98.3036 155.18 98.5527 154.831 98.7858C152.222 100.529 150.945 101.381 146.406 104.464C144.538 101.454 141.927 99.4369 139.122 98.4494L139.093 98.4393L139.064 98.43C136.436 97.5937 133.442 97.6145 130.871 98.6223C128.26 99.6461 126.036 101.725 125.273 104.92C124.75 106.913 124.922 108.716 125.596 111.36L125.633 111.502L125.689 111.637C126.86 114.442 129.33 116.271 131.857 117.668C133.411 118.527 135.248 119.35 137.019 120.142C138.047 120.603 139.053 121.053 139.969 121.495L140.011 121.516L140.055 121.534C147.737 124.806 152.696 128.122 155.876 131.527C159.015 134.889 160.501 138.42 161.096 142.315ZM58.6654 148.499C58.6657 148.499 58.666 148.5 58.6664 148.5C58.6636 148.496 58.6632 148.495 58.6654 148.499ZM59.5208 150.029C61.2425 153.036 62.9671 155.537 66.3452 157.28L66.4629 157.341L66.5876 157.386C68.2642 157.986 70.9056 158.479 73.5525 158.041C76.2633 157.593 79.0882 156.13 80.65 152.782C81.1929 151.76 81.4655 150.409 81.6312 149.047C81.8082 147.592 81.8899 145.861 81.9241 143.97C81.9647 141.728 81.9386 139.14 81.9112 136.415C81.8928 134.587 81.8738 132.698 81.8738 130.809C81.8738 123.277 81.8906 115.772 81.9075 108.264C81.9228 101.422 81.9382 94.5766 81.9408 87.711H94.5545C94.5564 92.4013 94.5646 97.0846 94.5729 101.763C94.5916 112.431 94.6103 123.074 94.5541 133.723L94.554 133.732L94.5541 133.741C94.5593 135.247 94.5817 136.706 94.6036 138.127C94.6546 141.442 94.7023 144.546 94.5198 147.537C94.2623 151.756 93.5509 155.491 91.8395 158.804L91.8218 158.838L91.8054 158.873C89.4851 163.825 85.0278 167.168 79.6835 168.818C71.2479 170.837 63.3364 169.637 57.5483 165.994C54.1436 163.799 51.34 160.517 49.2701 156.626C51.019 155.503 52.7655 154.378 54.5106 153.253L54.5179 153.249C56.1859 152.174 57.8528 151.101 59.5208 150.029Z" stroke="#FF6A6A" stroke-width="4"/>
    </g>
    <rect x="2.5" y="2.5" width="172.61" height="181.49" stroke="#FF6A6A" stroke-width="5"/>
    <defs>
    <clipPath id="clip0_14_1920">
    <rect width="177.61" height="186.49" fill="white"/>
    </clipPath>
    </defs>
    </svg>
    