<svg width="137" height="187" viewBox="0 0 137 187" fill="none" xmlns="http://www.w3.org/2000/svg">
    <g clip-path="url(#clip0_14_1914)">
    <path d="M48.61 152.185L48.6122 152.185C63.1406 153.864 70.822 153.653 86.4597 150.701C87.295 151.193 88.7027 151.988 90.5224 152.895C76.3393 157.669 61.3246 157.826 50.6864 155.857C44.8752 154.781 40.7206 153.134 38.6923 151.541C37.6645 150.733 37.5778 150.256 37.5747 150.218C37.5739 150.209 37.574 150.2 37.5775 150.185C37.5814 150.167 37.5937 150.123 37.634 150.05C37.6814 149.963 37.7662 149.84 37.9114 149.684C37.943 149.688 37.9765 149.693 38.0119 149.698C38.6068 149.785 39.4093 149.97 40.303 150.211C41.1807 150.446 42.0749 150.715 42.8371 150.949C42.9871 150.995 43.1373 151.042 43.2843 151.087C43.8279 151.255 44.327 151.409 44.6076 151.481C45.7059 151.765 47.0288 152 48.61 152.185ZM37.4949 149.65C37.4999 149.65 37.506 149.65 37.5133 149.65C37.4474 149.658 37.4335 149.652 37.4949 149.65ZM43.4003 133.436L43.4009 133.436C58.864 135.053 71.2138 135.209 91.981 131.254C92.3872 131.598 92.9092 132.014 93.5362 132.463C75.2131 136.906 56.7324 137.141 44.6084 135.2C41.4138 134.688 38.718 134.034 36.6142 133.294C34.4561 132.534 33.1385 131.758 32.4894 131.126C32.2264 130.87 32.1478 130.71 32.1281 130.661C32.1307 130.652 32.1345 130.641 32.14 130.628C32.2408 130.379 32.6843 129.757 34.0479 128.902C34.0539 128.908 34.0599 128.913 34.0659 128.918C34.5322 129.334 34.9665 129.816 35.3601 130.253C35.4797 130.386 35.5955 130.515 35.7073 130.636C37.1971 132.252 39.8506 133.064 43.4003 133.436Z" stroke="#FF6A6A" stroke-width="5"/>
    <mask id="path-2-inside-1_14_1914" fill="white">
    <path d="M76.5513 89.2107C80.2898 93.5727 80.459 97.7506 79.4053 101.123C79.0476 102.268 80.9888 104.214 81.8794 103.411C87.2332 98.5836 92.4374 90.9719 86.3884 82.3423C77.2548 69.3328 70.1363 62.518 103.375 41.8579C104.358 41.2473 103.821 39.9064 102.729 40.2858C87.3943 45.6107 52.7186 61.3793 76.5513 89.2101"/>
    </mask>
    <path d="M86.3884 82.3423L90.4827 79.4724L90.4805 79.4694L86.3884 82.3423ZM103.375 41.8579L106.015 46.1044L103.375 41.8579ZM79.4053 101.123L84.1777 102.614L79.4053 101.123ZM81.8794 103.411L78.5311 99.6978L81.8794 103.411ZM72.7548 92.4644C74.1166 94.0534 74.6622 95.4015 74.8613 96.4612C75.0633 97.5361 74.9591 98.5875 74.6328 99.6319L84.1777 102.614C85.7056 97.7242 85.291 91.7246 80.3477 85.9569L72.7548 92.4644ZM85.2278 107.124C88.1851 104.458 91.5365 100.658 93.1457 95.9063C94.8612 90.8409 94.4381 85.1152 90.4827 79.4724L82.2941 85.2123C84.3877 88.1991 84.3869 90.5939 83.6742 92.6986C82.8552 95.117 80.9276 97.5369 78.5311 99.6978L85.2278 107.124ZM90.4805 79.4694C88.031 75.9803 86.1897 73.5399 84.9635 71.1507C83.8334 68.9486 83.586 67.4315 83.8867 65.9903C84.2165 64.4093 85.3874 62.061 88.8949 58.6594C92.3866 55.273 97.8299 51.1918 106.015 46.1044L100.736 37.6113C92.3011 42.854 86.1696 47.3721 81.933 51.4808C77.7122 55.5742 75.0012 59.6164 74.0975 63.9479C73.1646 68.4191 74.332 72.3362 76.0667 75.7165C77.7054 78.9095 80.1789 82.1996 82.2962 85.2153L90.4805 79.4694ZM101.089 35.5624C93.3379 38.2539 79.8114 43.8451 71.3104 52.8824C66.9605 57.5068 63.612 63.3701 63.4323 70.4465C63.2526 77.5274 66.2693 84.8903 72.7535 92.4623L80.3491 85.9579C74.917 79.6145 73.3309 74.5698 73.4291 70.7003C73.5274 66.8263 75.3376 63.1963 78.5943 59.734C85.3067 52.5982 96.7853 47.6426 104.369 45.0091L101.089 35.5624ZM106.015 46.1044C108.446 44.5935 109.582 41.5758 108.463 38.8199C107.929 37.5041 106.886 36.3357 105.421 35.6994C103.926 35.0499 102.376 35.1156 101.089 35.5624L104.369 45.0091C103.628 45.2663 102.555 45.3573 101.437 44.8716C100.349 44.3991 99.5836 43.5329 99.1973 42.5812C98.3742 40.5536 99.2873 38.5117 100.736 37.6113L106.015 46.1044ZM74.6328 99.6319C74.0462 101.509 74.5302 103.161 74.9392 104.09C75.3818 105.096 76.0279 105.949 76.7133 106.606C77.3681 107.234 78.3646 107.976 79.6746 108.356C81.0807 108.763 83.3407 108.826 85.2278 107.124L78.5311 99.6978C79.9728 98.3978 81.6562 98.5184 82.459 98.7511C83.1658 98.956 83.5323 99.2902 83.6352 99.3889C83.7687 99.517 83.9409 99.7186 84.0923 100.063C84.21 100.33 84.5855 101.309 84.1777 102.614L74.6328 99.6319Z" fill="#FF6A6A" mask="url(#path-2-inside-1_14_1914)"/>
    <mask id="path-4-inside-2_14_1914" fill="white">
    <path d="M126.866 164.813C127.591 163.899 123.648 164.589 122.639 165.175C121.613 165.772 120.229 166.366 118.387 166.933C97.6321 173.305 32.0023 175.229 13.7704 167.187C7.2168 164.298 19.5072 160.288 23.373 159.446C24.4251 159.214 25.3597 159.055 26.1663 158.945C27.1671 158.809 27.3572 157.809 26.3509 157.722C14.6247 156.712 -14.5092 169.418 9.48183 173.359C69.0268 183.145 120.007 173.455 126.866 164.813ZM47.2788 102.667C47.2788 102.667 13.8959 110.703 35.4575 113.62C44.5612 114.856 62.7096 114.577 79.6146 113.141C86.5824 112.545 93.5648 111.611 98.7746 110.832C99.9495 110.656 100.67 112.845 99.6724 113.49C99.4615 113.627 99.2537 113.765 99.0499 113.904C98.9548 113.969 98.8536 114.016 98.7422 114.046C64.795 123.025 -0.452409 118.82 18.3707 109.591C34.3152 101.78 47.2794 102.667 47.2794 102.667M107.165 136.592C141.627 118.443 125.693 101.002 114.572 103.352C114.235 103.423 113.921 103.493 113.63 103.561C112.682 103.782 112.089 102.827 112.958 102.389C113.152 102.291 113.358 102.201 113.575 102.123C135.454 94.3274 152.308 124.9 107.237 137.299C106.8 137.419 106.722 137.303 106.98 136.931C107.056 136.821 107.123 136.704 107.165 136.592Z"/>
    </mask>
    <path d="M118.387 166.933L119.854 171.713L119.856 171.712L118.387 166.933ZM13.7704 167.187L15.7885 162.612L15.7873 162.611L13.7704 167.187ZM23.373 159.446L24.4369 164.331L24.4463 164.329L23.373 159.446ZM9.48183 173.359L10.2927 168.425L10.2923 168.425L9.48183 173.359ZM35.4575 113.62L36.1299 108.666L36.128 108.666L35.4575 113.62ZM79.6146 113.141L80.0377 118.123L80.0402 118.123L79.6146 113.141ZM18.3707 109.591L16.171 105.101L16.1697 105.102L18.3707 109.591ZM114.572 103.352L115.603 108.245L115.605 108.244L114.572 103.352ZM113.575 102.123L111.897 97.4133L111.89 97.4158L111.882 97.4184L113.575 102.123ZM107.237 137.299L105.911 132.478L107.237 137.299ZM106.98 136.931L102.87 134.083L106.98 136.931ZM26.1663 158.945L25.4929 153.991L26.1663 158.945ZM26.3509 157.722L26.7802 152.741L26.3509 157.722ZM113.63 103.561L112.496 98.6911L113.63 103.561ZM112.958 102.389L110.709 97.9234L112.958 102.389ZM99.0499 113.904L101.869 118.033L99.0499 113.904ZM98.7422 114.046L97.4637 109.212L98.7422 114.046ZM122.639 165.175L120.127 160.852L122.639 165.175ZM126.866 164.813L122.949 161.705L126.866 164.813ZM120.127 160.852C119.521 161.205 118.513 161.663 116.918 162.154L119.856 171.712C121.945 171.07 123.704 170.34 125.152 169.498L120.127 160.852ZM116.919 162.153C107.279 165.113 86.306 167.194 65.0686 167.466C54.5515 167.6 44.1752 167.288 35.3583 166.458C26.3715 165.612 19.5518 164.272 15.7885 162.612L11.7524 171.761C17.105 174.123 25.326 175.558 34.4211 176.414C43.686 177.286 54.4328 177.603 65.1965 177.465C86.5208 177.192 108.74 175.125 119.854 171.713L116.919 162.153ZM15.7873 162.611C15.2988 162.396 15.7059 162.461 16.1788 163.108C16.882 164.069 17.0862 165.424 16.6579 166.595C16.3634 167.4 15.9251 167.686 16.114 167.528C16.2285 167.432 16.5124 167.231 17.0291 166.954C19.2115 165.783 22.7625 164.696 24.4369 164.331L22.309 154.56C20.1177 155.037 15.5906 156.377 12.2998 158.143C11.4481 158.6 10.5265 159.166 9.70486 159.852C8.95752 160.476 7.85237 161.558 7.26684 163.159C6.54756 165.124 6.83659 167.274 8.10696 169.011C9.14698 170.433 10.6036 171.255 11.7536 171.762L15.7873 162.611ZM24.4463 164.329C25.3632 164.128 26.1643 163.991 26.8397 163.9L25.4929 153.991C24.5551 154.118 23.4871 154.301 22.2997 154.562L24.4463 164.329ZM26.7802 152.741C22.9899 152.414 18.3082 153.188 14.0583 154.367C9.74611 155.563 5.28673 157.34 1.89971 159.427C0.23362 160.453 -1.45956 161.728 -2.70653 163.273C-3.92551 164.783 -5.29863 167.33 -4.48516 170.394C-3.70731 173.324 -1.35783 175.027 0.63972 176.005C2.74242 177.034 5.45335 177.764 8.67136 178.292L10.2923 168.425C7.51256 167.968 5.88588 167.439 5.03562 167.023C4.0802 166.555 4.86134 166.628 5.17998 167.828C5.53425 169.162 4.81103 169.881 5.07554 169.553C5.31207 169.26 5.936 168.686 7.14508 167.941C9.50844 166.485 13.0317 165.029 16.7304 164.003C20.4914 162.96 23.8487 162.525 25.9216 162.704L26.7802 152.741ZM8.67091 178.292C38.9053 183.262 66.9909 183.294 88.4695 180.968C99.2007 179.805 108.385 178.043 115.42 175.966C118.933 174.929 122.01 173.784 124.514 172.544C126.908 171.358 129.24 169.865 130.782 167.921L122.949 161.705C122.777 161.922 122.016 162.622 120.076 163.582C118.247 164.488 115.75 165.442 112.588 166.375C106.275 168.239 97.707 169.909 87.3927 171.026C66.7803 173.258 39.6033 173.242 10.2927 168.425L8.67091 178.292ZM47.2788 102.667C46.1086 97.8054 46.1079 97.8056 46.1071 97.8057C46.1067 97.8059 46.1058 97.8061 46.1049 97.8063C46.1031 97.8067 46.1009 97.8073 46.0981 97.8079C46.0926 97.8093 46.0851 97.8111 46.0756 97.8134C46.0566 97.818 46.0297 97.8245 45.9953 97.8329C45.9265 97.8498 45.8275 97.8741 45.7011 97.9056C45.4482 97.9686 45.085 98.0602 44.6333 98.1771C43.7309 98.4108 42.4694 98.7472 41.0244 99.1606C38.1774 99.9751 34.4502 101.136 31.346 102.44C29.8194 103.081 28.2219 103.848 26.9137 104.736C26.262 105.178 25.5062 105.768 24.8531 106.528C24.2254 107.258 23.3716 108.521 23.2258 110.26C23.0626 112.207 23.8547 113.827 24.8781 114.929C25.7915 115.912 26.8942 116.513 27.7858 116.899C29.5803 117.677 31.9669 118.194 34.7871 118.575L36.128 108.666C33.5578 108.318 32.271 107.945 31.7641 107.725C31.505 107.612 31.7999 107.687 32.2056 108.124C32.7211 108.679 33.3053 109.731 33.1908 111.096C33.0938 112.253 32.5455 112.92 32.437 113.046C32.303 113.202 32.2799 113.18 32.5314 113.009C33.0297 112.67 33.9205 112.205 35.2191 111.659C37.7654 110.589 41.0364 109.558 43.775 108.775C45.1226 108.389 46.3007 108.075 47.1398 107.858C47.5588 107.749 47.8917 107.666 48.1173 107.609C48.2301 107.581 48.3159 107.56 48.3721 107.546C48.4002 107.54 48.4209 107.534 48.4338 107.531C48.4403 107.53 48.4448 107.529 48.4474 107.528C48.4487 107.528 48.4495 107.528 48.4497 107.527C48.4499 107.527 48.4497 107.527 48.4498 107.527C48.4495 107.528 48.4491 107.528 47.2788 102.667ZM34.7852 118.575C44.4576 119.888 63.0586 119.565 80.0377 118.123L79.1914 108.159C62.3606 109.588 44.6648 109.824 36.1299 108.666L34.7852 118.575ZM80.0402 118.123C87.1521 117.515 94.2479 116.565 99.5145 115.777L98.0347 105.887C92.8817 106.658 86.0127 107.576 79.1889 108.159L80.0402 118.123ZM96.9557 109.293C96.7132 109.45 96.4711 109.61 96.2309 109.774L101.869 118.033C102.036 117.919 102.21 117.804 102.389 117.688L96.9557 109.293ZM97.4637 109.212C81.1881 113.517 56.9685 114.72 39.0644 113.655C29.982 113.115 23.2266 112.025 20.022 110.782C19.2527 110.483 19.0136 110.295 19.0505 110.325C19.0625 110.335 19.9465 111.054 20.0213 112.551C20.0572 113.272 19.8774 113.866 19.6777 114.269C19.493 114.642 19.307 114.823 19.2936 114.836C19.2755 114.854 19.3484 114.781 19.5766 114.632C19.7992 114.487 20.1224 114.301 20.5717 114.081L16.1697 105.102C14.7727 105.787 13.3923 106.621 12.3032 107.685C11.229 108.736 9.90912 110.556 10.0337 113.05C10.1575 115.528 11.6346 117.18 12.7275 118.072C13.8453 118.985 15.1749 119.627 16.4058 120.105C21.202 121.965 29.3508 123.095 38.4708 123.637C56.9714 124.738 82.3491 123.554 100.021 118.879L97.4637 109.212ZM20.5703 114.082C27.9945 110.445 34.7042 108.843 39.5179 108.149C41.9232 107.802 43.8469 107.683 45.1376 107.648C45.7825 107.631 46.268 107.635 46.5749 107.642C46.7283 107.646 46.8369 107.65 46.8983 107.653C46.929 107.655 46.9479 107.656 46.9547 107.656C46.9581 107.656 46.9585 107.656 46.9558 107.656C46.9544 107.656 46.9523 107.656 46.9494 107.656C46.948 107.656 46.9463 107.655 46.9445 107.655C46.9436 107.655 46.9421 107.655 46.9416 107.655C46.94 107.655 46.9384 107.655 47.2794 102.667C47.6203 97.6782 47.6186 97.678 47.6168 97.6779C47.6162 97.6779 47.6144 97.6778 47.6131 97.6777C47.6104 97.6775 47.6076 97.6773 47.6046 97.6771C47.5985 97.6767 47.5917 97.6763 47.5841 97.6758C47.5688 97.6748 47.5503 97.6737 47.5287 97.6725C47.4854 97.67 47.4296 97.667 47.3615 97.6638C47.2252 97.6575 47.0397 97.6505 46.8075 97.6451C46.3431 97.6342 45.6912 97.6301 44.8716 97.6519C43.2332 97.6955 40.9193 97.8431 38.0905 98.2511C32.436 99.0665 24.6913 100.927 16.171 105.101L20.5703 114.082ZM109.495 141.016C127.045 131.773 134.545 121.273 132.893 111.455C131.3 101.986 121.54 96.7692 113.538 98.4601L115.605 108.244C118.724 107.585 122.493 109.914 123.031 113.114C123.511 115.967 121.747 123.261 104.835 132.168L109.495 141.016ZM113.541 98.4596C113.17 98.5378 112.821 98.6152 112.496 98.6911L114.765 108.43C115.021 108.371 115.3 108.308 115.603 108.245L113.541 98.4596ZM115.207 106.855C115.231 106.842 115.251 106.834 115.268 106.828L111.882 97.4184C111.464 97.569 111.073 97.74 110.709 97.9234L115.207 106.855ZM115.253 106.833C123.994 103.719 129.872 108.534 130.575 112.928C130.934 115.171 130.286 118.38 126.755 121.969C123.159 125.622 116.663 129.52 105.911 132.478L108.563 142.12C120.347 138.878 128.645 134.305 133.883 128.983C139.184 123.595 141.405 117.324 140.45 111.348C138.523 99.3051 125.035 92.7319 111.897 97.4133L115.253 106.833ZM111.09 139.779C111.298 139.478 111.616 138.974 111.858 138.318L102.472 134.865C102.558 134.633 102.647 134.457 102.71 134.343C102.775 134.226 102.832 134.138 102.87 134.083L111.09 139.779ZM105.911 132.478C105.952 132.467 106.366 132.347 106.96 132.345C107.306 132.344 109.508 132.36 110.958 134.452C112.387 136.515 111.662 138.557 111.554 138.858C111.357 139.403 111.113 139.745 111.09 139.779L102.87 134.083C102.718 134.303 102.387 134.799 102.146 135.467C101.993 135.891 101.267 138.025 102.738 140.147C104.229 142.3 106.518 142.346 106.993 142.345C107.716 142.342 108.304 142.191 108.563 142.12L105.911 132.478ZM99.5145 115.777C98.0617 115.994 96.8989 115.407 96.2529 114.84C95.6716 114.33 95.4129 113.788 95.2953 113.436C95.1751 113.076 95.0769 112.54 95.2019 111.866C95.335 111.148 95.7903 110.047 96.9557 109.293L102.389 117.688C105.779 115.494 105.256 111.692 104.781 110.27C104.461 109.312 103.864 108.215 102.849 107.324C101.768 106.376 100.075 105.582 98.0347 105.887L99.5145 115.777ZM26.8397 163.9C28.682 163.649 31.4094 162.305 31.9418 159.146C32.2266 157.456 31.7064 155.679 30.4233 154.396C29.2367 153.209 27.8051 152.829 26.7802 152.741L25.9216 162.704C25.3999 162.659 24.3219 162.437 23.3514 161.466C22.2843 160.399 21.8428 158.896 22.0808 157.484C22.5195 154.881 24.6514 154.105 25.4929 153.991L26.8397 163.9ZM112.496 98.6911C113.761 98.3963 115.765 98.7431 116.909 100.664C117.502 101.66 117.772 103.042 117.281 104.442C116.802 105.81 115.833 106.539 115.207 106.855L110.709 97.9234C109.648 98.4577 108.427 99.4702 107.844 101.134C107.25 102.829 107.565 104.518 108.316 105.78C109.776 108.232 112.551 108.946 114.765 108.43L112.496 98.6911ZM96.2309 109.774C96.5743 109.54 96.99 109.337 97.4637 109.212L100.021 118.879C100.717 118.695 101.335 118.398 101.869 118.033L96.2309 109.774ZM125.152 169.498C124.793 169.707 124.682 169.689 125.11 169.576C125.41 169.496 125.759 169.427 126.041 169.391C126.499 169.332 126.268 169.42 125.707 169.311C125.519 169.275 125.114 169.184 124.628 168.945C124.161 168.716 123.289 168.187 122.645 167.112C121.003 164.373 122.691 162.03 122.949 161.705L130.782 167.921C131.222 167.368 132.945 164.847 131.223 161.972C130.538 160.83 129.597 160.245 129.035 159.969C128.454 159.684 127.929 159.556 127.599 159.492C126.471 159.275 125.327 159.4 124.764 159.473C124.025 159.568 123.245 159.724 122.544 159.911C121.972 160.063 120.99 160.351 120.127 160.852L125.152 169.498Z" fill="#FF6A6A" mask="url(#path-4-inside-2_14_1914)"/>
    <mask id="path-6-inside-3_14_1914" fill="white">
    <path d="M86.3884 0.199964C86.3884 0.199964 105.474 19.5496 68.2868 49.3023C41.1567 71.0171 57.7643 84.24 66.0925 98.1578C66.6471 99.0845 65.6038 99.8657 64.816 99.127C49.2398 84.5217 38.6727 71.5177 46.6641 59.3582C59.2422 40.215 94.0886 30.9342 86.3884 0.199425"/>
    </mask>
    <path d="M68.2868 49.3023L65.1631 45.3982L65.1624 45.3988L68.2868 49.3023ZM46.6641 59.3582L50.8425 62.1044L50.8428 62.1039L46.6641 59.3582ZM66.0925 98.1578L70.383 95.5904L66.0925 98.1578ZM64.816 99.127L68.236 95.4796L64.816 99.127ZM86.3884 0.199964C82.8286 3.71111 82.8257 3.70814 82.8229 3.70525C82.822 3.70438 82.8192 3.70155 82.8175 3.6998C82.8141 3.69631 82.8109 3.69308 82.8081 3.69012C82.8023 3.68421 82.7976 3.67937 82.794 3.6756C82.7868 3.66807 82.7838 3.66482 82.7847 3.66581C82.7866 3.6678 82.8041 3.68662 82.8351 3.72198C82.8973 3.79289 83.0127 3.9289 83.1647 4.1276C83.47 4.52664 83.9143 5.16711 84.3719 6.03029C85.2846 7.75179 86.2353 10.3266 86.2832 13.6658C86.3762 20.1342 83.0516 31.0859 65.1631 45.3982L71.4105 53.2065C90.7091 37.766 96.4352 24.1666 96.2822 13.522C96.2072 8.30471 94.7107 4.18252 93.207 1.34618C92.4564 -0.0695515 91.7002 -1.17322 91.107 -1.94859C90.8098 -2.33709 90.5514 -2.64585 90.3522 -2.87292C90.2525 -2.98654 90.1674 -3.08 90.0993 -3.15305C90.0652 -3.18958 90.0354 -3.22104 90.0101 -3.2474C89.9975 -3.26058 89.986 -3.27249 89.9756 -3.28312C89.9705 -3.28843 89.9656 -3.29343 89.961 -3.29811C89.9587 -3.30044 89.9555 -3.30372 89.9543 -3.30488C89.9512 -3.30807 89.9481 -3.31118 86.3884 0.199964ZM65.1624 45.3988C58.0363 51.1025 53.3722 56.5654 50.8053 62.0064C48.1732 67.5853 47.8799 72.8641 49.0223 77.7848C50.1254 82.5356 52.5256 86.765 54.9176 90.4359C57.5525 94.4794 59.7222 97.2494 61.802 100.725L70.383 95.5904C68.2988 92.1072 65.2695 88.0052 63.2959 84.9765C61.0794 81.5751 59.4618 78.532 58.7632 75.5231C58.104 72.684 58.2252 69.7157 59.8493 66.2731C61.5385 62.6925 64.9723 58.3596 71.4112 53.2059L65.1624 45.3988ZM68.236 95.4796C60.4514 88.1803 54.4615 81.7559 51.294 75.9354C49.7446 73.0883 49.0108 70.63 48.9355 68.4735C48.863 66.3991 49.3863 64.32 50.8425 62.1044L42.4857 56.6121C39.9461 60.4762 38.7935 64.5824 38.9416 68.8225C39.0868 72.9806 40.4699 76.966 42.5104 80.7155C46.5226 88.0881 53.6043 95.4684 61.3959 102.774L68.236 95.4796ZM50.8428 62.1039C53.5505 57.9829 57.589 54.2087 62.4361 50.2225C67.0624 46.4179 72.7325 42.1954 77.5114 37.8094C82.399 33.3236 87.0042 28.1234 89.7863 21.7059C92.6255 15.1566 93.418 7.68368 91.2385 -1.01571L81.5383 1.41456C83.2089 8.08253 82.5332 13.2953 80.6113 17.7285C78.6323 22.2935 75.1835 26.3727 70.7497 30.4419C66.2073 34.6109 61.2887 38.2189 56.0843 42.4989C51.1007 46.5973 46.0667 51.162 42.4854 56.6126L50.8428 62.1039ZM61.802 100.725C61.4136 100.076 61.1174 99.1074 61.3064 97.9786C61.4919 96.8705 62.1008 95.9134 62.9461 95.2756C64.7845 93.8884 67.0311 94.3498 68.236 95.4796L61.3959 102.774C63.3886 104.643 66.5508 105.083 68.9692 103.258C71.4867 101.359 71.8471 98.037 70.383 95.5904L61.802 100.725Z" fill="#FF6A6A" mask="url(#path-6-inside-3_14_1914)"/>
    <mask id="path-8-inside-4_14_1914" fill="white">
    <path d="M50.6655 185.77C79.192 187.621 120.895 185.394 132.604 174.573C133.45 173.791 131.475 172.337 130.452 172.865C126.558 174.874 119.862 177.32 108.405 179.506C85.0795 183.955 57.2567 184.299 36.6422 182.338C35.4204 182.222 34.9822 183.998 36.1927 184.2C39.8309 184.808 44.5571 185.373 50.6661 185.77"/>
    </mask>
    <path d="M108.405 179.506L109.342 184.418L109.342 184.418L108.405 179.506ZM36.6422 182.338L36.1687 187.316L36.6422 182.338ZM132.604 174.573L135.998 178.245L132.604 174.573ZM130.452 172.865L128.159 168.422L130.452 172.865ZM50.3418 190.76C64.843 191.701 82.6933 191.609 98.481 189.895C106.371 189.038 113.872 187.763 120.237 185.958C126.464 184.193 132.191 181.763 135.998 178.245L129.21 170.901C127.163 172.793 123.286 174.7 117.509 176.338C111.87 177.936 104.967 179.132 97.4016 179.953C82.2789 181.595 65.0146 181.691 50.9893 180.781L50.3418 190.76ZM128.159 168.422C124.835 170.137 118.642 172.463 107.468 174.595L109.342 184.418C121.081 182.178 128.281 179.612 132.745 177.308L128.159 168.422ZM107.469 174.595C84.7009 178.937 57.3646 179.287 37.1157 177.361L36.1687 187.316C57.1488 189.311 85.458 188.973 109.342 184.418L107.469 174.595ZM35.3687 189.132C39.2003 189.772 44.0963 190.354 50.3418 190.76L50.9903 180.781C45.0179 180.393 40.4614 179.844 37.0167 179.269L35.3687 189.132ZM37.1157 177.361C33.6026 177.027 31.239 179.542 30.6479 181.964C30.3478 183.194 30.3817 184.783 31.2363 186.283C32.1656 187.914 33.7389 188.859 35.3687 189.132L37.0167 179.269C38.0412 179.44 39.2154 180.087 39.9246 181.332C40.559 182.445 40.5519 183.56 40.3628 184.335C39.9936 185.848 38.46 187.534 36.1687 187.316L37.1157 177.361ZM135.998 178.245C136.773 177.528 137.413 176.54 137.68 175.327C137.939 174.146 137.775 173.081 137.495 172.27C136.977 170.77 135.969 169.794 135.27 169.258C134.502 168.67 133.548 168.182 132.483 167.932C131.465 167.692 129.827 167.561 128.159 168.422L132.745 177.308C131.588 177.905 130.581 177.757 130.195 177.666C129.762 177.564 129.441 177.39 129.188 177.197C129.005 177.056 128.396 176.557 128.042 175.533C127.845 174.96 127.704 174.133 127.913 173.179C128.13 172.193 128.647 171.422 129.21 170.901L135.998 178.245Z" fill="#FF6A6A" mask="url(#path-8-inside-4_14_1914)"/>
    </g>
    <defs>
    <clipPath id="clip0_14_1914">
    <rect width="136.167" height="186.49" fill="white"/>
    </clipPath>
    </defs>
    </svg>
    