<svg width="37" height="36" viewBox="0 0 37 36" fill="none" xmlns="http://www.w3.org/2000/svg">
<path d="M36.1888 18C36.1888 27.9411 28.0983 36 18.1181 36C8.1379 36 0.0473633 27.9411 0.0473633 18C0.0473633 8.05888 8.1379 0 18.1181 0C28.0983 0 36.1888 8.05888 36.1888 18Z"/>
<path fill-rule="evenodd" clip-rule="evenodd" d="M0.0473633 0V36H36.1888V0H0.0473633ZM11.2887 29.9079H5.92658V13.8387H11.2887V29.9079ZM8.60765 11.6455H8.57222C6.77349 11.6455 5.60759 10.4111 5.60759 8.86826C5.60759 7.29154 6.80756 6.09215 8.64275 6.09215C10.4783 6.09215 11.6064 7.29154 11.6415 8.86826C11.6415 10.4111 10.4783 11.6455 8.60765 11.6455ZM30.6286 29.9079H25.265V21.3108C25.265 19.1515 24.4901 17.6776 22.5489 17.6776C21.0664 17.6776 20.1854 18.67 19.7973 19.6313C19.6562 19.9747 19.6194 20.452 19.6194 20.9336V29.9079H14.2548C14.2548 29.9079 14.3267 15.3463 14.2548 13.8388H19.6194V16.1158C20.3321 15.0234 21.604 13.4615 24.4532 13.4615C27.983 13.4615 30.6286 15.7576 30.6286 20.693V29.9079Z" fill="#2C2C2C"/>
</svg>
