<svg width="187" height="187" viewBox="0 0 187 187" fill="none" xmlns="http://www.w3.org/2000/svg">
    <path d="M116.643 169.606C111.095 168.117 107.439 167.48 103.692 167.322C100.648 167.193 97.5615 167.385 93.4309 167.641C92.5681 167.694 91.6598 167.75 90.6967 167.807L90.6961 167.807C88.0411 167.965 86.1594 168.028 84.7236 168.077L84.5206 168.083C83.09 168.132 82.0085 168.17 81.0481 168.301C79.1488 168.561 77.75 169.192 74.7887 170.528C74.5905 170.618 74.3853 170.71 74.1725 170.806C74.1552 170.805 73.7675 170.868 72.7331 170.201C71.6356 169.494 70.2739 168.251 68.7093 166.513C65.6002 163.061 62.0147 158.026 58.5412 152.577C55.0778 147.143 51.7705 141.368 49.2152 136.48C46.6177 131.512 44.9136 127.675 44.5039 126.013C44.2655 125.025 44.043 124.178 43.8485 123.444C43.8263 123.36 43.8045 123.278 43.7831 123.197C43.6153 122.565 43.4756 122.039 43.3618 121.563C43.1059 120.495 43.0306 119.873 43.0785 119.306C43.1257 118.746 43.3074 118.08 43.8262 116.981C44.3543 115.861 45.1662 114.425 46.391 112.318C48.6755 108.391 50.0828 104.477 51.4785 100.595C51.6377 100.153 51.7968 99.7103 51.957 99.2683C53.5324 94.9226 55.2574 90.4869 58.3554 85.6066L58.3569 85.6041C60.4405 82.3112 62.55 79.6608 64.5347 77.1672C65.5862 75.8461 66.6026 74.569 67.5617 73.2636C70.2222 69.6425 72.3188 65.9131 72.001 61.2881L72.0004 61.28C71.9107 60.0485 71.8221 58.8455 71.7355 57.6704C70.7999 44.972 70.1033 35.5184 70.9215 28.3762C71.3632 24.5204 72.2352 21.4922 73.6569 19.0759C75.0607 16.69 77.0655 14.7895 79.9658 13.2789C91.3733 7.35741 100.842 10.8799 104.539 12.8648C104.617 12.9071 104.699 12.9506 104.782 12.9955C106.6 13.9715 109.607 15.5863 111.852 18.2856L111.859 18.2935L111.866 18.3014C114.254 21.1133 116.498 25.5033 117.775 31.1846L117.777 31.1937C118.444 34.0982 118.69 35.9593 118.753 37.3194C118.811 38.5821 118.716 39.4583 118.605 40.4857C118.598 40.5519 118.591 40.6188 118.583 40.6864C118.32 43.1379 118.149 45.7865 119.742 52.797C122.402 64.5879 127.432 71.4619 133.385 79.5973C134.547 81.1864 135.745 82.8237 136.968 84.5552C140.674 89.806 144.476 96.7885 147.03 103.691C149.618 110.682 150.782 117.212 149.665 121.738L149.663 121.746C148.633 125.993 145.415 132.785 141.602 139.702C137.821 146.561 133.585 153.312 130.67 157.405L130.667 157.408C129.093 159.628 127.971 161.78 127.029 163.628C126.97 163.742 126.913 163.855 126.856 163.966C125.969 165.707 125.287 167.046 124.502 168.088C123.722 169.125 122.944 169.719 121.923 169.995C120.834 170.29 119.215 170.293 116.643 169.606ZM116.643 169.606L116.125 171.537M116.643 169.606C116.643 169.606 116.642 169.606 116.642 169.605L116.125 171.537M116.125 171.537C124.154 173.685 125.914 170.225 128.607 164.935C129.594 162.996 130.707 160.811 132.299 158.565M116.125 171.537C106.139 168.858 102.712 169.07 93.589 169.635C92.7194 169.689 91.7981 169.746 90.8145 169.804C84.3518 170.187 82.411 170.019 80.5899 170.41C79.2445 170.699 77.9645 171.292 74.9747 172.638C67.972 175.806 44.4619 134.223 42.5608 126.486C42.3007 125.408 42.0593 124.499 41.8497 123.709C40.5548 118.83 40.472 118.518 44.6622 111.313C46.8498 107.552 48.1959 103.811 49.5989 99.9115C51.3182 95.1333 53.123 90.1174 56.6668 84.5347L132.299 158.565M132.299 158.565C138.236 150.229 149.406 131.289 151.607 122.218C154.142 111.946 146.204 94.1719 138.602 83.4018L132.299 158.565Z" fill="#2C2C2C" stroke="#FF6A6A" stroke-width="4"/>
    <path d="M81.3285 47.3208L81.3253 47.3274L81.3222 47.3341C81.0664 47.8908 80.8679 48.3534 80.7084 48.7253C80.6565 48.8462 80.6087 48.9576 80.5644 49.0595C80.3745 49.4962 80.2622 49.7246 80.1555 49.8816C80.0114 50.0936 79.8669 50.2293 78.8642 50.6304C78.2901 50.8574 77.5071 50.7699 76.674 50.1975C75.8477 49.6299 75.0523 48.6255 74.5798 47.2371C74.1355 45.9218 73.849 44.945 73.6788 43.8314C73.508 42.7134 73.4489 41.4201 73.4985 39.481L73.4986 39.4778C73.5279 38.1717 73.8854 36.9061 74.3402 35.9063C74.6814 35.1802 75.0939 34.5955 75.4913 34.1913C75.9126 33.7628 76.2259 33.6268 76.3517 33.6074L76.3632 33.6057L76.3747 33.6036C77.7244 33.3635 79.6257 33.4995 80.7921 35.1059C80.9208 35.2837 81.0432 35.4515 81.1598 35.6112C81.7867 36.4698 82.2447 37.097 82.5842 37.823C82.9643 38.6357 83.2026 39.6026 83.2026 41.1553H83.2026L83.2027 41.1649C83.2181 42.7605 83.0075 43.7228 82.696 44.5317C82.5349 44.9501 82.3399 45.3457 82.1062 45.7958C82.0554 45.8936 82.0024 45.9947 81.9477 46.0991C81.7562 46.4646 81.5434 46.8706 81.3285 47.3208Z" fill="#2C2C2C" stroke="#FF6A6A" stroke-width="2"/>
    <path fill-rule="evenodd" clip-rule="evenodd" d="M77.3673 37.9877C78.3677 37.9877 79.6341 38.6543 80.235 39.555C80.8687 40.4548 81.336 41.7222 81.336 43.156C81.336 45.2903 81.1018 47.6578 79.8354 48.3921C79.4348 48.6253 78.568 48.8256 78.0678 48.8256C76.9339 48.8256 76.8342 48.0922 75.7671 46.9912C75.4004 46.5906 74.2994 44.6576 74.2994 43.0564C74.2994 42.056 74.0653 40.6222 74.9331 39.3548C75.532 38.4202 76.2992 37.9877 77.3673 37.9877Z" fill="#FF6A6A"/>
    <path d="M105.308 36.4096L105.308 36.4096L105.311 36.4159C107.393 40.0539 107.357 43.1098 106.613 45.8991C106.192 47.4736 105.605 48.5774 104.647 49.3662C103.69 50.1537 102.243 50.7269 99.9024 50.9879C99.8832 50.9836 99.8559 50.9769 99.8195 50.9667C99.6974 50.9328 99.5267 50.8758 99.3156 50.7938C98.8951 50.6303 98.3587 50.3846 97.8011 50.0752C96.6396 49.4306 95.5856 48.619 95.1446 47.8403C94.8138 47.2454 94.4373 46.7437 94.0858 46.2971C94.001 46.1893 93.919 46.0863 93.8394 45.9864C93.5767 45.6565 93.3408 45.3602 93.1185 45.0356C92.5809 44.2507 92.1683 43.3601 92.1394 41.9017L92.1394 41.9007C92.1277 41.3431 92.1107 40.882 92.0969 40.5068C92.0908 40.3404 92.0853 40.1909 92.0811 40.0574C92.0671 39.6059 92.0687 39.3347 92.0954 39.0993C92.1461 38.6511 92.2918 38.2519 92.8555 36.9546C93.3414 35.8574 94.0728 34.6126 95.1704 33.6925C96.2409 32.7951 97.6995 32.1705 99.7577 32.347L99.7577 32.3471L99.7662 32.3477C101.247 32.462 102.081 32.657 102.796 33.147C103.537 33.6554 104.27 34.5645 105.308 36.4096Z" fill="#2C2C2C" stroke="#FF6A6A" stroke-width="2"/>
    <path fill-rule="evenodd" clip-rule="evenodd" d="M99.5083 37.8532C102.01 37.8532 103.479 40.0881 103.977 42.9558C104.177 44.2561 103.877 45.7567 103.077 46.7909C102.176 47.9916 100.575 48.7249 99.2752 48.7249C98.0416 48.7249 96.6407 48.9252 95.9064 47.9239C95.173 46.8906 95.0066 44.5899 95.0066 42.9558C95.0066 41.1214 95.5416 39.8211 96.4753 38.7869C97.1747 38.0206 98.4422 37.8532 99.5083 37.8532Z" fill="#FF6A6A"/>
    <path d="M84.4358 78.4494L84.4402 78.4493C86.2627 78.3918 88.1018 77.5103 89.8359 76.3612C91.5868 75.2011 93.3588 73.6793 95.051 72.1874C95.3052 71.9633 95.5574 71.7401 95.8076 71.5186C97.2449 70.2463 98.6159 69.0326 99.915 68.0544C101.467 66.8861 102.752 66.1846 103.772 66.0506L103.779 66.0497C105.108 65.8657 105.869 66.0775 106.55 66.5759C107.327 67.1447 108.068 68.127 109.211 69.7509C110.949 72.2665 111.838 74.4934 112.78 77.1952C112.933 77.6329 113.087 78.0832 113.246 78.5488C114.073 80.965 115.04 83.7917 116.677 87.397C117.396 88.9937 118.17 90.4713 118.92 91.902C119.182 92.4028 119.442 92.8978 119.695 93.3902C120.679 95.3065 121.592 97.2299 122.314 99.4579C124.23 105.41 124.953 111.681 124.441 117.913L124.441 117.916C124.377 118.727 124.387 119.627 124.396 120.455C124.4 120.906 124.405 121.335 124.397 121.716C124.373 122.906 124.241 123.808 123.86 124.464C123.685 124.763 123.524 124.989 123.356 125.226C123.282 125.33 123.207 125.436 123.129 125.551C122.898 125.888 122.624 126.327 122.537 126.883C122.384 127.78 121.842 128.605 120.957 129.433C120.064 130.269 118.911 131.028 117.665 131.819C117.543 131.897 117.419 131.975 117.295 132.054C116.19 132.753 115.03 133.487 114.07 134.283C113.004 135.167 112.046 136.235 111.692 137.591C111.466 138.452 111.494 139.374 111.61 140.263C111.722 141.118 111.928 142.022 112.126 142.895L112.15 143C112.578 144.879 112.947 146.613 112.68 148.147C112.276 150.433 110.106 152.651 106.663 154.544C103.277 156.405 98.9094 157.812 94.6084 158.592L94.6068 158.593C87.3406 159.924 82.9581 159.679 80.3379 159.053C77.8545 158.46 76.9177 157.518 76.5534 157.152C76.5412 157.14 76.5296 157.128 76.5187 157.117C76.131 156.729 74.9185 155.247 73.7551 153.79C73.306 153.228 72.8746 152.683 72.518 152.229C72.8939 152.119 73.3147 151.99 73.7431 151.848C74.4314 151.62 75.167 151.349 75.7747 151.058C76.0774 150.912 76.3751 150.75 76.6277 150.569C76.853 150.408 77.1552 150.156 77.3285 149.795C77.4571 149.534 77.5253 149.237 77.5666 148.975C77.6106 148.694 77.6342 148.382 77.643 148.058C77.6607 147.409 77.6205 146.654 77.5355 145.898C77.4503 145.141 77.3177 144.36 77.1429 143.661C76.9739 142.985 76.7479 142.311 76.4449 141.809C76.265 141.503 75.9696 141.183 75.6705 140.891C75.3487 140.576 74.9467 140.221 74.4947 139.842C73.5899 139.082 72.4389 138.186 71.2299 137.261C70.7034 136.859 70.1666 136.451 69.6328 136.045C67.6912 134.57 65.7895 133.125 64.567 132.064C63.4803 131.106 62.4006 130.202 61.3987 129.363C61.0015 129.03 60.6166 128.708 60.2484 128.396C58.9323 127.283 57.8358 126.316 57.0579 125.462L57.0531 125.456L57.0482 125.451C56.2675 124.618 56.1303 124.015 56.1185 123.373C56.1132 123.08 56.1343 122.793 56.1603 122.438C56.1685 122.327 56.1771 122.21 56.1855 122.084C56.2193 121.579 56.2436 120.995 56.179 120.331C55.7161 115.482 56.507 112.773 57.509 109.342C57.7937 108.367 58.0956 107.333 58.3905 106.176L58.3921 106.169C59.2017 102.9 61.9484 96.7808 65.9485 92.7508L65.9495 92.7498C67.3842 91.3005 69.0801 90.6148 70.5943 90.1322C70.8489 90.0511 71.1149 89.971 71.3779 89.8919C71.8474 89.7507 72.3071 89.6123 72.6749 89.4759C73.2132 89.2762 73.9589 88.9519 74.3255 88.2713L74.3292 88.2643L74.3329 88.2572C74.5856 87.7696 74.4809 87.2846 74.2728 86.9444C74.1007 86.6631 73.8483 86.454 73.6587 86.3125C73.3917 86.1132 73.0164 85.8866 72.6494 85.665C72.5001 85.5749 72.3522 85.4856 72.2135 85.3993C71.129 84.7244 70.0892 83.9359 69.6362 82.8159L69.6329 82.8078L69.6295 82.7997C69.2307 81.8616 69.1701 80.4081 70.3592 78.2977L70.3608 78.2949C71.8968 75.5486 73.7359 72.3223 75.0719 70.61C75.379 70.2273 75.6425 69.9417 75.8514 69.7605C75.8566 69.756 75.8616 69.7517 75.8666 69.7474C76.0372 69.9283 76.2514 70.2041 76.5138 70.5794C76.8315 71.0339 77.1538 71.5342 77.5077 72.0837C77.8138 72.5589 78.1436 73.0709 78.5147 73.6219C79.2703 74.7439 80.1342 75.9257 81.0675 76.8272C81.9744 77.7033 83.1202 78.4851 84.4358 78.4494ZM71.6055 151.449C71.683 151.76 71.685 152.092 71.5814 152.302C71.5338 152.345 71.4728 152.389 71.4051 152.43C71.0512 151.977 70.8249 151.681 70.8173 151.662V151.661V151.661C70.8199 151.66 70.8565 151.65 70.9217 151.633C71.0509 151.599 71.2926 151.536 71.6055 151.449ZM76.0698 69.6013C76.0698 69.6014 76.068 69.6023 76.0646 69.6036C76.0681 69.6019 76.0698 69.6012 76.0698 69.6013ZM75.6816 69.5778C75.6788 69.5762 75.6785 69.5759 75.6806 69.5772L75.6816 69.5778Z" fill="#2C2C2C" stroke="#FF6A6A" stroke-width="2"/>
    <path fill-rule="evenodd" clip-rule="evenodd" d="M86.87 44.5231C89.3042 44.2232 92.6391 44.823 94.1736 45.9569C95.6074 47.0241 96.6078 47.591 97.9071 48.0245C102.276 49.4583 108.013 50.1249 107.745 54.0607C107.446 58.7627 106.078 60.8631 102.176 62.0976C99.0411 63.0641 93.4393 68.5005 89.1039 68.5005C87.1699 68.5005 84.4687 68.6001 82.9013 68.0332C81.4008 67.5001 79.3003 64.9653 76.8323 62.9316C74.3642 60.9308 72.0635 58.7965 71.9967 55.9956C71.8961 53.0274 73.8311 52.0609 76.5652 49.6924C77.9991 48.425 80.6006 46.3246 82.4011 45.391C84.0691 44.557 85.1362 44.7234 86.87 44.5231Z" fill="#2C2C2C"/>
    <path d="M87.0356 45.5601L87.0356 45.5601L87.0439 45.5591C88.1327 45.4246 89.4604 45.49 90.6992 45.7271C91.9576 45.9679 92.9983 46.3616 93.5878 46.7961C95.0653 47.8963 96.1558 48.5239 97.5812 48.9976L97.5846 48.9988C98.4252 49.2748 99.3226 49.5251 100.194 49.7681C100.474 49.8462 100.751 49.9235 101.022 50.0007C102.162 50.3243 103.221 50.6494 104.127 51.0392C105.04 51.4321 105.713 51.8568 106.14 52.3348C106.537 52.7792 106.745 53.2932 106.699 53.9899L106.698 53.9934C106.554 56.2624 106.148 57.7336 105.429 58.7689C104.728 59.7787 103.638 60.5056 101.822 61.0791C100.91 61.3608 99.8827 61.9364 98.8545 62.5719C98.325 62.8991 97.7231 63.2892 97.1122 63.6852C96.5793 64.0306 96.0396 64.3804 95.5353 64.6966C94.3867 65.417 93.2367 66.0854 92.1262 66.5743C91.009 67.0661 89.996 67.3467 89.1121 67.3515L89.1096 67.3515C88.9119 67.3531 88.7097 67.3554 88.5043 67.3577C87.6737 67.3672 86.7903 67.3772 85.9341 67.3422C84.851 67.2979 83.9296 67.1837 83.3034 66.9579L83.2986 66.9563C83.0749 66.8769 82.7638 66.6952 82.3494 66.3749C81.9441 66.0617 81.4941 65.6591 80.991 65.188C80.749 64.9615 80.4948 64.719 80.2303 64.4666C79.42 63.6936 78.513 62.8283 77.5638 62.0465L77.5639 62.0465L77.5581 62.0418C76.3323 61.0473 75.2225 60.0918 74.4127 59.0723C73.613 58.0655 73.1599 57.063 73.1496 55.9708L73.1495 55.9631L73.1493 55.9555C73.1205 54.7887 73.4629 54.0541 74.1172 53.3144C74.467 52.9189 74.908 52.5217 75.4583 52.0579C75.647 51.8988 75.8527 51.7286 76.0701 51.5487C76.4625 51.2239 76.8932 50.8675 77.3313 50.4879L77.3313 50.4879L77.3381 50.482C78.7676 49.2207 81.2367 47.1767 82.9067 46.2983C83.928 45.7829 84.5988 45.7412 85.6063 45.6786C86.0128 45.6534 86.4742 45.6247 87.0356 45.5601Z" fill="#2C2C2C" stroke="#FF6A6A" stroke-width="2"/>
    <path d="M149.447 130.723L149.45 130.727C150.058 131.611 150.118 132.69 150.03 134.364C150.024 134.477 150.017 134.594 150.01 134.716C149.971 135.401 149.925 136.209 149.968 136.967C150.021 137.892 150.213 138.96 150.835 139.956L150.837 139.959C152.208 142.146 154.217 144.263 156.068 145.943C157.905 147.609 159.728 148.969 160.845 149.62C161.091 149.77 161.307 149.895 161.499 150.006C161.994 150.294 162.334 150.491 162.651 150.79C162.942 151.064 163.117 151.344 163.103 151.906C163.065 152.926 162.81 153.409 162.612 153.685C162.496 153.847 162.356 153.995 162.168 154.169C162.138 154.197 162.084 154.245 162.018 154.303C161.851 154.452 161.605 154.672 161.455 154.823C161.263 155.015 160.694 155.427 159.642 156.076C158.653 156.686 157.41 157.402 156.02 158.2C155.9 158.269 155.778 158.339 155.656 158.409C152.988 159.939 149.865 161.73 147.335 163.455L147.331 163.458C140.798 167.935 138.459 169.98 136.242 172.197L136.242 172.197C134.762 173.678 133.401 174.588 131.917 175.151C130.416 175.719 128.661 175.98 126.319 175.98C121.654 175.98 119.961 175.021 118.912 174.086L118.903 174.078L118.894 174.07C117.949 173.248 116.36 170.51 116.513 165.841H116.513L116.513 165.828C116.575 163.491 116.977 161.231 117.493 158.453C117.513 158.346 117.533 158.239 117.553 158.13C118.052 155.45 118.628 152.355 119.005 148.496C119.322 145.304 119.318 141.444 119.316 138.013C119.315 137.692 119.315 137.375 119.315 137.063C119.315 134.712 119.333 132.64 119.466 131.089C119.533 130.308 119.622 129.753 119.72 129.401C119.727 129.378 119.733 129.356 119.739 129.337C120.421 128.919 120.703 128.796 120.943 128.732C121.238 128.652 121.606 128.625 122.718 128.625C123.785 128.625 124.379 128.662 124.758 128.739C124.833 128.755 124.892 128.77 124.938 128.784C124.941 128.852 124.943 128.938 124.941 129.046C124.933 129.516 124.87 130.073 124.784 130.833C124.757 131.072 124.728 131.331 124.698 131.613L124.696 131.628L124.695 131.644C124.56 133.103 124.836 134.284 125.479 135.276C125.963 136.02 126.64 136.595 127.065 136.954C127.129 137.009 127.188 137.059 127.24 137.104L127.254 137.116L127.268 137.128C127.333 137.183 127.408 137.248 127.492 137.322C127.905 137.684 128.548 138.246 129.383 138.698C130.446 139.272 131.777 139.673 133.626 139.824L133.637 139.825L133.647 139.826C135.396 139.951 136.745 139.883 137.927 139.587C139.133 139.286 140.028 138.779 140.859 138.256L140.86 138.255C141.708 137.72 142.699 136.995 143.581 136.275C144.434 135.58 145.315 134.786 145.855 134.112L145.855 134.112L145.861 134.105C146.229 133.64 146.786 132.77 147.277 132C147.404 131.802 147.527 131.61 147.641 131.434C147.9 131.033 148.129 130.687 148.315 130.425C148.478 130.403 148.636 130.391 148.786 130.398C149.118 130.413 149.29 130.494 149.447 130.723ZM125.106 128.873C125.101 128.868 125.096 128.863 125.091 128.858C125.097 128.863 125.1 128.867 125.104 128.87C125.104 128.871 125.105 128.872 125.106 128.873L125.106 128.873ZM147.329 130.56L147.34 130.559L147.329 130.56Z" fill="#2C2C2C" stroke="#FF6A6A" stroke-width="4"/>
    <path d="M35.9528 136.349L35.953 136.349C37.7483 135.052 39.186 133.163 40.3089 131.561C40.5962 131.151 40.8716 130.746 41.13 130.366L41.1659 130.313C41.4135 129.949 41.6434 129.611 41.8651 129.294C42.3431 128.611 42.7128 128.129 43.0127 127.824C44.7197 126.083 45.7073 125.247 47.4983 125.288C47.6537 125.294 48.225 125.467 49.2584 126.313C50.2137 127.095 51.2895 128.221 52.4074 129.555C54.6341 132.212 56.8384 135.46 58.3387 137.802C59.7107 139.973 60.609 141.43 61.6131 143.058C61.7132 143.22 61.8143 143.384 61.9171 143.551C63.0534 145.393 64.3827 147.542 66.6716 151.167C68.2692 153.698 69.9037 155.723 71.2247 157.359C71.8175 158.093 72.3471 158.749 72.7819 159.338C74.2186 161.282 75.0256 162.919 75.0667 165.505L75.0667 165.505C75.118 168.72 74.8257 169.427 74.6001 169.748C74.4712 169.932 74.2702 170.124 73.7276 170.539C73.6468 170.601 73.5599 170.667 73.4676 170.736C72.9787 171.106 72.3347 171.593 71.6009 172.25C71.116 172.68 70.7035 173.058 70.3383 173.393C69.3444 174.303 68.7007 174.893 67.8999 175.338C66.9963 175.84 65.8132 176.165 63.4175 175.985C61.1118 175.795 58.1108 174.693 54.332 173.261C54.2318 173.223 54.1312 173.185 54.0302 173.147C50.4473 171.788 46.3408 170.231 42.0939 169.351C34.2209 167.706 29.7629 166.739 27.0447 165.845C25.7053 165.404 24.921 165.022 24.4074 164.664C23.9389 164.338 23.6336 163.99 23.3315 163.488C22.8509 162.657 22.9076 161.873 23.401 159.514L23.4051 159.494L23.4088 159.474C23.4459 159.277 23.486 159.071 23.5279 158.855C23.8492 157.2 24.2758 155.004 24.2763 152.239C24.2901 149.396 23.9663 147.024 23.7154 145.186C23.6518 144.72 23.5929 144.289 23.5454 143.893C23.2929 141.789 23.4194 141 23.8374 140.437C23.9653 140.274 24.3494 139.976 25.2741 139.643C26.1621 139.323 27.2638 139.067 28.53 138.796C28.7248 138.755 28.924 138.713 29.1261 138.67C30.1838 138.447 31.3235 138.206 32.3667 137.915C33.5905 137.573 34.9077 137.103 35.9528 136.349Z" fill="#2C2C2C" stroke="#FF6A6A" stroke-width="4"/>
    </svg>
    