<svg width="187" height="187" viewBox="0 0 187 187" fill="none" xmlns="http://www.w3.org/2000/svg">
<g clip-path="url(#clip0_187_580)">
<path d="M97.1613 0C95.9569 0 94.7136 0.0621633 93.4315 0.163179C60.5937 2.75073 69.3044 37.5156 68.7993 49.1013C68.2087 57.5866 66.4681 64.2769 60.6403 72.5679C53.7635 80.7346 44.1127 93.9366 39.5359 107.698C37.3757 114.163 36.35 120.783 37.3058 127.039C36.9514 127.325 36.6603 127.683 36.451 128.088C34.4307 130.17 32.9543 132.75 31.2992 134.607C29.7529 136.153 27.5306 136.682 25.1062 137.715C22.6741 138.772 19.9933 139.805 18.3926 142.999C17.6932 144.468 17.3358 146.061 17.3669 147.677C17.3669 149.223 17.5767 150.785 17.7943 151.842C18.2449 154.942 18.6956 157.499 18.1051 159.379C16.1702 164.663 15.9294 168.276 17.2814 170.91C18.6335 173.506 21.4386 174.562 24.5856 175.58C30.8796 177.134 39.4271 176.629 46.1407 180.243C53.3361 183.864 60.6403 185.449 66.4681 183.895C70.5554 182.993 74.0055 180.289 75.8548 176.544C80.416 176.521 85.4124 174.454 93.416 173.949C98.8475 173.498 105.647 176.023 113.44 175.503C113.635 176.544 113.93 177.041 114.326 178.09L114.349 178.113C117.388 184.159 122.998 186.91 128.989 186.436C134.98 185.969 141.359 182.271 146.527 176.287C151.43 170.343 159.604 167.864 165.005 164.609C167.709 163.062 169.892 160.964 170.048 157.98C170.227 154.872 168.494 151.679 164.5 147.288V146.535L164.476 146.511C163.155 144.957 162.534 142.354 161.85 139.316C161.19 136.2 160.436 133.208 158.027 131.188H158.004C157.545 130.768 157.048 130.667 156.543 130.139C156.108 129.836 155.596 129.663 155.066 129.642C158.415 119.711 157.118 109.827 153.722 100.938C149.581 89.9814 142.338 80.4394 136.822 73.8734C130.636 66.0641 124.575 58.6666 124.7 47.7026C124.902 30.9807 126.533 0.0466225 97.1613 0V0ZM101.272 26.4583H101.373C103.028 26.4583 104.45 26.94 105.911 27.9968C107.387 29.0458 108.475 30.5766 109.314 32.1384C110.13 34.151 110.542 35.7051 110.604 37.7642C110.604 37.6088 110.651 37.4534 110.651 37.298V38.1139C110.634 38.061 110.623 38.0062 110.62 37.9507L110.589 37.7642C110.573 39.6526 110.176 41.5185 109.423 43.2501C109.06 44.2244 108.496 45.1113 107.768 45.8532C107.548 45.7289 107.319 45.6199 107.084 45.5269C106.276 45.1772 105.546 45.0296 104.877 44.4934C104.324 44.2728 103.752 44.1012 103.168 43.9806C103.556 43.5143 104.302 42.9471 104.59 42.442C105.002 41.4474 105.227 40.3906 105.274 39.3183V39.1629C105.291 38.1076 105.131 37.0568 104.8 36.0547C104.45 35.0135 104.015 34.5007 103.378 33.4672C102.725 32.9543 102.08 32.4415 101.303 32.4415H101.179C100.456 32.4415 99.811 32.6746 99.1428 33.4672C98.4048 34.1868 97.8574 35.0787 97.5498 36.0625C97.1371 37.0498 96.9004 38.1017 96.8505 39.1707V39.3183C96.866 40.0099 96.9126 40.7092 97.0059 41.393C95.5062 40.8724 93.6024 40.344 92.2892 39.8234C92.2108 39.3087 92.1641 38.7897 92.1494 38.2693V38.1139C92.0883 36.0627 92.4866 34.0237 93.3149 32.1462C93.9521 30.4367 95.1177 28.9914 96.6562 28.0046C97.9845 26.9978 99.6051 26.4522 101.272 26.4505V26.4583ZM78.2559 26.9167H78.5356C79.639 26.9167 80.6336 27.2897 81.636 27.9657C82.7705 28.9681 83.6874 30.2036 84.309 31.579C85.0084 33.1253 85.3969 34.6871 85.4979 36.7618V36.7929C85.5523 37.8342 85.5445 38.347 85.4824 38.8599V39.4815C85.2493 39.5359 85.0472 39.6214 84.8374 39.668C83.6563 40.0954 82.7083 40.717 81.7836 41.2221C81.8769 40.5227 81.8847 39.8234 81.807 39.1474V39.0308C81.7137 37.9973 81.4961 37.4767 81.1698 36.4433C80.9275 35.6513 80.4829 34.9362 79.8799 34.3686C79.6884 34.1944 79.4638 34.0606 79.2195 33.9752C78.9752 33.8898 78.7162 33.8544 78.4579 33.8712H78.2947C77.743 33.9179 77.2846 34.1821 76.8494 34.8969C76.3537 35.4986 76.0314 36.2239 75.917 36.995C75.7069 37.8325 75.6464 38.7006 75.7383 39.5592V39.6757C75.8315 40.7248 76.0258 41.2298 76.3599 42.2711C76.7173 43.3123 77.1214 43.8252 77.6498 44.3535C77.7275 44.4235 77.8052 44.4934 77.914 44.54C77.37 44.9829 77.0048 45.084 76.5464 45.5968C76.2556 45.8539 75.906 46.0354 75.5285 46.1252C74.7207 45.1526 74.0053 44.1068 73.3916 43.0015C72.6569 41.3686 72.2478 39.6081 72.1872 37.8186C72.0585 36.0645 72.2696 34.3021 72.8088 32.628C73.2368 31.1012 73.9866 29.6838 75.0078 28.4708C76.0024 27.4373 77.0281 26.9167 78.2559 26.9167ZM88.9013 40.1731C91.4811 40.1731 94.5971 40.6781 98.3502 43.2734C100.627 44.8275 102.414 45.3637 106.525 46.91H106.548C108.529 47.9668 109.695 48.9769 110.262 50.0104V48.9925C110.541 49.5575 110.696 50.1754 110.718 50.8051C110.739 51.4348 110.626 52.0619 110.387 52.6446C109.431 55.0534 106.377 57.641 102.127 59.1873V59.2028C100.044 60.2518 98.2336 61.7904 96.1045 62.816C93.9599 63.8651 91.5355 65.085 88.2409 64.8907C87.0573 64.952 85.8735 64.775 84.7597 64.3701C83.8991 63.9019 83.0639 63.3883 82.2576 62.8316C80.7424 61.7826 79.437 60.2518 77.5021 59.2183V59.1795H77.4633C74.3551 57.268 72.6767 55.201 72.1328 53.6625C71.5889 51.58 72.0939 50.0104 73.6325 49.0002C75.373 47.9512 76.5852 46.8945 77.3856 46.3894C78.1937 45.8144 78.4968 45.5968 78.7532 45.3715H78.7687V45.3482C80.0819 43.7785 82.1566 41.6961 85.2881 40.6781C86.3682 40.3984 87.5726 40.1731 88.9091 40.1731H88.9013ZM110.659 56.8173C113.44 67.828 119.952 83.8195 124.14 91.5744C126.363 95.7238 130.784 104.465 132.703 115.072C133.915 115.033 135.267 115.212 136.689 115.569C141.709 102.585 132.447 88.6294 128.227 84.7519C126.518 83.1978 126.425 82.1488 127.272 82.1488C131.856 86.2982 137.878 94.3639 140.062 103.572C141.072 107.729 141.305 112.15 140.225 116.548C140.746 116.766 141.274 117.015 141.818 117.069C149.837 121.218 152.797 124.358 151.376 129.012V128.678C150.909 128.655 150.443 128.678 149.977 128.678H149.852C151.026 125.049 148.438 122.268 141.577 119.167C134.467 116.059 128.787 116.556 127.823 122.78C127.761 123.114 127.722 123.293 127.683 123.829C127.155 124.008 126.603 124.241 126.059 124.327C122.718 126.409 120.915 129.525 119.898 133.55C118.887 137.692 118.577 142.533 118.305 148.073V148.096C118.149 150.692 116.984 154.608 115.826 158.586C104.17 166.916 88.0077 170.537 74.2696 161.182C73.4075 159.675 72.3579 158.283 71.1459 157.04C70.5668 156.076 69.8465 155.204 69.0091 154.453C70.4233 154.453 71.6355 154.219 72.6223 153.932C73.7397 153.414 74.6138 152.484 75.0622 151.337C75.9014 149.262 75.0622 145.921 72.3814 142.3C69.7006 138.671 65.1472 134.568 58.4879 130.481C53.5926 127.373 50.8263 123.721 49.552 119.633C48.2698 115.484 48.4408 111.202 49.4354 106.851C51.3391 98.5367 56.219 90.4554 59.3349 85.3813C60.1663 84.8763 59.6224 86.4303 56.1646 92.9497C53.0875 98.7853 47.3063 112.352 55.2166 122.897C55.5154 115.203 57.2193 107.629 60.244 100.549C64.6266 90.6186 73.7879 73.3217 74.5105 59.6146C74.8835 59.8944 76.1967 60.6636 76.7562 61.1843C78.4501 62.2177 79.7089 63.7718 81.3407 64.7975C82.9725 66.3594 85.0472 67.4006 88.1476 67.4006C88.4507 67.4239 88.7304 67.4472 89.0024 67.4472C92.2038 67.4472 94.6748 66.406 96.7495 65.3647C99.0029 64.3235 100.79 62.7694 102.5 62.2566H102.538C106.167 61.2076 109.027 59.1329 110.651 56.8173H110.659ZM127.637 126.425C127.924 131.087 130.302 136.099 134.49 137.125C139.059 138.166 145.633 134.537 148.407 131.18L150.047 131.102C152.494 131.048 154.53 131.18 156.628 133.185L156.652 133.208C158.268 134.755 159.022 137.327 159.69 140.015C160.35 143.123 160.886 146.076 162.868 148.298C166.644 152.393 167.88 155.338 167.81 157.157L167.833 157.102V157.242L167.81 157.149C167.693 159.185 166.372 160.226 163.94 161.772C159.045 164.888 150.373 167.305 144.848 173.972C140.046 179.699 134.203 182.83 129.028 183.226C123.868 183.638 119.416 181.672 116.797 176.249L116.758 176.225C115.127 173.117 115.826 168.261 117.193 163.093C118.561 157.903 120.519 152.65 120.791 148.353C121.079 142.805 121.382 137.979 122.306 134.257C123.239 130.644 124.7 128.064 127.287 126.611L127.637 126.44V126.425ZM43.6076 126.805H43.6853C44.0971 126.805 44.5012 126.844 44.9052 126.914C47.8269 127.342 50.3912 129.502 52.8544 132.758L59.9255 145.688L59.9488 145.711C61.837 149.852 65.8077 153.979 69.1878 158.431C72.5602 163.078 75.171 167.219 74.8524 170.631V170.677C74.4095 176.458 71.1226 179.598 66.1107 180.732C61.0988 181.781 54.2997 180.748 47.5006 177.127C39.9788 172.962 31.0428 173.482 25.3005 172.449C22.4332 171.936 20.5605 170.895 19.6825 169.341C18.8277 167.787 18.8044 164.663 20.6382 159.783V159.752L20.6538 159.729C21.5629 157.133 20.8869 153.885 20.444 151.041C20.0166 147.925 19.799 145.524 20.7781 143.737C22.0214 141.142 23.8552 140.629 26.1397 139.596C28.4242 138.547 31.1128 138.026 33.2496 135.943H33.2652V135.928C35.2544 133.845 36.723 131.258 38.4558 129.416C39.9322 127.854 41.4086 126.805 43.6076 126.805ZM99.236 56.2967C95.8559 57.8585 91.893 60.4538 87.6736 60.4538C83.4621 60.4538 80.1363 58.3791 77.7275 56.8328C76.5308 55.7916 75.5518 54.7504 74.8291 54.2297C73.5548 53.1885 73.7102 51.6422 74.2541 51.6422C75.1011 51.7665 75.2565 52.6834 75.8004 53.1963C76.5464 53.7091 77.4711 54.7504 78.5978 55.7838C80.8667 57.3379 83.8817 59.4126 87.6658 59.4126C91.4345 59.4126 95.8481 57.3379 98.5289 55.7916C100.044 54.7426 101.987 53.1963 103.564 52.1628C104.776 51.106 104.722 50.0881 105.732 50.0881C106.727 50.2124 105.996 51.1293 104.59 52.6679C102.866 53.9713 101.077 55.1851 99.2282 56.3044L99.236 56.2967ZM90.8284 43.9961V43.8251C90.7818 43.6697 90.9294 43.4988 91.0537 43.4366C91.6288 43.1025 92.4524 43.2268 93.0741 43.4677C93.5636 43.4677 94.3173 43.9883 94.2396 44.5167C94.193 44.8975 93.5791 45.0296 93.1906 45.0296C92.7632 45.0296 92.4757 44.6954 92.095 44.5012C91.6909 44.3613 90.9605 44.439 90.8284 43.9961ZM86.5469 43.9961C86.3915 44.4468 85.6689 44.3769 85.257 44.5089C84.8918 44.7032 84.5888 45.0373 84.1692 45.0373C83.7806 45.0373 83.159 44.8819 83.1124 44.5089C83.0347 43.9961 83.7962 43.4755 84.2779 43.4755C84.8996 43.2346 85.7077 43.1103 86.2905 43.4366C86.4381 43.5066 86.5702 43.6697 86.5236 43.8251V43.9806H86.5469V43.9961Z" fill="#FF6A6A"/>
</g>
<defs>
<clipPath id="clip0_187_580">
<rect width="186.49" height="186.49" fill="white"/>
</clipPath>
</defs>
</svg>
