<svg width="187" height="187" viewBox="0 0 187 187" fill="none" xmlns="http://www.w3.org/2000/svg">
<g clip-path="url(#clip0_605_854)">
<mask id="path-1-inside-1_605_854" fill="white">
<path d="M127.474 42.7451C126.58 42.7451 125.974 42.8539 125.345 43.0015V43.1025H125.453C125.873 43.9106 126.588 44.5012 127.116 45.2238C127.536 46.0553 127.893 46.8867 128.313 47.7104L128.422 47.5938C129.152 47.081 129.51 46.2573 129.51 45.0063C129.199 44.641 129.152 44.2758 128.888 43.9184C128.577 43.3978 127.909 43.1414 127.489 42.7295L127.474 42.7451ZM44.8353 145.268H37.6321C37.4296 133.82 36.7296 122.387 35.5341 111H35.472L24.5157 145.268H19.0375L8.15894 111H8.08123C7.23032 122.405 6.72501 133.833 6.566 145.268H0C0.427373 129.991 1.49192 115.663 3.18587 102.298H12.1218L22.4954 133.877H22.5575L33.0243 102.298H41.5329C43.4133 117.955 44.5167 132.291 44.8586 145.268H44.8353ZM76.0491 113.565C73.1118 129.455 69.2422 141.018 64.4556 148.221C60.7103 153.784 56.6075 156.558 52.155 156.558C50.9662 156.558 49.5131 156.201 47.757 155.486V151.647C48.6117 151.78 49.6219 151.849 50.7564 151.849C52.8388 151.849 54.5095 151.267 55.7838 150.124C57.3146 148.726 58.0761 147.156 58.0761 145.423C58.0761 144.219 57.4778 141.771 56.2889 138.088L48.4097 113.565H55.4808L61.1299 131.903C62.4042 136.068 62.9404 138.974 62.7228 140.629C65.831 132.361 67.9911 123.324 69.2111 113.565H76.0491ZM171.819 145.268H151.383V102.298H158.26V139.984H171.819V145.268ZM146.022 146.317L138.127 142.432C138.826 141.841 139.502 141.204 140.108 140.489C143.473 136.557 145.144 130.714 145.144 122.982C145.144 108.763 139.564 101.645 128.398 101.645C122.928 101.645 118.654 103.448 115.577 107.061C112.236 111.008 110.557 116.82 110.557 124.505C110.557 132.058 112.034 137.606 115.018 141.134C117.737 144.32 121.832 145.913 127.318 145.913C129.37 145.913 131.25 145.656 132.952 145.151L143.248 151.15L146.045 146.317H146.022ZM120.441 136.666C118.693 133.869 117.823 129.362 117.823 123.177C117.823 112.352 121.117 106.936 127.691 106.936C131.134 106.936 133.674 108.234 135.283 110.822C137.024 113.635 137.894 118.095 137.894 124.21C137.894 135.12 134.599 140.59 128.025 140.59C124.568 140.59 122.042 139.292 120.426 136.705L120.441 136.666ZM107.558 133.364C107.558 137.016 106.222 140.015 103.549 142.346C100.876 144.677 97.3089 145.843 92.7943 145.843C88.575 145.843 84.5266 144.506 80.5715 141.841L82.413 138.142C85.8165 139.852 88.8858 140.691 91.6598 140.691C94.2396 140.691 96.2677 140.124 97.7441 138.982C98.482 138.425 99.0778 137.702 99.483 136.872C99.8881 136.041 100.091 135.127 100.075 134.203C100.075 131.639 98.288 129.463 95.04 127.637C92.025 125.982 86.003 122.532 86.003 122.532C82.7239 120.146 81.0921 117.59 81.0921 113.386C81.0921 109.889 82.312 107.092 84.7442 104.955C87.1918 102.795 90.3389 101.73 94.2241 101.73C98.2025 101.73 101.839 102.787 105.103 104.916L103.448 108.615C100.84 107.469 98.0279 106.862 95.1798 106.828C92.9808 106.828 91.2791 107.356 90.098 108.428C89.4986 108.925 89.0154 109.547 88.6825 110.25C88.3495 110.954 88.1749 111.722 88.1709 112.5C88.1709 115.049 89.9892 117.24 93.346 119.105C96.3998 120.776 102.569 124.311 102.569 124.311C105.934 126.681 107.605 129.206 107.605 133.387L107.558 133.364ZM180.46 87.8912C176.303 87.7824 173.078 88.202 170.382 89.352C169.605 89.6628 168.362 89.6628 168.253 90.6497C168.68 91.0615 168.742 91.7375 169.108 92.3126C169.729 93.3538 170.802 94.7447 171.796 95.4751C172.884 96.3299 173.972 97.1535 175.114 97.8839C177.134 99.1272 179.427 99.8654 181.408 101.116C182.535 101.847 183.685 102.772 184.827 103.549C185.394 103.937 185.76 104.636 186.49 104.885V104.73C186.133 104.263 186.024 103.587 185.674 103.067C185.153 102.546 184.633 102.08 184.12 101.567C182.594 99.5567 180.774 97.7883 178.72 96.3221C177.057 95.1876 173.42 93.6024 172.736 91.6987L172.635 91.5899C173.77 91.4889 175.122 91.0771 176.21 90.7662C177.974 90.3 179.59 90.401 181.416 89.9426C182.24 89.7328 183.071 89.4764 183.902 89.2122V88.7459C182.97 87.8135 182.271 86.5469 181.307 85.6766C178.618 83.3258 175.75 81.1877 172.729 79.2816C171.097 78.2403 169.03 77.5721 167.313 76.6863C166.691 76.3754 165.65 76.22 165.292 75.6994C164.36 74.5649 163.816 73.0575 163.155 71.7054C161.63 68.7456 160.212 65.7312 158.905 62.6684C157.973 60.6326 157.405 58.6045 156.263 56.7396C150.901 47.9046 145.097 42.5508 136.169 37.3135C134.249 36.2257 131.949 35.7595 129.517 35.1844C128.22 35.1223 126.922 35.029 125.632 34.9746C124.777 34.6094 123.954 33.6226 123.223 33.1486C120.271 31.2837 112.624 27.2431 110.449 32.5891C109.05 35.9615 112.523 39.2872 113.728 40.9967C114.621 42.1856 115.748 43.5454 116.37 44.8819C116.735 45.7833 116.836 46.708 117.201 47.6482C118.025 49.9327 118.81 52.4814 119.898 54.6183C120.465 55.7061 121.086 56.8484 121.817 57.8274C122.236 58.3947 122.951 58.6589 123.114 59.5913C122.384 60.6481 122.337 62.1866 121.918 63.4765C120.053 69.3587 120.783 76.6319 123.425 80.96C124.257 82.2499 126.238 85.1094 128.888 84.0138C131.219 83.0813 130.706 80.1285 131.374 77.5255C131.53 76.9038 131.429 76.492 131.747 76.0724V76.1889C132.478 77.6498 133.208 79.0407 133.877 80.5015C135.477 83.0502 138.275 85.6922 140.613 87.456C141.857 88.3885 142.844 90.0047 144.398 90.5797V90.4243H144.281C143.947 89.9737 143.504 89.7561 143.084 89.3909C142.099 88.4264 141.19 87.3873 140.365 86.2827C138.175 83.2912 136.234 80.1259 134.56 76.8183C133.706 75.1866 132.991 73.4304 132.307 71.822C131.996 71.2003 131.996 70.2679 131.475 69.9571C130.698 71.0915 129.556 72.0784 128.989 73.4771C128.002 75.7149 127.901 78.4657 127.528 81.3252C127.318 81.3796 127.419 81.3252 127.318 81.434C125.655 81.0299 125.088 79.3049 124.467 77.8596C122.912 74.1686 122.656 68.2398 124 63.9894C124.366 62.9015 125.92 59.467 125.298 58.4258C124.972 57.4389 123.946 56.8717 123.379 56.0713C122.649 55.0296 122.024 53.9182 121.514 52.7534C120.271 49.8472 119.649 46.6303 118.297 43.7241C117.675 42.3799 116.587 40.9734 115.702 39.7379C114.715 38.3392 113.627 37.3524 112.842 35.6973C112.586 35.1301 112.22 34.1898 112.632 33.5682C112.741 33.1486 112.959 32.9854 113.363 32.8689C114.046 32.3094 115.966 33.0398 116.642 33.3506C118.561 34.1277 120.177 34.8581 121.786 35.946C122.516 36.4588 123.301 37.4456 124.233 37.7021H125.321C126.984 38.0673 128.857 37.8109 130.411 38.2693C133.169 39.1551 135.656 40.445 137.886 41.8437C144.758 46.2333 150.347 52.3614 154.087 59.6069C154.709 60.8035 154.981 61.8991 155.548 63.1424C156.636 65.7067 157.98 68.2942 159.084 70.773C160.172 73.2206 161.221 75.7149 162.782 77.743C163.559 78.8309 166.683 79.3981 168.082 79.9654C169.115 80.4316 170.724 80.859 171.656 81.4262C173.443 82.5141 175.184 83.7573 176.862 84.954C177.717 85.5445 180.305 86.8422 180.46 87.8912Z"/>
</mask>
<path d="M127.474 42.7451C126.58 42.7451 125.974 42.8539 125.345 43.0015V43.1025H125.453C125.873 43.9106 126.588 44.5012 127.116 45.2238C127.536 46.0553 127.893 46.8867 128.313 47.7104L128.422 47.5938C129.152 47.081 129.51 46.2573 129.51 45.0063C129.199 44.641 129.152 44.2758 128.888 43.9184C128.577 43.3978 127.909 43.1414 127.489 42.7295L127.474 42.7451ZM44.8353 145.268H37.6321C37.4296 133.82 36.7296 122.387 35.5341 111H35.472L24.5157 145.268H19.0375L8.15894 111H8.08123C7.23032 122.405 6.72501 133.833 6.566 145.268H0C0.427373 129.991 1.49192 115.663 3.18587 102.298H12.1218L22.4954 133.877H22.5575L33.0243 102.298H41.5329C43.4133 117.955 44.5167 132.291 44.8586 145.268H44.8353ZM76.0491 113.565C73.1118 129.455 69.2422 141.018 64.4556 148.221C60.7103 153.784 56.6075 156.558 52.155 156.558C50.9662 156.558 49.5131 156.201 47.757 155.486V151.647C48.6117 151.78 49.6219 151.849 50.7564 151.849C52.8388 151.849 54.5095 151.267 55.7838 150.124C57.3146 148.726 58.0761 147.156 58.0761 145.423C58.0761 144.219 57.4778 141.771 56.2889 138.088L48.4097 113.565H55.4808L61.1299 131.903C62.4042 136.068 62.9404 138.974 62.7228 140.629C65.831 132.361 67.9911 123.324 69.2111 113.565H76.0491ZM171.819 145.268H151.383V102.298H158.26V139.984H171.819V145.268ZM146.022 146.317L138.127 142.432C138.826 141.841 139.502 141.204 140.108 140.489C143.473 136.557 145.144 130.714 145.144 122.982C145.144 108.763 139.564 101.645 128.398 101.645C122.928 101.645 118.654 103.448 115.577 107.061C112.236 111.008 110.557 116.82 110.557 124.505C110.557 132.058 112.034 137.606 115.018 141.134C117.737 144.32 121.832 145.913 127.318 145.913C129.37 145.913 131.25 145.656 132.952 145.151L143.248 151.15L146.045 146.317H146.022ZM120.441 136.666C118.693 133.869 117.823 129.362 117.823 123.177C117.823 112.352 121.117 106.936 127.691 106.936C131.134 106.936 133.674 108.234 135.283 110.822C137.024 113.635 137.894 118.095 137.894 124.21C137.894 135.12 134.599 140.59 128.025 140.59C124.568 140.59 122.042 139.292 120.426 136.705L120.441 136.666ZM107.558 133.364C107.558 137.016 106.222 140.015 103.549 142.346C100.876 144.677 97.3089 145.843 92.7943 145.843C88.575 145.843 84.5266 144.506 80.5715 141.841L82.413 138.142C85.8165 139.852 88.8858 140.691 91.6598 140.691C94.2396 140.691 96.2677 140.124 97.7441 138.982C98.482 138.425 99.0778 137.702 99.483 136.872C99.8881 136.041 100.091 135.127 100.075 134.203C100.075 131.639 98.288 129.463 95.04 127.637C92.025 125.982 86.003 122.532 86.003 122.532C82.7239 120.146 81.0921 117.59 81.0921 113.386C81.0921 109.889 82.312 107.092 84.7442 104.955C87.1918 102.795 90.3389 101.73 94.2241 101.73C98.2025 101.73 101.839 102.787 105.103 104.916L103.448 108.615C100.84 107.469 98.0279 106.862 95.1798 106.828C92.9808 106.828 91.2791 107.356 90.098 108.428C89.4986 108.925 89.0154 109.547 88.6825 110.25C88.3495 110.954 88.1749 111.722 88.1709 112.5C88.1709 115.049 89.9892 117.24 93.346 119.105C96.3998 120.776 102.569 124.311 102.569 124.311C105.934 126.681 107.605 129.206 107.605 133.387L107.558 133.364ZM180.46 87.8912C176.303 87.7824 173.078 88.202 170.382 89.352C169.605 89.6628 168.362 89.6628 168.253 90.6497C168.68 91.0615 168.742 91.7375 169.108 92.3126C169.729 93.3538 170.802 94.7447 171.796 95.4751C172.884 96.3299 173.972 97.1535 175.114 97.8839C177.134 99.1272 179.427 99.8654 181.408 101.116C182.535 101.847 183.685 102.772 184.827 103.549C185.394 103.937 185.76 104.636 186.49 104.885V104.73C186.133 104.263 186.024 103.587 185.674 103.067C185.153 102.546 184.633 102.08 184.12 101.567C182.594 99.5567 180.774 97.7883 178.72 96.3221C177.057 95.1876 173.42 93.6024 172.736 91.6987L172.635 91.5899C173.77 91.4889 175.122 91.0771 176.21 90.7662C177.974 90.3 179.59 90.401 181.416 89.9426C182.24 89.7328 183.071 89.4764 183.902 89.2122V88.7459C182.97 87.8135 182.271 86.5469 181.307 85.6766C178.618 83.3258 175.75 81.1877 172.729 79.2816C171.097 78.2403 169.03 77.5721 167.313 76.6863C166.691 76.3754 165.65 76.22 165.292 75.6994C164.36 74.5649 163.816 73.0575 163.155 71.7054C161.63 68.7456 160.212 65.7312 158.905 62.6684C157.973 60.6326 157.405 58.6045 156.263 56.7396C150.901 47.9046 145.097 42.5508 136.169 37.3135C134.249 36.2257 131.949 35.7595 129.517 35.1844C128.22 35.1223 126.922 35.029 125.632 34.9746C124.777 34.6094 123.954 33.6226 123.223 33.1486C120.271 31.2837 112.624 27.2431 110.449 32.5891C109.05 35.9615 112.523 39.2872 113.728 40.9967C114.621 42.1856 115.748 43.5454 116.37 44.8819C116.735 45.7833 116.836 46.708 117.201 47.6482C118.025 49.9327 118.81 52.4814 119.898 54.6183C120.465 55.7061 121.086 56.8484 121.817 57.8274C122.236 58.3947 122.951 58.6589 123.114 59.5913C122.384 60.6481 122.337 62.1866 121.918 63.4765C120.053 69.3587 120.783 76.6319 123.425 80.96C124.257 82.2499 126.238 85.1094 128.888 84.0138C131.219 83.0813 130.706 80.1285 131.374 77.5255C131.53 76.9038 131.429 76.492 131.747 76.0724V76.1889C132.478 77.6498 133.208 79.0407 133.877 80.5015C135.477 83.0502 138.275 85.6922 140.613 87.456C141.857 88.3885 142.844 90.0047 144.398 90.5797V90.4243H144.281C143.947 89.9737 143.504 89.7561 143.084 89.3909C142.099 88.4264 141.19 87.3873 140.365 86.2827C138.175 83.2912 136.234 80.1259 134.56 76.8183C133.706 75.1866 132.991 73.4304 132.307 71.822C131.996 71.2003 131.996 70.2679 131.475 69.9571C130.698 71.0915 129.556 72.0784 128.989 73.4771C128.002 75.7149 127.901 78.4657 127.528 81.3252C127.318 81.3796 127.419 81.3252 127.318 81.434C125.655 81.0299 125.088 79.3049 124.467 77.8596C122.912 74.1686 122.656 68.2398 124 63.9894C124.366 62.9015 125.92 59.467 125.298 58.4258C124.972 57.4389 123.946 56.8717 123.379 56.0713C122.649 55.0296 122.024 53.9182 121.514 52.7534C120.271 49.8472 119.649 46.6303 118.297 43.7241C117.675 42.3799 116.587 40.9734 115.702 39.7379C114.715 38.3392 113.627 37.3524 112.842 35.6973C112.586 35.1301 112.22 34.1898 112.632 33.5682C112.741 33.1486 112.959 32.9854 113.363 32.8689C114.046 32.3094 115.966 33.0398 116.642 33.3506C118.561 34.1277 120.177 34.8581 121.786 35.946C122.516 36.4588 123.301 37.4456 124.233 37.7021H125.321C126.984 38.0673 128.857 37.8109 130.411 38.2693C133.169 39.1551 135.656 40.445 137.886 41.8437C144.758 46.2333 150.347 52.3614 154.087 59.6069C154.709 60.8035 154.981 61.8991 155.548 63.1424C156.636 65.7067 157.98 68.2942 159.084 70.773C160.172 73.2206 161.221 75.7149 162.782 77.743C163.559 78.8309 166.683 79.3981 168.082 79.9654C169.115 80.4316 170.724 80.859 171.656 81.4262C173.443 82.5141 175.184 83.7573 176.862 84.954C177.717 85.5445 180.305 86.8422 180.46 87.8912Z" stroke="#FF6A6A" stroke-width="10" mask="url(#path-1-inside-1_605_854)"/>
</g>
<defs>
<clipPath id="clip0_605_854">
<rect width="186.49" height="186.49" fill="white"/>
</clipPath>
</defs>
</svg>
