<svg width="37" height="36" viewBox="0 0 37 36" fill="none" xmlns="http://www.w3.org/2000/svg">
<path d="M11.9351 20.205H13.6066V16.47H15.7751C16.257 16.47 16.6561 16.3125 16.9723 15.9975C17.2885 15.6825 17.4467 15.285 17.4467 14.805V12.645C17.4467 12.165 17.2885 11.7675 16.9723 11.4525C16.6561 11.1375 16.257 10.98 15.7751 10.98H11.9351V20.205ZM13.6066 14.805V12.645H15.7751V14.805H13.6066ZM19.4344 20.205H23.2293C23.6811 20.205 24.0726 20.0475 24.4039 19.7325C24.7352 19.4175 24.9008 19.02 24.9008 18.54V12.645C24.9008 12.165 24.7352 11.7675 24.4039 11.4525C24.0726 11.1375 23.6811 10.98 23.2293 10.98H19.4344V20.205ZM21.106 18.54V12.645H23.2293V18.54H21.106ZM27.1145 20.205H28.786V16.47H31.0449V14.805H28.786V12.645H31.0449V10.98H27.1145V20.205ZM8.72753 30.6C8.0047 30.6 7.37223 30.33 6.8301 29.79C6.28798 29.25 6.01692 28.62 6.01692 27.9V2.7C6.01692 1.98 6.28798 1.35 6.8301 0.81C7.37223 0.27 8.0047 0 8.72753 0H34.0265C34.7494 0 35.3819 0.27 35.924 0.81C36.4661 1.35 36.7372 1.98 36.7372 2.7V27.9C36.7372 28.62 36.4661 29.25 35.924 29.79C35.3819 30.33 34.7494 30.6 34.0265 30.6H8.72753ZM8.72753 27.9H34.0265V2.7H8.72753V27.9ZM3.30631 36C2.58348 36 1.95101 35.73 1.40889 35.19C0.866764 34.65 0.595703 34.02 0.595703 33.3V5.4H3.30631V33.3H31.3159V36H3.30631ZM8.72753 2.7V27.9V2.7Z" fill="#2C2C2C"/>
</svg>
