<svg width="187" height="187" viewBox="0 0 187 187" fill="none" xmlns="http://www.w3.org/2000/svg">
<g clip-path="url(#clip0_605_852)">
<path d="M61.1163 88.8174L61.1155 88.8218C60.4419 92.2961 59.2236 94.3454 57.77 95.4686C56.2892 96.6049 53.7255 97.3887 49.6452 97.3887H46.1666L49.196 81.8126H54.4706C58.4519 81.8126 60.162 82.5952 60.7518 83.2427C61.267 83.817 61.7982 85.334 61.1163 88.8174ZM69.6256 103.917C70.2917 103.302 70.9173 102.663 71.5018 102.001L70.4946 107.182L69.9159 110.159H72.9487H83.5786H85.6398L86.0327 108.136L91.1102 81.9914H97.5343C98.7808 81.9914 99.6831 82.0965 100.301 82.2529C100.792 82.3773 100.985 82.504 101.03 82.5368C101.053 82.5825 101.112 82.7274 101.146 83.0444C101.2 83.5517 101.165 84.3239 100.949 85.4161L100.947 85.4258L96.7274 107.175L96.15 110.151H99.1816H109.975H111.457L109.494 120.244L108.915 123.221H111.948H122.656H124.717L125.11 121.198L127.258 110.151H134.366C138.572 110.151 142.184 109.702 145.124 108.757L145.135 108.754L145.145 108.75C148.152 107.753 150.901 106.104 153.195 103.919C155.164 102.1 156.78 100.074 158.024 97.8557L158.028 97.8493C159.3 95.565 160.192 93.0891 160.669 90.5185C161.89 84.2388 161.047 78.8157 157.522 74.7985C154.026 70.7979 148.681 69.0655 142.09 69.0655H121.506H119.445L119.052 71.0884L117.274 80.2305C117.115 77.3014 116.146 74.7482 114.066 72.8394C111.071 70.0912 106.128 69.0655 100.052 69.0655H93.6204L95.5825 58.9728L96.1613 55.9957H93.1284H82.5063H80.4455L80.0522 58.0186L76.1417 78.1342C75.5825 76.9357 74.8592 75.8189 73.9612 74.7929C70.4653 70.7908 65.1194 69.0578 58.5268 69.0578H37.9352H35.8744L35.4811 71.0806L25.9235 120.236L25.3447 123.213H28.3776H39.0852H41.1457L41.5392 121.191L43.6867 110.151H50.803C55.001 110.151 58.6134 109.702 61.553 108.757L61.5627 108.754L61.5723 108.751C64.5729 107.759 67.3301 106.111 69.6256 103.917ZM2.5 93.245C2.5 81.092 11.9116 69.4889 28.4758 60.7763C44.9242 52.1246 67.8199 46.6981 93.245 46.6981C118.67 46.6981 141.566 52.1246 158.014 60.7763C174.578 69.4889 183.99 81.092 183.99 93.245C183.99 105.398 174.578 117.003 158.014 125.718C141.566 134.371 118.67 139.8 93.245 139.8C67.82 139.8 44.9244 134.371 28.476 125.718C11.9118 117.003 2.5 105.398 2.5 93.245ZM129.746 97.3887L132.782 81.8126H138.049C142.034 81.8126 143.751 82.5997 144.328 83.2401C144.847 83.8152 145.384 85.3354 144.703 88.817C144.021 92.2954 142.802 94.3457 141.348 95.4691C139.878 96.603 137.317 97.3887 133.224 97.3887H129.746Z" stroke="#FF6A6A" stroke-width="5"/>
</g>
<defs>
<clipPath id="clip0_605_852">
<rect width="186.49" height="186.49" fill="white"/>
</clipPath>
</defs>
</svg>
