<svg width="191" height="193" viewBox="0 0 191 193" fill="none" xmlns="http://www.w3.org/2000/svg">
<path d="M93.7596 3.00153C86.1846 3.0369 78.9507 3.68612 72.5855 4.81798C53.8346 8.14697 50.4301 15.1148 50.4301 27.9648V43.9356C50.4301 44.4879 50.8778 44.9356 51.4301 44.9356H93.7409C94.2932 44.9356 94.7409 45.3833 94.7409 45.9356V49.5926C94.7409 50.1449 94.2932 50.5926 93.7409 50.5926H33.8007C20.9227 50.5926 9.64645 58.3711 6.11937 73.1685C2.05093 90.1297 1.87047 100.714 6.11937 118.424C9.26914 131.607 16.7912 141 29.6691 141H43.9042C44.4565 141 44.9042 140.552 44.9042 140V120.656C44.9042 105.958 57.5585 92.9938 72.5855 92.9938H116.845C129.165 92.9938 139 82.7998 139 70.366V27.9648C139 15.8972 128.869 6.83202 116.845 4.81798C109.233 3.54463 101.335 2.96616 93.7596 3.00153ZM69.7967 16.6509C74.3737 16.6509 78.1114 20.4684 78.1114 25.1622C78.1114 29.8395 74.3737 33.6217 69.7967 33.6217C65.2033 33.6217 61.482 29.8395 61.482 25.1622C61.482 20.4684 65.2033 16.6509 69.7967 16.6509Z" stroke="#FF6A6A" stroke-width="5"/>
<path d="M146.905 52C146.352 52 145.905 52.4477 145.905 53V71.6229C145.905 86.8363 132.998 99.6409 118.28 99.6409H74.1104C62.0117 99.6409 52 109.989 52 122.097V164.175C52 176.151 62.421 183.195 74.1104 186.631C88.1082 190.744 101.531 191.487 118.28 186.631C129.412 183.41 140.39 176.927 140.39 164.175V148.333C140.39 147.781 139.942 147.333 139.39 147.333H97.2207C96.6684 147.333 96.2207 146.886 96.2207 146.333V142.719C96.2207 142.167 96.6684 141.719 97.2207 141.719H162.5C175.352 141.719 180.141 132.761 184.611 119.315C189.227 105.473 189.031 92.1613 184.611 74.4041C181.435 61.6189 175.368 52 162.5 52H146.905ZM121.063 158.561C125.647 158.561 129.361 162.315 129.361 166.956C129.361 171.614 125.647 175.403 121.063 175.403C116.495 175.403 112.765 171.614 112.765 166.956C112.765 162.315 116.495 158.561 121.063 158.561Z" stroke="#FF6A6A" stroke-width="5"/>
</svg>
