<svg width="169" height="187" viewBox="0 0 169 187" fill="none" xmlns="http://www.w3.org/2000/svg">
    <g clip-path="url(#clip0_14_3642)">
    <path d="M131.81 65.4322L131.488 66.8088L132.844 67.2111C143.468 70.3654 152.148 74.4597 158.137 79.0333C164.159 83.6313 167.229 88.5219 167.229 93.2617C167.229 97.9868 164.174 102.869 158.186 107.463C152.231 112.032 143.602 116.126 133.047 119.28L131.692 119.685L132.017 121.061C134.483 131.522 135.155 140.819 134.066 148.1C132.973 155.407 130.157 160.428 125.901 162.809C123.891 163.931 121.539 164.486 118.86 164.486C109.977 164.486 97.9521 158.334 85.506 147.124L84.4991 146.217L83.495 147.127C71.0458 158.406 59.0229 164.62 50.1441 164.62C47.463 164.62 45.1147 164.063 43.1457 162.947L43.136 162.941C38.8622 160.56 36.0307 155.53 34.9211 148.206C33.8153 140.908 34.4696 131.586 36.9193 121.091L37.2406 119.715L35.8855 119.312C25.2614 116.158 16.5814 112.064 10.5918 107.49C4.57002 102.892 1.5 98.0014 1.5 93.2617C1.5 88.5376 4.55407 83.6634 10.5502 79.0739C16.5145 74.5087 25.1607 70.4144 35.7512 67.2435L37.1053 66.838L36.7809 65.4622C34.3144 55.0013 33.6433 45.7045 34.7323 38.4231C35.8252 31.116 38.6405 26.0949 42.8972 23.7145C44.5224 22.807 46.3725 22.2701 48.4377 22.0981V26.5568C47.2729 26.6889 46.1823 26.9936 45.2352 27.5432C42.3295 29.1968 40.5527 32.8936 39.6536 37.4034C38.7363 42.0049 38.6511 47.8379 39.4732 54.3193L39.4744 54.3283C39.8936 57.4791 40.4872 60.7646 41.2902 64.151L41.6381 65.6179L43.1032 65.2626C49.7707 63.6458 57.0633 62.422 64.777 61.6274L65.4347 61.5597L65.8284 61.0285C70.3602 54.914 75.1299 49.3955 79.8977 44.5396L80.9979 43.419L79.8281 42.3713C74.1544 37.29 68.6141 33.3272 63.554 30.627C59.1481 28.276 55.0196 26.8357 51.4377 26.5125V22.0599C60.1505 22.6986 71.533 28.7746 83.2919 39.3658L84.2987 40.2726L85.3029 39.3628C97.0487 28.7208 108.415 22.5885 117.119 21.9296V26.3821C113.531 26.7123 109.412 28.1604 105.021 30.5207C99.9642 33.2384 94.4327 37.2269 88.7597 42.3413L87.593 43.3931L88.6976 44.5101C93.495 49.3615 98.2663 54.9141 102.873 61.0371L103.266 61.56L103.917 61.6273C111.596 62.4219 118.892 63.646 125.564 65.2309L127.041 65.5819L127.374 64.1002C128.137 60.7011 128.767 57.3473 129.153 54.1468C129.958 47.6659 129.855 41.8327 128.919 37.2349C128.002 32.7249 126.202 29.0312 123.269 27.3995L123.257 27.3926L123.245 27.386C122.319 26.8934 121.294 26.5795 120.154 26.4354V21.969C122.179 22.1455 124.003 22.6804 125.583 23.5767L125.593 23.5821C129.867 25.9636 132.698 30.9937 133.808 38.3175C134.914 45.6158 134.259 54.9376 131.81 65.4322ZM125.389 71.436L125.838 69.9164L124.296 69.551C119.74 68.4716 114.983 67.5963 110.062 66.8904L106.745 66.4145L108.6 69.2055C110.28 71.7323 111.949 74.3099 113.511 76.9463L113.515 76.9524L113.519 76.9585C115.116 79.5953 116.58 82.2372 117.981 84.8885L119.49 87.7455L120.698 84.7486C122.501 80.2758 124.1 75.7933 125.389 71.436ZM109.487 107.307L109.49 107.301C112.092 102.893 114.485 98.3861 116.667 93.8826L116.985 93.2283L116.667 92.5741C114.483 88.0676 112.089 83.5919 109.451 79.1811L109.45 79.1792C106.747 74.6749 103.939 70.4034 101.059 66.3986L100.653 65.8335L99.9587 65.7789C94.8351 65.376 89.6022 65.1405 84.3645 65.1405C79.0923 65.1405 73.8568 65.376 68.6927 65.813L68.0045 65.8713L67.6013 66.432C64.7164 70.444 61.9415 74.7515 59.2419 79.2835L59.2388 79.2887C56.6399 83.692 54.2111 88.2012 52.0575 92.716L51.747 93.367L52.0616 94.016C54.2459 98.5225 56.6396 102.998 59.2777 107.409L59.2788 107.411C61.9819 111.915 64.7904 116.187 67.6701 120.191L68.0765 120.757L68.7703 120.811C73.894 121.214 79.1268 121.45 84.3645 121.45C89.6367 121.45 94.8723 121.214 100.036 120.777L100.725 120.719L101.128 120.158C104.013 116.146 106.788 111.839 109.487 107.307ZM120.692 101.627L119.47 98.6836L117.981 101.501C116.577 104.158 115.111 106.837 113.546 109.477L113.542 109.484C111.979 112.154 110.309 114.765 108.63 117.325L106.808 120.101L110.095 119.633C115.057 118.926 119.848 118.017 124.399 116.939L125.949 116.572L125.49 115.047C124.168 110.663 122.57 106.145 120.692 101.627ZM83.372 138.857L84.4391 139.926L85.5004 138.851C88.7006 135.612 91.9355 132.002 95.0665 128.054L97.1339 125.447L93.8114 125.624C90.7141 125.789 87.543 125.855 84.3301 125.855C81.1618 125.855 78.0215 125.756 74.9368 125.623L71.6101 125.48L73.707 128.067C76.9005 132.006 80.1334 135.614 83.372 138.857ZM58.6324 119.633L61.9497 120.109L60.0946 117.318C58.4213 114.8 56.7817 112.216 55.1759 109.565C53.5788 106.928 52.1146 104.286 50.7137 101.635L49.2042 98.7779L47.9962 101.775C46.1934 106.248 44.5945 110.73 43.3061 115.087L42.8567 116.607L44.3987 116.972C48.9545 118.052 53.7112 118.927 58.6324 119.633ZM85.3227 47.6662L84.2556 46.5978L83.1943 47.672C79.9941 50.9111 76.7592 54.5212 73.6282 58.4693L71.5607 61.0763L74.8833 60.8993C77.9806 60.7342 81.1517 60.6679 84.3645 60.6679C87.5328 60.6679 90.6732 60.767 93.7578 60.9L97.0845 61.0434L94.9877 58.4568C91.7942 54.5175 88.5613 50.9089 85.3227 47.6662ZM60.0652 69.198L61.8864 66.422L58.5995 66.8902C53.6373 67.597 48.8497 68.5056 44.3057 69.5487L42.7423 69.9075L43.2051 71.4434C44.5262 75.8272 46.1251 80.3451 48.0023 84.8634L49.2249 87.8063L50.7137 84.9886C52.1144 82.3376 53.5813 79.6906 55.1488 77.0464L55.1529 77.0394C56.7162 74.3694 58.3855 71.7583 60.0652 69.198ZM27.1124 111.528L27.1139 111.528C30.1576 112.784 33.4368 113.934 36.8798 114.98L38.3252 115.419L38.754 113.97C40.6585 107.538 43.1782 100.831 46.3157 93.9507L46.6003 93.3265L46.3142 92.7029C43.1423 85.7886 40.5882 79.0482 38.6494 72.5814L38.2146 71.1312L36.7684 71.5795C33.4119 72.62 30.1303 73.7363 27.1119 74.9957C20.9297 77.537 15.7711 80.5192 12.1287 83.5867C8.56651 86.5866 6.13511 89.9417 6.13511 93.2617C6.13511 96.5828 8.56804 99.9298 12.1295 102.925C15.772 105.988 20.9308 108.97 27.1124 111.528ZM45.4598 159.124L45.4664 159.128C46.7684 159.843 48.3304 160.177 50.043 160.213L50.0592 160.214H50.0753C54.0028 160.214 58.6767 158.707 63.7084 156.003C68.7648 153.285 74.2964 149.296 79.9693 144.182L81.136 143.13L80.0315 142.013C75.234 137.162 70.4628 131.609 65.8564 125.486L65.463 124.963L64.8121 124.896C57.1327 124.101 49.8373 122.877 43.1652 121.292L41.6877 120.941L41.355 122.423C40.5916 125.823 39.9619 129.177 39.5756 132.378C38.7713 138.858 38.8742 144.691 39.8096 149.288C40.7271 153.798 42.5266 157.492 45.4598 159.124ZM88.8314 141.95L87.7311 143.071L88.901 144.119C94.5747 149.2 100.115 153.163 105.175 155.863C110.21 158.55 114.883 160.047 118.791 160.047C120.516 160.047 122.15 159.76 123.494 158.98C126.4 157.326 128.176 153.63 129.075 149.12C129.993 144.519 130.078 138.686 129.256 132.206C128.869 129.036 128.239 125.746 127.44 122.342L127.094 120.871L125.626 121.227C118.958 122.844 111.666 124.068 103.952 124.863L103.294 124.93L102.901 125.462C98.3688 131.576 93.5992 137.095 88.8314 141.95ZM130.045 113.942L130.48 115.392L131.926 114.944C135.282 113.904 138.563 112.787 141.582 111.528C147.764 108.987 152.923 106.004 156.57 102.937C160.136 99.9371 162.572 96.5858 162.594 93.2715V93.2617C162.594 89.9406 160.161 86.5936 156.6 83.5986C152.957 80.5353 147.798 77.5532 141.617 74.9955L141.61 74.9926C138.535 73.7388 135.258 72.5895 131.815 71.5436L130.369 71.1046L129.941 72.553C128.036 78.9857 125.516 85.6921 122.379 92.5726L122.094 93.1968L122.38 93.8204C125.552 100.735 128.106 107.475 130.045 113.942Z" stroke="#FF6A6A" stroke-width="3"/>
    <path d="M97.5474 93.2617C97.5474 100.23 91.7022 106.007 84.3301 106.007C76.958 106.007 71.1128 100.23 71.1128 93.2617C71.1128 86.2938 76.958 80.5162 84.3301 80.5162C91.7022 80.5162 97.5474 86.2938 97.5474 93.2617Z" stroke="#FF6A6A" stroke-width="5"/>
    </g>
    <defs>
    <clipPath id="clip0_14_3642">
    <rect width="168.729" height="186.49" fill="white"/>
    </clipPath>
    </defs>
    </svg>
    