<svg width="178" height="187" viewBox="0 0 178 187" fill="none" xmlns="http://www.w3.org/2000/svg">
<g clip-path="url(#clip0_966_943)">
<mask id="mask0_966_943" style="mask-type:luminance" maskUnits="userSpaceOnUse" x="0" y="0" width="178" height="187">
<path d="M177.61 0H0V186.49H177.61V0Z" fill="white"/>
</mask>
<g mask="url(#mask0_966_943)">
<path d="M126.999 151.743C127.001 151.743 127.003 151.743 127.006 151.743M127.006 151.743C127.008 151.743 127.01 151.743 127.012 151.743M127.006 151.743C118.85 151.699 110.952 148.632 104.709 143.054L100.543 139.332V144.918V165.354V166.874L101.892 167.573C105.642 169.52 109.643 170.891 113.772 171.643C118.417 172.54 123.131 172.981 127.854 172.96M127.006 151.743C129.318 151.742 131.254 151.522 132.836 151.12H132.839C134.462 150.709 135.714 150.159 136.664 149.528C137.601 148.886 138.216 148.201 138.611 147.481C139.073 146.572 139.286 145.537 139.219 144.495C139.151 143.451 138.805 142.458 138.233 141.629C137.303 140.341 136.172 139.239 134.893 138.367L134.883 138.36L134.873 138.353C133.09 137.112 131.215 136.029 129.266 135.114L129.257 135.109L129.248 135.105C126.816 133.939 124.362 132.824 121.889 131.759L121.881 131.756L121.873 131.753C114.828 128.666 109.377 124.801 105.709 120.079L105.707 120.077C101.998 115.291 100.181 109.536 100.181 102.966C100.181 97.878 101.152 93.3615 103.204 89.5001C105.205 85.7334 107.937 82.6128 111.4 80.1685L111.409 80.1621L111.418 80.1559C114.985 77.685 118.95 75.9017 123.127 74.8948M123.127 74.8948C127.615 73.7844 132.214 73.236 136.826 73.2616C141.449 73.2619 145.595 73.5549 149.256 74.1557C152.738 74.704 156.153 75.6381 159.445 76.9416L161.024 77.5671V79.266V98.3657V103.271L157.055 100.389C155.684 99.3929 154.229 98.5353 152.709 97.8262L152.698 97.821C151.097 97.0646 149.445 96.4357 147.756 95.9392C144.544 94.9996 141.23 94.5113 137.898 94.4862C135.841 94.4868 134.031 94.689 132.447 95.0812L132.42 95.0877L132.394 95.0937C131.051 95.3951 129.76 95.9198 128.567 96.651C127.607 97.2711 126.931 97.974 126.461 98.7427C126.017 99.4717 125.78 100.333 125.791 101.218V101.233V101.249C125.791 102.319 126.06 103.229 126.559 104.024C127.139 104.935 128.012 105.877 129.249 106.828C130.512 107.8 132.093 108.78 134.02 109.773L134.027 109.776C135.986 110.794 138.219 111.849 140.721 112.934L140.734 112.939C144.306 114.511 147.535 116.196 150.414 117.983L150.419 117.986C153.359 119.818 155.915 121.91 158.067 124.271C160.271 126.68 161.946 129.434 163.106 132.513C164.284 135.64 164.85 139.189 164.85 143.131C164.85 148.525 163.875 153.248 161.802 157.164C159.822 160.936 156.974 164.147 153.503 166.499L153.495 166.505L153.486 166.511C149.864 168.923 145.843 170.617 141.625 171.504C137.25 172.477 132.655 172.959 127.854 172.96M123.127 74.8948C123.124 74.8954 123.122 74.896 123.119 74.8967L123.72 77.3234L123.135 74.8929C123.132 74.8935 123.13 74.8942 123.127 74.8948ZM127.854 172.96H127.85M127.854 172.96C127.857 172.96 127.859 172.96 127.861 172.96M24.9764 74.7224H22.4764V77.2224V94.0531V96.5531H24.9764H47.7414V169.007V171.507H50.2414H70.3484H72.8484V169.007V96.5531H95.7466H98.2466V94.0531V77.2224V74.7224H95.7466H24.9764ZM2.5 8.74172C2.5 5.16512 5.20926 2.5 8.32547 2.5H169.285C172.401 2.5 175.11 5.16512 175.11 8.74172V177.748C175.11 181.325 172.401 183.99 169.285 183.99H8.32547C5.20926 183.99 2.5 181.325 2.5 177.748V8.74172Z" stroke="#FF6A6A" stroke-width="5"/>
</g>
</g>
<defs>
<clipPath id="clip0_966_943">
<rect width="178" height="187" fill="white"/>
</clipPath>
</defs>
</svg>
