<svg width="160" height="187" viewBox="0 0 160 187" fill="none" xmlns="http://www.w3.org/2000/svg">
    <g clip-path="url(#clip0_14_3646)">
    <path d="M147.968 142.995L79.9214 183.579L11.8753 142.977L34.9689 129.206L62.265 145.506L62.2851 145.518L62.3054 145.529C62.9325 145.888 63.6453 146.075 64.3729 146.066C65.1005 146.058 65.8084 145.854 66.4266 145.481C67.0442 145.108 67.5476 144.582 67.8954 143.961C68.2429 143.341 68.4254 142.645 68.4306 141.939L68.4307 141.93V141.92V101.414V101.413C68.4302 100.41 68.1748 99.42 67.6844 98.542C67.1938 97.6634 66.4825 96.9234 65.614 96.404L65.6116 96.4026L31.6455 76.1431L31.6286 76.133L31.6115 76.1232C30.9867 75.7637 30.2762 75.5744 29.5502 75.5798C28.8242 75.5852 28.1168 75.785 27.4975 76.1535C26.8788 76.5215 26.3727 77.043 26.0207 77.6594C25.669 78.2753 25.4807 78.969 25.4687 79.6733L25.4683 79.6946V79.716V112.38L2.5 126.079V44.9137L70.4259 4.4019V31.9444L43.0745 48.2621L43.0644 48.268L43.0545 48.2741C42.4365 48.6507 41.934 49.1812 41.5888 49.8056C41.2438 50.4295 41.0652 51.1298 41.0652 51.8381C41.0652 52.5464 41.2438 53.2466 41.5888 53.8706C41.934 54.495 42.4365 55.0255 43.0545 55.402L43.0647 55.4083L43.075 55.4144L77.0358 75.6643C77.0362 75.6646 77.0367 75.6648 77.0371 75.6651C77.9077 76.1868 78.9029 76.465 79.9212 76.465C80.9394 76.465 81.9346 76.1868 82.8052 75.6651C82.8056 75.6649 82.8061 75.6646 82.8065 75.6643L116.767 55.4144L116.785 55.404L116.802 55.3933C117.414 55.0146 117.912 54.4845 118.253 53.862C118.594 53.2399 118.771 52.5429 118.771 51.8381C118.771 51.1332 118.594 50.4362 118.253 49.8142C117.912 49.1917 117.414 48.6615 116.802 48.2828L116.785 48.2723L116.768 48.2621L89.4164 31.9444V4.40209L157.336 44.9136V126.078L134.38 112.38V79.7225V79.7138L134.38 79.705C134.375 78.9959 134.191 78.296 133.841 77.6739C133.491 77.0512 132.983 76.5241 132.361 76.1523C131.738 75.7801 131.026 75.579 130.295 75.5753C129.564 75.5716 128.849 75.7654 128.223 76.1315L128.213 76.1372L128.203 76.143L94.2407 96.3967C94.2386 96.398 94.2364 96.3993 94.2342 96.4005C93.3634 96.916 92.6495 97.6536 92.1566 98.5308C91.6627 99.4097 91.4055 100.402 91.4053 101.407V101.408V141.901V141.913L91.4054 141.925C91.4122 142.632 91.5966 143.329 91.946 143.95C92.2958 144.57 92.8013 145.096 93.4206 145.468C94.0407 145.84 94.7502 146.043 95.4789 146.05C96.2076 146.057 96.9211 145.868 97.5483 145.507L97.5656 145.497L97.5827 145.487L124.872 129.206L147.968 142.995Z" stroke="#FF6A6A" stroke-width="5"/>
    <path d="M79.9211 186.49L152.847 142.996L124.872 126.295L96.3019 143.34C96.0576 143.48 95.7822 143.553 95.5027 143.55C95.2232 143.547 94.9491 143.47 94.7074 143.325C94.4657 143.179 94.2647 142.972 94.1241 142.722C93.9835 142.473 93.9081 142.19 93.9053 141.901V101.408C93.9054 100.827 94.054 100.257 94.3361 99.7555C94.6181 99.2536 95.0236 98.8376 95.5114 98.5497L129.484 78.2902C129.727 78.1479 130.002 78.0739 130.282 78.0753C130.562 78.0767 130.836 78.1536 131.078 78.2983C131.321 78.443 131.522 78.6505 131.663 78.9003C131.803 79.1501 131.878 79.4335 131.88 79.7225V113.799L159.849 130.481V43.4938L79.9211 91.1614V186.49Z" fill="#FF6A6A" fill-opacity="0.3"/>
    <path d="M86.9164 0V33.3641L115.487 50.409C115.726 50.5569 115.924 50.7663 116.061 51.0167C116.199 51.2672 116.271 51.5502 116.271 51.8381C116.271 52.126 116.199 52.4089 116.061 52.6594C115.924 52.9099 115.726 53.1192 115.487 53.2671L81.521 73.5266C81.0346 73.8167 80.4828 73.9695 79.9211 73.9695C79.3595 73.9695 78.8077 73.8167 78.3213 73.5266L44.3553 53.2736C44.1147 53.127 43.9152 52.918 43.7767 52.6674C43.6381 52.4168 43.5652 52.1332 43.5652 51.8445C43.5652 51.5559 43.6381 51.2723 43.7767 51.0217C43.9152 50.7711 44.1147 50.5621 44.3553 50.4155L72.9259 33.3705V0L0 43.4938L79.9211 91.1614L159.836 43.4938L86.9164 0Z" fill="#FF6A6A" fill-opacity="0.1"/>
    <path d="M63.553 143.359L34.9698 126.295L6.99521 142.977L79.9211 186.49V91.1614L0 43.4938V130.481L27.9683 113.799V79.716C27.9732 79.4283 28.0502 79.1469 28.1917 78.8991C28.3332 78.6513 28.5344 78.4456 28.7757 78.302C29.0171 78.1584 29.2903 78.0818 29.5688 78.0798C29.8473 78.0777 30.1216 78.1502 30.3649 78.2902L64.3309 98.5497C64.8172 98.8405 65.2209 99.2582 65.5017 99.7609C65.7825 100.264 65.9304 100.834 65.9307 101.414V141.92C65.928 142.207 65.8534 142.488 65.7142 142.736C65.575 142.984 65.376 143.191 65.1365 143.336C64.897 143.481 64.6252 143.559 64.3477 143.563C64.0702 143.567 63.7964 143.497 63.553 143.359V143.359Z" fill="#FF6A6A" fill-opacity="0.1"/>
    </g>
    <defs>
    <clipPath id="clip0_14_3646">
    <rect width="159.849" height="186.49" fill="white"/>
    </clipPath>
    </defs>
    </svg>
    